G04 #@! TF.FileFunction,Soldermask,Top*
%FSLAX46Y46*%
G04 Gerber Fmt 4.6, Leading zero omitted, Abs format (unit mm)*
G04 Created by KiCad (PCBNEW 4.0.7-e2-6376~58~ubuntu16.04.1) date Wed Nov 22 10:08:24 2017*
%MOMM*%
%LPD*%
G01*
G04 APERTURE LIST*
%ADD10C,0.100000*%
%ADD11R,4.000000X2.200000*%
%ADD12O,4.000000X2.200000*%
%ADD13C,2.900000*%
%ADD14C,3.400000*%
%ADD15R,2.400000X2.000000*%
%ADD16R,1.150000X1.600000*%
%ADD17R,1.300000X1.200000*%
%ADD18R,1.500000X5.000000*%
%ADD19R,11.200000X9.800000*%
%ADD20R,1.300000X1.600000*%
%ADD21R,1.700000X2.400000*%
%ADD22R,2.400000X2.400000*%
%ADD23R,1.900000X1.700000*%
%ADD24R,1.000000X1.950000*%
%ADD25R,1.543000X0.908000*%
%ADD26R,2.400000X2.180000*%
G04 APERTURE END LIST*
D10*
D11*
X53500000Y-69500000D03*
D12*
X53500000Y-64420000D03*
D13*
X117520000Y-55500000D03*
X117520000Y-60580000D03*
X112010000Y-60580000D03*
X112010000Y-55500000D03*
X106500000Y-55500000D03*
X106500000Y-60580000D03*
X67490000Y-55420000D03*
X67490000Y-60500000D03*
X73000000Y-60500000D03*
X73000000Y-55420000D03*
X80490000Y-55420000D03*
X80490000Y-60500000D03*
X86000000Y-60500000D03*
X86000000Y-55420000D03*
X93490000Y-55420000D03*
X93490000Y-60500000D03*
X99000000Y-60500000D03*
X99000000Y-55420000D03*
X124980000Y-60500000D03*
X124980000Y-55420000D03*
X130490000Y-55420000D03*
X130490000Y-60500000D03*
X136000000Y-60500000D03*
X136000000Y-55420000D03*
D14*
X54500000Y-95500000D03*
X145500000Y-95500000D03*
X145500000Y-54500000D03*
X54500000Y-54500000D03*
D15*
X122750000Y-79500000D03*
X126750000Y-79500000D03*
D16*
X116000000Y-80200000D03*
X116000000Y-78300000D03*
D17*
X82750000Y-87950000D03*
X82750000Y-86050000D03*
X80750000Y-87000000D03*
X75250000Y-87950000D03*
X75250000Y-86050000D03*
X73250000Y-87000000D03*
X68000000Y-88200000D03*
X68000000Y-86300000D03*
X66000000Y-87250000D03*
D18*
X93710000Y-78775000D03*
X96250000Y-78775000D03*
X98790000Y-78775000D03*
D19*
X96250000Y-69625000D03*
D18*
X80710000Y-78775000D03*
X83250000Y-78775000D03*
X85790000Y-78775000D03*
D19*
X83250000Y-69625000D03*
D18*
X67710000Y-78775000D03*
X70250000Y-78775000D03*
X72790000Y-78775000D03*
D19*
X70250000Y-69625000D03*
D20*
X118250000Y-80350000D03*
X118250000Y-78150000D03*
D21*
X133400000Y-94250000D03*
D22*
X132250000Y-90250000D03*
D21*
X131100000Y-94250000D03*
D20*
X111400000Y-80350000D03*
X111400000Y-78150000D03*
X103750000Y-80350000D03*
X103750000Y-78150000D03*
X107500000Y-80350000D03*
X107500000Y-78150000D03*
X81000000Y-91150000D03*
X81000000Y-93350000D03*
X75500000Y-91150000D03*
X75500000Y-93350000D03*
D23*
X56400000Y-75500000D03*
X59100000Y-75500000D03*
D20*
X64500000Y-91150000D03*
X64500000Y-93350000D03*
X67250000Y-91150000D03*
X67250000Y-93350000D03*
X78250000Y-91150000D03*
X78250000Y-93350000D03*
X72750000Y-91150000D03*
X72750000Y-93350000D03*
X70000000Y-91150000D03*
X70000000Y-93350000D03*
D24*
X125155000Y-87550000D03*
X123885000Y-87550000D03*
X122615000Y-87550000D03*
X121345000Y-87550000D03*
X121345000Y-92950000D03*
X122615000Y-92950000D03*
X123885000Y-92950000D03*
X125155000Y-92950000D03*
D25*
X111448000Y-84440000D03*
X111448000Y-85710000D03*
X111448000Y-86980000D03*
X111448000Y-88250000D03*
X111448000Y-89520000D03*
X111448000Y-90790000D03*
X111448000Y-92060000D03*
X117798000Y-92060000D03*
X117798000Y-90790000D03*
X117798000Y-88250000D03*
X117798000Y-86980000D03*
X117798000Y-85710000D03*
X117798000Y-84440000D03*
X117798000Y-89520000D03*
X99948000Y-84440000D03*
X99948000Y-85710000D03*
X99948000Y-86980000D03*
X99948000Y-88250000D03*
X99948000Y-89520000D03*
X99948000Y-90790000D03*
X99948000Y-92060000D03*
X106298000Y-92060000D03*
X106298000Y-90790000D03*
X106298000Y-88250000D03*
X106298000Y-86980000D03*
X106298000Y-85710000D03*
X106298000Y-84440000D03*
X106298000Y-89520000D03*
D26*
X52985000Y-81230000D03*
X62515000Y-83770000D03*
X52985000Y-83770000D03*
X62515000Y-81230000D03*
M02*
