G04 #@! TF.FileFunction,Copper,L2,Bot,Signal*
%FSLAX46Y46*%
G04 Gerber Fmt 4.6, Leading zero omitted, Abs format (unit mm)*
G04 Created by KiCad (PCBNEW 4.0.7-e2-6376~58~ubuntu16.04.1) date Wed Nov 22 10:08:24 2017*
%MOMM*%
%LPD*%
G01*
G04 APERTURE LIST*
%ADD10C,0.100000*%
%ADD11R,3.600000X1.800000*%
%ADD12O,3.600000X1.800000*%
%ADD13C,2.500000*%
%ADD14C,0.800000*%
%ADD15C,0.500000*%
%ADD16C,1.000000*%
%ADD17C,0.254000*%
G04 APERTURE END LIST*
D10*
D11*
X53500000Y-69500000D03*
D12*
X53500000Y-64420000D03*
D13*
X117520000Y-55500000D03*
X117520000Y-60580000D03*
X112010000Y-60580000D03*
X112010000Y-55500000D03*
X106500000Y-55500000D03*
X106500000Y-60580000D03*
X67490000Y-55420000D03*
X67490000Y-60500000D03*
X73000000Y-60500000D03*
X73000000Y-55420000D03*
X80490000Y-55420000D03*
X80490000Y-60500000D03*
X86000000Y-60500000D03*
X86000000Y-55420000D03*
X93490000Y-55420000D03*
X93490000Y-60500000D03*
X99000000Y-60500000D03*
X99000000Y-55420000D03*
X124980000Y-60500000D03*
X124980000Y-55420000D03*
X130490000Y-55420000D03*
X130490000Y-60500000D03*
X136000000Y-60500000D03*
X136000000Y-55420000D03*
D14*
X116250000Y-77250000D03*
X104250000Y-76500000D03*
X111500000Y-77000000D03*
X107500000Y-76750000D03*
X126250000Y-77250000D03*
X110250000Y-92000000D03*
X101500000Y-92000000D03*
X75250000Y-89500000D03*
X82500000Y-89500000D03*
X67250000Y-89500000D03*
X116000000Y-81500000D03*
X121250000Y-91250000D03*
X114250000Y-77500000D03*
X111000000Y-81250000D03*
X105750000Y-74750000D03*
X80000000Y-95250000D03*
X76500000Y-95250000D03*
X101250000Y-84500000D03*
X109750000Y-87000000D03*
X110000000Y-88250000D03*
X101250000Y-89500000D03*
X121750000Y-85250000D03*
X125250000Y-90750000D03*
X116250000Y-84500000D03*
X104500000Y-84500000D03*
X64500000Y-78750000D03*
X100750000Y-78500000D03*
X87250000Y-78750000D03*
X74500000Y-78750000D03*
X56750000Y-82000000D03*
D15*
X116250000Y-77250000D02*
X117250000Y-76250000D01*
X117250000Y-76250000D02*
X117250000Y-76500000D01*
X117250000Y-76500000D02*
X117250000Y-76250000D01*
X104500000Y-76250000D02*
X107500000Y-76250000D01*
X104250000Y-76500000D02*
X104500000Y-76250000D01*
X111500000Y-76500000D02*
X111500000Y-76250000D01*
X111500000Y-77000000D02*
X111500000Y-76500000D01*
X107500000Y-76750000D02*
X107500000Y-76250000D01*
X107500000Y-76250000D02*
X107500000Y-76500000D01*
X107500000Y-76500000D02*
X107500000Y-76250000D01*
X107500000Y-76250000D02*
X111500000Y-76250000D01*
X111500000Y-76250000D02*
X114250000Y-76250000D01*
X114250000Y-76250000D02*
X117250000Y-76250000D01*
X117250000Y-76250000D02*
X125250000Y-76250000D01*
X125250000Y-76250000D02*
X126250000Y-77250000D01*
X101500000Y-92000000D02*
X110250000Y-92000000D01*
X73750000Y-89500000D02*
X75250000Y-89500000D01*
X75250000Y-89500000D02*
X82500000Y-89500000D01*
X67250000Y-89500000D02*
X73750000Y-89500000D01*
X80490000Y-55420000D02*
X80490000Y-53010000D01*
X80490000Y-53010000D02*
X80900000Y-52600000D01*
X93490000Y-53690000D02*
X93490000Y-55420000D01*
X92400000Y-52600000D02*
X93490000Y-53690000D01*
X80900000Y-52600000D02*
X92400000Y-52600000D01*
X80490000Y-53010000D02*
X80500000Y-53000000D01*
X93490000Y-55420000D02*
X93490000Y-52500000D01*
X93490000Y-52500000D02*
X93500000Y-52500000D01*
X67490000Y-55420000D02*
X67490000Y-55010000D01*
X67490000Y-55010000D02*
X70000000Y-52500000D01*
X70000000Y-52500000D02*
X93500000Y-52500000D01*
X112010000Y-53510000D02*
X112010000Y-55500000D01*
X111000000Y-52500000D02*
X112010000Y-53510000D01*
X93500000Y-52500000D02*
X111000000Y-52500000D01*
X119500000Y-85000000D02*
X116000000Y-81500000D01*
X119500000Y-89500000D02*
X119500000Y-85000000D01*
X121250000Y-91250000D02*
X119500000Y-89500000D01*
X114250000Y-79750000D02*
X114250000Y-77500000D01*
X113000000Y-81000000D02*
X114250000Y-79750000D01*
X111250000Y-81000000D02*
X113000000Y-81000000D01*
X111000000Y-81250000D02*
X111250000Y-81000000D01*
X117520000Y-60580000D02*
X117520000Y-62480000D01*
X105750000Y-72500000D02*
X105750000Y-74750000D01*
X110250000Y-68000000D02*
X105750000Y-72500000D01*
X112000000Y-68000000D02*
X110250000Y-68000000D01*
X117520000Y-62480000D02*
X112000000Y-68000000D01*
X76500000Y-95250000D02*
X80000000Y-95250000D01*
X101250000Y-86750000D02*
X101250000Y-84500000D01*
X101500000Y-87000000D02*
X101250000Y-86750000D01*
X109750000Y-87000000D02*
X101500000Y-87000000D01*
X109500000Y-88250000D02*
X110000000Y-88250000D01*
X108250000Y-89500000D02*
X109500000Y-88250000D01*
X101250000Y-89500000D02*
X108250000Y-89500000D01*
D16*
X124250000Y-87750000D02*
X121750000Y-85250000D01*
X124250000Y-89750000D02*
X124250000Y-87750000D01*
X125250000Y-90750000D02*
X124250000Y-89750000D01*
X104500000Y-84500000D02*
X116250000Y-84500000D01*
X64500000Y-78750000D02*
X64750000Y-78500000D01*
X64750000Y-78500000D02*
X77000000Y-78500000D01*
X98750000Y-78500000D02*
X100750000Y-78500000D01*
X87250000Y-78500000D02*
X98750000Y-78500000D01*
X87250000Y-78750000D02*
X87250000Y-78500000D01*
X74750000Y-78500000D02*
X77000000Y-78500000D01*
X77000000Y-78500000D02*
X87250000Y-78500000D01*
X74500000Y-78750000D02*
X74750000Y-78500000D01*
D15*
X53500000Y-76750000D02*
X53500000Y-69500000D01*
X57250000Y-80500000D02*
X53500000Y-76750000D01*
X57250000Y-81500000D02*
X57250000Y-80500000D01*
X56750000Y-82000000D02*
X57250000Y-81500000D01*
X54000000Y-69000000D02*
X53500000Y-69500000D01*
D17*
G36*
X149290000Y-99290000D02*
X50710000Y-99290000D01*
X50710000Y-95922815D01*
X52364630Y-95922815D01*
X52688980Y-96707800D01*
X53289041Y-97308909D01*
X54073459Y-97634628D01*
X54922815Y-97635370D01*
X55707800Y-97311020D01*
X56308909Y-96710959D01*
X56634628Y-95926541D01*
X56635039Y-95454971D01*
X75464821Y-95454971D01*
X75622058Y-95835515D01*
X75912954Y-96126919D01*
X76293223Y-96284820D01*
X76704971Y-96285179D01*
X77068433Y-96135000D01*
X79432415Y-96135000D01*
X79793223Y-96284820D01*
X80204971Y-96285179D01*
X80585515Y-96127942D01*
X80791000Y-95922815D01*
X143364630Y-95922815D01*
X143688980Y-96707800D01*
X144289041Y-97308909D01*
X145073459Y-97634628D01*
X145922815Y-97635370D01*
X146707800Y-97311020D01*
X147308909Y-96710959D01*
X147634628Y-95926541D01*
X147635370Y-95077185D01*
X147311020Y-94292200D01*
X146710959Y-93691091D01*
X145926541Y-93365372D01*
X145077185Y-93364630D01*
X144292200Y-93688980D01*
X143691091Y-94289041D01*
X143365372Y-95073459D01*
X143364630Y-95922815D01*
X80791000Y-95922815D01*
X80876919Y-95837046D01*
X81034820Y-95456777D01*
X81035179Y-95045029D01*
X80877942Y-94664485D01*
X80587046Y-94373081D01*
X80206777Y-94215180D01*
X79795029Y-94214821D01*
X79431567Y-94365000D01*
X77067585Y-94365000D01*
X76706777Y-94215180D01*
X76295029Y-94214821D01*
X75914485Y-94372058D01*
X75623081Y-94662954D01*
X75465180Y-95043223D01*
X75464821Y-95454971D01*
X56635039Y-95454971D01*
X56635370Y-95077185D01*
X56311020Y-94292200D01*
X55710959Y-93691091D01*
X54926541Y-93365372D01*
X54077185Y-93364630D01*
X53292200Y-93688980D01*
X52691091Y-94289041D01*
X52365372Y-95073459D01*
X52364630Y-95922815D01*
X50710000Y-95922815D01*
X50710000Y-84704971D01*
X100214821Y-84704971D01*
X100365000Y-85068433D01*
X100365000Y-86749995D01*
X100364999Y-86750000D01*
X100404272Y-86947434D01*
X100432367Y-87088675D01*
X100584029Y-87315654D01*
X100624210Y-87375790D01*
X100874208Y-87625787D01*
X100874210Y-87625790D01*
X101161325Y-87817633D01*
X101500000Y-87885000D01*
X108613421Y-87885000D01*
X107883420Y-88615000D01*
X101817585Y-88615000D01*
X101456777Y-88465180D01*
X101045029Y-88464821D01*
X100664485Y-88622058D01*
X100373081Y-88912954D01*
X100215180Y-89293223D01*
X100214821Y-89704971D01*
X100372058Y-90085515D01*
X100662954Y-90376919D01*
X101043223Y-90534820D01*
X101454971Y-90535179D01*
X101818433Y-90385000D01*
X108249995Y-90385000D01*
X108250000Y-90385001D01*
X108532484Y-90328810D01*
X108588675Y-90317633D01*
X108875790Y-90125790D01*
X109739194Y-89262385D01*
X109793223Y-89284820D01*
X110204971Y-89285179D01*
X110585515Y-89127942D01*
X110876919Y-88837046D01*
X111034820Y-88456777D01*
X111035179Y-88045029D01*
X110877942Y-87664485D01*
X110677952Y-87464145D01*
X110784820Y-87206777D01*
X110785179Y-86795029D01*
X110627942Y-86414485D01*
X110337046Y-86123081D01*
X109956777Y-85965180D01*
X109545029Y-85964821D01*
X109181567Y-86115000D01*
X102135000Y-86115000D01*
X102135000Y-85067585D01*
X102284820Y-84706777D01*
X102285000Y-84500000D01*
X103365000Y-84500000D01*
X103451397Y-84934346D01*
X103697434Y-85302566D01*
X104065654Y-85548603D01*
X104500000Y-85635000D01*
X116250000Y-85635000D01*
X116684346Y-85548603D01*
X117052566Y-85302566D01*
X117298603Y-84934346D01*
X117385000Y-84500000D01*
X117298603Y-84065654D01*
X117267448Y-84019028D01*
X118615000Y-85366579D01*
X118615000Y-89499995D01*
X118614999Y-89500000D01*
X118657731Y-89714821D01*
X118682367Y-89838675D01*
X118755037Y-89947434D01*
X118874210Y-90125790D01*
X120222869Y-91474448D01*
X120372058Y-91835515D01*
X120662954Y-92126919D01*
X121043223Y-92284820D01*
X121454971Y-92285179D01*
X121835515Y-92127942D01*
X122126919Y-91837046D01*
X122284820Y-91456777D01*
X122285179Y-91045029D01*
X122127942Y-90664485D01*
X121837046Y-90373081D01*
X121473847Y-90222268D01*
X120385000Y-89133420D01*
X120385000Y-85250000D01*
X120615000Y-85250000D01*
X120701397Y-85684345D01*
X120947434Y-86052566D01*
X123115000Y-88220132D01*
X123115000Y-89750000D01*
X123201397Y-90184346D01*
X123435816Y-90535179D01*
X123447434Y-90552566D01*
X124447434Y-91552567D01*
X124815655Y-91798604D01*
X125250000Y-91885000D01*
X125684346Y-91798604D01*
X126052567Y-91552567D01*
X126298604Y-91184346D01*
X126385000Y-90750000D01*
X126298604Y-90315655D01*
X126052567Y-89947434D01*
X125385000Y-89279868D01*
X125385000Y-87750000D01*
X125298603Y-87315654D01*
X125052566Y-86947434D01*
X122552566Y-84447434D01*
X122184345Y-84201397D01*
X121750000Y-84115000D01*
X121315655Y-84201397D01*
X120947434Y-84447434D01*
X120701397Y-84815655D01*
X120615000Y-85250000D01*
X120385000Y-85250000D01*
X120385000Y-85000000D01*
X120317633Y-84661325D01*
X120125790Y-84374210D01*
X120125787Y-84374208D01*
X117027131Y-81275551D01*
X116877942Y-80914485D01*
X116587046Y-80623081D01*
X116206777Y-80465180D01*
X115795029Y-80464821D01*
X115414485Y-80622058D01*
X115123081Y-80912954D01*
X114965180Y-81293223D01*
X114964821Y-81704971D01*
X115122058Y-82085515D01*
X115412954Y-82376919D01*
X115776151Y-82527731D01*
X116730972Y-83482551D01*
X116684346Y-83451397D01*
X116250000Y-83365000D01*
X104500000Y-83365000D01*
X104065654Y-83451397D01*
X103697434Y-83697434D01*
X103451397Y-84065654D01*
X103365000Y-84500000D01*
X102285000Y-84500000D01*
X102285179Y-84295029D01*
X102127942Y-83914485D01*
X101837046Y-83623081D01*
X101456777Y-83465180D01*
X101045029Y-83464821D01*
X100664485Y-83622058D01*
X100373081Y-83912954D01*
X100215180Y-84293223D01*
X100214821Y-84704971D01*
X50710000Y-84704971D01*
X50710000Y-68600000D01*
X51052560Y-68600000D01*
X51052560Y-70400000D01*
X51096838Y-70635317D01*
X51235910Y-70851441D01*
X51448110Y-70996431D01*
X51700000Y-71047440D01*
X52615000Y-71047440D01*
X52615000Y-76749995D01*
X52614999Y-76750000D01*
X52647718Y-76914485D01*
X52682367Y-77088675D01*
X52730910Y-77161325D01*
X52874210Y-77375790D01*
X56365000Y-80866579D01*
X56365000Y-81039207D01*
X56164485Y-81122058D01*
X55873081Y-81412954D01*
X55715180Y-81793223D01*
X55714821Y-82204971D01*
X55872058Y-82585515D01*
X56162954Y-82876919D01*
X56543223Y-83034820D01*
X56954971Y-83035179D01*
X57335515Y-82877942D01*
X57626919Y-82587046D01*
X57777732Y-82223847D01*
X57875787Y-82125792D01*
X57875790Y-82125790D01*
X58067633Y-81838675D01*
X58078810Y-81782484D01*
X58135001Y-81500000D01*
X58135000Y-81499995D01*
X58135000Y-81454971D01*
X109964821Y-81454971D01*
X110122058Y-81835515D01*
X110412954Y-82126919D01*
X110793223Y-82284820D01*
X111204971Y-82285179D01*
X111585515Y-82127942D01*
X111828881Y-81885000D01*
X112999995Y-81885000D01*
X113000000Y-81885001D01*
X113282484Y-81828810D01*
X113338675Y-81817633D01*
X113625790Y-81625790D01*
X114875787Y-80375792D01*
X114875790Y-80375790D01*
X115067633Y-80088675D01*
X115110293Y-79874211D01*
X115135001Y-79750000D01*
X115135000Y-79749995D01*
X115135000Y-78067585D01*
X115284820Y-77706777D01*
X115285179Y-77295029D01*
X115127942Y-76914485D01*
X114837046Y-76623081D01*
X114456777Y-76465180D01*
X114045029Y-76464821D01*
X113664485Y-76622058D01*
X113373081Y-76912954D01*
X113215180Y-77293223D01*
X113214821Y-77704971D01*
X113365000Y-78068433D01*
X113365000Y-79383421D01*
X112633420Y-80115000D01*
X111250000Y-80115000D01*
X110911325Y-80182367D01*
X110862666Y-80214880D01*
X110795029Y-80214821D01*
X110414485Y-80372058D01*
X110123081Y-80662954D01*
X109965180Y-81043223D01*
X109964821Y-81454971D01*
X58135000Y-81454971D01*
X58135000Y-80500005D01*
X58135001Y-80500000D01*
X58078274Y-80214821D01*
X58067633Y-80161325D01*
X57875790Y-79874210D01*
X57875787Y-79874208D01*
X56751580Y-78750000D01*
X63365000Y-78750000D01*
X63451397Y-79184345D01*
X63697434Y-79552566D01*
X64065655Y-79798603D01*
X64500000Y-79885000D01*
X64934345Y-79798603D01*
X65179195Y-79635000D01*
X73820805Y-79635000D01*
X74065655Y-79798603D01*
X74500000Y-79885000D01*
X74934345Y-79798603D01*
X75179195Y-79635000D01*
X86570805Y-79635000D01*
X86815654Y-79798603D01*
X87250000Y-79885000D01*
X87684346Y-79798603D01*
X87929195Y-79635000D01*
X100750000Y-79635000D01*
X101184346Y-79548603D01*
X101552566Y-79302566D01*
X101798603Y-78934346D01*
X101885000Y-78500000D01*
X101798603Y-78065654D01*
X101552566Y-77697434D01*
X101184346Y-77451397D01*
X100750000Y-77365000D01*
X64750000Y-77365000D01*
X64315654Y-77451397D01*
X63947434Y-77697434D01*
X63697434Y-77947434D01*
X63451397Y-78315655D01*
X63365000Y-78750000D01*
X56751580Y-78750000D01*
X54385000Y-76383420D01*
X54385000Y-74954971D01*
X104714821Y-74954971D01*
X104872058Y-75335515D01*
X105162954Y-75626919D01*
X105543223Y-75784820D01*
X105954971Y-75785179D01*
X106335515Y-75627942D01*
X106626919Y-75337046D01*
X106784820Y-74956777D01*
X106785179Y-74545029D01*
X106635000Y-74181567D01*
X106635000Y-72866580D01*
X110616579Y-68885000D01*
X111999995Y-68885000D01*
X112000000Y-68885001D01*
X112282484Y-68828810D01*
X112338675Y-68817633D01*
X112625790Y-68625790D01*
X118145787Y-63105792D01*
X118145790Y-63105790D01*
X118337633Y-62818675D01*
X118348810Y-62762484D01*
X118405001Y-62480000D01*
X118405000Y-62479995D01*
X118405000Y-62253898D01*
X118586372Y-62178957D01*
X119117093Y-61649161D01*
X119404672Y-60956595D01*
X119404744Y-60873305D01*
X123094674Y-60873305D01*
X123381043Y-61566372D01*
X123910839Y-62097093D01*
X124603405Y-62384672D01*
X125353305Y-62385326D01*
X126046372Y-62098957D01*
X126577093Y-61569161D01*
X126864672Y-60876595D01*
X126864674Y-60873305D01*
X128604674Y-60873305D01*
X128891043Y-61566372D01*
X129420839Y-62097093D01*
X130113405Y-62384672D01*
X130863305Y-62385326D01*
X131556372Y-62098957D01*
X132087093Y-61569161D01*
X132374672Y-60876595D01*
X132374674Y-60873305D01*
X134114674Y-60873305D01*
X134401043Y-61566372D01*
X134930839Y-62097093D01*
X135623405Y-62384672D01*
X136373305Y-62385326D01*
X137066372Y-62098957D01*
X137597093Y-61569161D01*
X137884672Y-60876595D01*
X137885326Y-60126695D01*
X137598957Y-59433628D01*
X137069161Y-58902907D01*
X136376595Y-58615328D01*
X135626695Y-58614674D01*
X134933628Y-58901043D01*
X134402907Y-59430839D01*
X134115328Y-60123405D01*
X134114674Y-60873305D01*
X132374674Y-60873305D01*
X132375326Y-60126695D01*
X132088957Y-59433628D01*
X131559161Y-58902907D01*
X130866595Y-58615328D01*
X130116695Y-58614674D01*
X129423628Y-58901043D01*
X128892907Y-59430839D01*
X128605328Y-60123405D01*
X128604674Y-60873305D01*
X126864674Y-60873305D01*
X126865326Y-60126695D01*
X126578957Y-59433628D01*
X126049161Y-58902907D01*
X125356595Y-58615328D01*
X124606695Y-58614674D01*
X123913628Y-58901043D01*
X123382907Y-59430839D01*
X123095328Y-60123405D01*
X123094674Y-60873305D01*
X119404744Y-60873305D01*
X119405326Y-60206695D01*
X119118957Y-59513628D01*
X118589161Y-58982907D01*
X117896595Y-58695328D01*
X117146695Y-58694674D01*
X116453628Y-58981043D01*
X115922907Y-59510839D01*
X115635328Y-60203405D01*
X115634674Y-60953305D01*
X115921043Y-61646372D01*
X116450839Y-62177093D01*
X116535976Y-62212445D01*
X111633420Y-67115000D01*
X110250005Y-67115000D01*
X110250000Y-67114999D01*
X109967516Y-67171190D01*
X109911325Y-67182367D01*
X109624210Y-67374210D01*
X109624208Y-67374213D01*
X105124210Y-71874210D01*
X104932367Y-72161325D01*
X104932367Y-72161326D01*
X104864999Y-72500000D01*
X104865000Y-72500005D01*
X104865000Y-74182415D01*
X104715180Y-74543223D01*
X104714821Y-74954971D01*
X54385000Y-74954971D01*
X54385000Y-71047440D01*
X55300000Y-71047440D01*
X55535317Y-71003162D01*
X55751441Y-70864090D01*
X55896431Y-70651890D01*
X55947440Y-70400000D01*
X55947440Y-68600000D01*
X55903162Y-68364683D01*
X55764090Y-68148559D01*
X55551890Y-68003569D01*
X55300000Y-67952560D01*
X51700000Y-67952560D01*
X51464683Y-67996838D01*
X51248559Y-68135910D01*
X51103569Y-68348110D01*
X51052560Y-68600000D01*
X50710000Y-68600000D01*
X50710000Y-64420000D01*
X51017296Y-64420000D01*
X51134141Y-65007419D01*
X51466887Y-65505409D01*
X51964877Y-65838155D01*
X52552296Y-65955000D01*
X54447704Y-65955000D01*
X55035123Y-65838155D01*
X55533113Y-65505409D01*
X55865859Y-65007419D01*
X55982704Y-64420000D01*
X55865859Y-63832581D01*
X55533113Y-63334591D01*
X55035123Y-63001845D01*
X54447704Y-62885000D01*
X52552296Y-62885000D01*
X51964877Y-63001845D01*
X51466887Y-63334591D01*
X51134141Y-63832581D01*
X51017296Y-64420000D01*
X50710000Y-64420000D01*
X50710000Y-61833320D01*
X66336285Y-61833320D01*
X66465533Y-62126123D01*
X67165806Y-62394388D01*
X67915435Y-62374250D01*
X68514467Y-62126123D01*
X68643715Y-61833320D01*
X67490000Y-60679605D01*
X66336285Y-61833320D01*
X50710000Y-61833320D01*
X50710000Y-60175806D01*
X65595612Y-60175806D01*
X65615750Y-60925435D01*
X65863877Y-61524467D01*
X66156680Y-61653715D01*
X67310395Y-60500000D01*
X67669605Y-60500000D01*
X68823320Y-61653715D01*
X69116123Y-61524467D01*
X69365574Y-60873305D01*
X71114674Y-60873305D01*
X71401043Y-61566372D01*
X71930839Y-62097093D01*
X72623405Y-62384672D01*
X73373305Y-62385326D01*
X74066372Y-62098957D01*
X74332472Y-61833320D01*
X79336285Y-61833320D01*
X79465533Y-62126123D01*
X80165806Y-62394388D01*
X80915435Y-62374250D01*
X81514467Y-62126123D01*
X81643715Y-61833320D01*
X80490000Y-60679605D01*
X79336285Y-61833320D01*
X74332472Y-61833320D01*
X74597093Y-61569161D01*
X74884672Y-60876595D01*
X74885283Y-60175806D01*
X78595612Y-60175806D01*
X78615750Y-60925435D01*
X78863877Y-61524467D01*
X79156680Y-61653715D01*
X80310395Y-60500000D01*
X80669605Y-60500000D01*
X81823320Y-61653715D01*
X82116123Y-61524467D01*
X82365574Y-60873305D01*
X84114674Y-60873305D01*
X84401043Y-61566372D01*
X84930839Y-62097093D01*
X85623405Y-62384672D01*
X86373305Y-62385326D01*
X87066372Y-62098957D01*
X87332472Y-61833320D01*
X92336285Y-61833320D01*
X92465533Y-62126123D01*
X93165806Y-62394388D01*
X93915435Y-62374250D01*
X94514467Y-62126123D01*
X94643715Y-61833320D01*
X93490000Y-60679605D01*
X92336285Y-61833320D01*
X87332472Y-61833320D01*
X87597093Y-61569161D01*
X87884672Y-60876595D01*
X87885283Y-60175806D01*
X91595612Y-60175806D01*
X91615750Y-60925435D01*
X91863877Y-61524467D01*
X92156680Y-61653715D01*
X93310395Y-60500000D01*
X93669605Y-60500000D01*
X94823320Y-61653715D01*
X95116123Y-61524467D01*
X95365574Y-60873305D01*
X97114674Y-60873305D01*
X97401043Y-61566372D01*
X97930839Y-62097093D01*
X98623405Y-62384672D01*
X99373305Y-62385326D01*
X100066372Y-62098957D01*
X100597093Y-61569161D01*
X100852819Y-60953305D01*
X104614674Y-60953305D01*
X104901043Y-61646372D01*
X105430839Y-62177093D01*
X106123405Y-62464672D01*
X106873305Y-62465326D01*
X107566372Y-62178957D01*
X107832472Y-61913320D01*
X110856285Y-61913320D01*
X110985533Y-62206123D01*
X111685806Y-62474388D01*
X112435435Y-62454250D01*
X113034467Y-62206123D01*
X113163715Y-61913320D01*
X112010000Y-60759605D01*
X110856285Y-61913320D01*
X107832472Y-61913320D01*
X108097093Y-61649161D01*
X108384672Y-60956595D01*
X108385283Y-60255806D01*
X110115612Y-60255806D01*
X110135750Y-61005435D01*
X110383877Y-61604467D01*
X110676680Y-61733715D01*
X111830395Y-60580000D01*
X112189605Y-60580000D01*
X113343320Y-61733715D01*
X113636123Y-61604467D01*
X113904388Y-60904194D01*
X113884250Y-60154565D01*
X113636123Y-59555533D01*
X113343320Y-59426285D01*
X112189605Y-60580000D01*
X111830395Y-60580000D01*
X110676680Y-59426285D01*
X110383877Y-59555533D01*
X110115612Y-60255806D01*
X108385283Y-60255806D01*
X108385326Y-60206695D01*
X108098957Y-59513628D01*
X107832475Y-59246680D01*
X110856285Y-59246680D01*
X112010000Y-60400395D01*
X113163715Y-59246680D01*
X113034467Y-58953877D01*
X112334194Y-58685612D01*
X111584565Y-58705750D01*
X110985533Y-58953877D01*
X110856285Y-59246680D01*
X107832475Y-59246680D01*
X107569161Y-58982907D01*
X106876595Y-58695328D01*
X106126695Y-58694674D01*
X105433628Y-58981043D01*
X104902907Y-59510839D01*
X104615328Y-60203405D01*
X104614674Y-60953305D01*
X100852819Y-60953305D01*
X100884672Y-60876595D01*
X100885326Y-60126695D01*
X100598957Y-59433628D01*
X100069161Y-58902907D01*
X99376595Y-58615328D01*
X98626695Y-58614674D01*
X97933628Y-58901043D01*
X97402907Y-59430839D01*
X97115328Y-60123405D01*
X97114674Y-60873305D01*
X95365574Y-60873305D01*
X95384388Y-60824194D01*
X95364250Y-60074565D01*
X95116123Y-59475533D01*
X94823320Y-59346285D01*
X93669605Y-60500000D01*
X93310395Y-60500000D01*
X92156680Y-59346285D01*
X91863877Y-59475533D01*
X91595612Y-60175806D01*
X87885283Y-60175806D01*
X87885326Y-60126695D01*
X87598957Y-59433628D01*
X87332475Y-59166680D01*
X92336285Y-59166680D01*
X93490000Y-60320395D01*
X94643715Y-59166680D01*
X94514467Y-58873877D01*
X93814194Y-58605612D01*
X93064565Y-58625750D01*
X92465533Y-58873877D01*
X92336285Y-59166680D01*
X87332475Y-59166680D01*
X87069161Y-58902907D01*
X86376595Y-58615328D01*
X85626695Y-58614674D01*
X84933628Y-58901043D01*
X84402907Y-59430839D01*
X84115328Y-60123405D01*
X84114674Y-60873305D01*
X82365574Y-60873305D01*
X82384388Y-60824194D01*
X82364250Y-60074565D01*
X82116123Y-59475533D01*
X81823320Y-59346285D01*
X80669605Y-60500000D01*
X80310395Y-60500000D01*
X79156680Y-59346285D01*
X78863877Y-59475533D01*
X78595612Y-60175806D01*
X74885283Y-60175806D01*
X74885326Y-60126695D01*
X74598957Y-59433628D01*
X74332475Y-59166680D01*
X79336285Y-59166680D01*
X80490000Y-60320395D01*
X81643715Y-59166680D01*
X81514467Y-58873877D01*
X80814194Y-58605612D01*
X80064565Y-58625750D01*
X79465533Y-58873877D01*
X79336285Y-59166680D01*
X74332475Y-59166680D01*
X74069161Y-58902907D01*
X73376595Y-58615328D01*
X72626695Y-58614674D01*
X71933628Y-58901043D01*
X71402907Y-59430839D01*
X71115328Y-60123405D01*
X71114674Y-60873305D01*
X69365574Y-60873305D01*
X69384388Y-60824194D01*
X69364250Y-60074565D01*
X69116123Y-59475533D01*
X68823320Y-59346285D01*
X67669605Y-60500000D01*
X67310395Y-60500000D01*
X66156680Y-59346285D01*
X65863877Y-59475533D01*
X65595612Y-60175806D01*
X50710000Y-60175806D01*
X50710000Y-59166680D01*
X66336285Y-59166680D01*
X67490000Y-60320395D01*
X68643715Y-59166680D01*
X68514467Y-58873877D01*
X67814194Y-58605612D01*
X67064565Y-58625750D01*
X66465533Y-58873877D01*
X66336285Y-59166680D01*
X50710000Y-59166680D01*
X50710000Y-56753320D01*
X66336285Y-56753320D01*
X66465533Y-57046123D01*
X67165806Y-57314388D01*
X67915435Y-57294250D01*
X68514467Y-57046123D01*
X68643715Y-56753320D01*
X67490000Y-55599605D01*
X66336285Y-56753320D01*
X50710000Y-56753320D01*
X50710000Y-54922815D01*
X52364630Y-54922815D01*
X52688980Y-55707800D01*
X53289041Y-56308909D01*
X54073459Y-56634628D01*
X54922815Y-56635370D01*
X55707800Y-56311020D01*
X56308909Y-55710959D01*
X56564342Y-55095806D01*
X65595612Y-55095806D01*
X65615750Y-55845435D01*
X65863877Y-56444467D01*
X66156680Y-56573715D01*
X67310395Y-55420000D01*
X67669605Y-55420000D01*
X68823320Y-56573715D01*
X69116123Y-56444467D01*
X69365574Y-55793305D01*
X71114674Y-55793305D01*
X71401043Y-56486372D01*
X71930839Y-57017093D01*
X72623405Y-57304672D01*
X73373305Y-57305326D01*
X74066372Y-57018957D01*
X74332472Y-56753320D01*
X79336285Y-56753320D01*
X79465533Y-57046123D01*
X80165806Y-57314388D01*
X80915435Y-57294250D01*
X81514467Y-57046123D01*
X81643715Y-56753320D01*
X80490000Y-55599605D01*
X79336285Y-56753320D01*
X74332472Y-56753320D01*
X74597093Y-56489161D01*
X74884672Y-55796595D01*
X74885283Y-55095806D01*
X78595612Y-55095806D01*
X78615750Y-55845435D01*
X78863877Y-56444467D01*
X79156680Y-56573715D01*
X80310395Y-55420000D01*
X80669605Y-55420000D01*
X81823320Y-56573715D01*
X82116123Y-56444467D01*
X82365574Y-55793305D01*
X84114674Y-55793305D01*
X84401043Y-56486372D01*
X84930839Y-57017093D01*
X85623405Y-57304672D01*
X86373305Y-57305326D01*
X87066372Y-57018957D01*
X87332472Y-56753320D01*
X92336285Y-56753320D01*
X92465533Y-57046123D01*
X93165806Y-57314388D01*
X93915435Y-57294250D01*
X94514467Y-57046123D01*
X94643715Y-56753320D01*
X93490000Y-55599605D01*
X92336285Y-56753320D01*
X87332472Y-56753320D01*
X87597093Y-56489161D01*
X87884672Y-55796595D01*
X87885283Y-55095806D01*
X91595612Y-55095806D01*
X91615750Y-55845435D01*
X91863877Y-56444467D01*
X92156680Y-56573715D01*
X93310395Y-55420000D01*
X93669605Y-55420000D01*
X94823320Y-56573715D01*
X95116123Y-56444467D01*
X95365574Y-55793305D01*
X97114674Y-55793305D01*
X97401043Y-56486372D01*
X97930839Y-57017093D01*
X98623405Y-57304672D01*
X99373305Y-57305326D01*
X100066372Y-57018957D01*
X100597093Y-56489161D01*
X100852819Y-55873305D01*
X104614674Y-55873305D01*
X104901043Y-56566372D01*
X105430839Y-57097093D01*
X106123405Y-57384672D01*
X106873305Y-57385326D01*
X107566372Y-57098957D01*
X107832472Y-56833320D01*
X110856285Y-56833320D01*
X110985533Y-57126123D01*
X111685806Y-57394388D01*
X112435435Y-57374250D01*
X113034467Y-57126123D01*
X113163715Y-56833320D01*
X112010000Y-55679605D01*
X110856285Y-56833320D01*
X107832472Y-56833320D01*
X108097093Y-56569161D01*
X108384672Y-55876595D01*
X108385283Y-55175806D01*
X110115612Y-55175806D01*
X110135750Y-55925435D01*
X110383877Y-56524467D01*
X110676680Y-56653715D01*
X111830395Y-55500000D01*
X112189605Y-55500000D01*
X113343320Y-56653715D01*
X113636123Y-56524467D01*
X113885574Y-55873305D01*
X115634674Y-55873305D01*
X115921043Y-56566372D01*
X116450839Y-57097093D01*
X117143405Y-57384672D01*
X117893305Y-57385326D01*
X118586372Y-57098957D01*
X119117093Y-56569161D01*
X119404672Y-55876595D01*
X119404744Y-55793305D01*
X123094674Y-55793305D01*
X123381043Y-56486372D01*
X123910839Y-57017093D01*
X124603405Y-57304672D01*
X125353305Y-57305326D01*
X126046372Y-57018957D01*
X126577093Y-56489161D01*
X126864672Y-55796595D01*
X126864674Y-55793305D01*
X128604674Y-55793305D01*
X128891043Y-56486372D01*
X129420839Y-57017093D01*
X130113405Y-57304672D01*
X130863305Y-57305326D01*
X131556372Y-57018957D01*
X132087093Y-56489161D01*
X132374672Y-55796595D01*
X132374674Y-55793305D01*
X134114674Y-55793305D01*
X134401043Y-56486372D01*
X134930839Y-57017093D01*
X135623405Y-57304672D01*
X136373305Y-57305326D01*
X137066372Y-57018957D01*
X137597093Y-56489161D01*
X137884672Y-55796595D01*
X137885326Y-55046695D01*
X137834140Y-54922815D01*
X143364630Y-54922815D01*
X143688980Y-55707800D01*
X144289041Y-56308909D01*
X145073459Y-56634628D01*
X145922815Y-56635370D01*
X146707800Y-56311020D01*
X147308909Y-55710959D01*
X147634628Y-54926541D01*
X147635370Y-54077185D01*
X147311020Y-53292200D01*
X146710959Y-52691091D01*
X145926541Y-52365372D01*
X145077185Y-52364630D01*
X144292200Y-52688980D01*
X143691091Y-53289041D01*
X143365372Y-54073459D01*
X143364630Y-54922815D01*
X137834140Y-54922815D01*
X137598957Y-54353628D01*
X137069161Y-53822907D01*
X136376595Y-53535328D01*
X135626695Y-53534674D01*
X134933628Y-53821043D01*
X134402907Y-54350839D01*
X134115328Y-55043405D01*
X134114674Y-55793305D01*
X132374674Y-55793305D01*
X132375326Y-55046695D01*
X132088957Y-54353628D01*
X131559161Y-53822907D01*
X130866595Y-53535328D01*
X130116695Y-53534674D01*
X129423628Y-53821043D01*
X128892907Y-54350839D01*
X128605328Y-55043405D01*
X128604674Y-55793305D01*
X126864674Y-55793305D01*
X126865326Y-55046695D01*
X126578957Y-54353628D01*
X126049161Y-53822907D01*
X125356595Y-53535328D01*
X124606695Y-53534674D01*
X123913628Y-53821043D01*
X123382907Y-54350839D01*
X123095328Y-55043405D01*
X123094674Y-55793305D01*
X119404744Y-55793305D01*
X119405326Y-55126695D01*
X119118957Y-54433628D01*
X118589161Y-53902907D01*
X117896595Y-53615328D01*
X117146695Y-53614674D01*
X116453628Y-53901043D01*
X115922907Y-54430839D01*
X115635328Y-55123405D01*
X115634674Y-55873305D01*
X113885574Y-55873305D01*
X113904388Y-55824194D01*
X113884250Y-55074565D01*
X113636123Y-54475533D01*
X113343320Y-54346285D01*
X112189605Y-55500000D01*
X111830395Y-55500000D01*
X110676680Y-54346285D01*
X110383877Y-54475533D01*
X110115612Y-55175806D01*
X108385283Y-55175806D01*
X108385326Y-55126695D01*
X108098957Y-54433628D01*
X107832475Y-54166680D01*
X110856285Y-54166680D01*
X112010000Y-55320395D01*
X113163715Y-54166680D01*
X113034467Y-53873877D01*
X112334194Y-53605612D01*
X111584565Y-53625750D01*
X110985533Y-53873877D01*
X110856285Y-54166680D01*
X107832475Y-54166680D01*
X107569161Y-53902907D01*
X106876595Y-53615328D01*
X106126695Y-53614674D01*
X105433628Y-53901043D01*
X104902907Y-54430839D01*
X104615328Y-55123405D01*
X104614674Y-55873305D01*
X100852819Y-55873305D01*
X100884672Y-55796595D01*
X100885326Y-55046695D01*
X100598957Y-54353628D01*
X100069161Y-53822907D01*
X99376595Y-53535328D01*
X98626695Y-53534674D01*
X97933628Y-53821043D01*
X97402907Y-54350839D01*
X97115328Y-55043405D01*
X97114674Y-55793305D01*
X95365574Y-55793305D01*
X95384388Y-55744194D01*
X95364250Y-54994565D01*
X95116123Y-54395533D01*
X94823320Y-54266285D01*
X93669605Y-55420000D01*
X93310395Y-55420000D01*
X92156680Y-54266285D01*
X91863877Y-54395533D01*
X91595612Y-55095806D01*
X87885283Y-55095806D01*
X87885326Y-55046695D01*
X87598957Y-54353628D01*
X87332475Y-54086680D01*
X92336285Y-54086680D01*
X93490000Y-55240395D01*
X94643715Y-54086680D01*
X94514467Y-53793877D01*
X93814194Y-53525612D01*
X93064565Y-53545750D01*
X92465533Y-53793877D01*
X92336285Y-54086680D01*
X87332475Y-54086680D01*
X87069161Y-53822907D01*
X86376595Y-53535328D01*
X85626695Y-53534674D01*
X84933628Y-53821043D01*
X84402907Y-54350839D01*
X84115328Y-55043405D01*
X84114674Y-55793305D01*
X82365574Y-55793305D01*
X82384388Y-55744194D01*
X82364250Y-54994565D01*
X82116123Y-54395533D01*
X81823320Y-54266285D01*
X80669605Y-55420000D01*
X80310395Y-55420000D01*
X79156680Y-54266285D01*
X78863877Y-54395533D01*
X78595612Y-55095806D01*
X74885283Y-55095806D01*
X74885326Y-55046695D01*
X74598957Y-54353628D01*
X74332475Y-54086680D01*
X79336285Y-54086680D01*
X80490000Y-55240395D01*
X81643715Y-54086680D01*
X81514467Y-53793877D01*
X80814194Y-53525612D01*
X80064565Y-53545750D01*
X79465533Y-53793877D01*
X79336285Y-54086680D01*
X74332475Y-54086680D01*
X74069161Y-53822907D01*
X73376595Y-53535328D01*
X72626695Y-53534674D01*
X71933628Y-53821043D01*
X71402907Y-54350839D01*
X71115328Y-55043405D01*
X71114674Y-55793305D01*
X69365574Y-55793305D01*
X69384388Y-55744194D01*
X69364250Y-54994565D01*
X69116123Y-54395533D01*
X68823320Y-54266285D01*
X67669605Y-55420000D01*
X67310395Y-55420000D01*
X66156680Y-54266285D01*
X65863877Y-54395533D01*
X65595612Y-55095806D01*
X56564342Y-55095806D01*
X56634628Y-54926541D01*
X56635361Y-54086680D01*
X66336285Y-54086680D01*
X67490000Y-55240395D01*
X68643715Y-54086680D01*
X68514467Y-53793877D01*
X67814194Y-53525612D01*
X67064565Y-53545750D01*
X66465533Y-53793877D01*
X66336285Y-54086680D01*
X56635361Y-54086680D01*
X56635370Y-54077185D01*
X56311020Y-53292200D01*
X55710959Y-52691091D01*
X54926541Y-52365372D01*
X54077185Y-52364630D01*
X53292200Y-52688980D01*
X52691091Y-53289041D01*
X52365372Y-54073459D01*
X52364630Y-54922815D01*
X50710000Y-54922815D01*
X50710000Y-50710000D01*
X149290000Y-50710000D01*
X149290000Y-99290000D01*
X149290000Y-99290000D01*
G37*
X149290000Y-99290000D02*
X50710000Y-99290000D01*
X50710000Y-95922815D01*
X52364630Y-95922815D01*
X52688980Y-96707800D01*
X53289041Y-97308909D01*
X54073459Y-97634628D01*
X54922815Y-97635370D01*
X55707800Y-97311020D01*
X56308909Y-96710959D01*
X56634628Y-95926541D01*
X56635039Y-95454971D01*
X75464821Y-95454971D01*
X75622058Y-95835515D01*
X75912954Y-96126919D01*
X76293223Y-96284820D01*
X76704971Y-96285179D01*
X77068433Y-96135000D01*
X79432415Y-96135000D01*
X79793223Y-96284820D01*
X80204971Y-96285179D01*
X80585515Y-96127942D01*
X80791000Y-95922815D01*
X143364630Y-95922815D01*
X143688980Y-96707800D01*
X144289041Y-97308909D01*
X145073459Y-97634628D01*
X145922815Y-97635370D01*
X146707800Y-97311020D01*
X147308909Y-96710959D01*
X147634628Y-95926541D01*
X147635370Y-95077185D01*
X147311020Y-94292200D01*
X146710959Y-93691091D01*
X145926541Y-93365372D01*
X145077185Y-93364630D01*
X144292200Y-93688980D01*
X143691091Y-94289041D01*
X143365372Y-95073459D01*
X143364630Y-95922815D01*
X80791000Y-95922815D01*
X80876919Y-95837046D01*
X81034820Y-95456777D01*
X81035179Y-95045029D01*
X80877942Y-94664485D01*
X80587046Y-94373081D01*
X80206777Y-94215180D01*
X79795029Y-94214821D01*
X79431567Y-94365000D01*
X77067585Y-94365000D01*
X76706777Y-94215180D01*
X76295029Y-94214821D01*
X75914485Y-94372058D01*
X75623081Y-94662954D01*
X75465180Y-95043223D01*
X75464821Y-95454971D01*
X56635039Y-95454971D01*
X56635370Y-95077185D01*
X56311020Y-94292200D01*
X55710959Y-93691091D01*
X54926541Y-93365372D01*
X54077185Y-93364630D01*
X53292200Y-93688980D01*
X52691091Y-94289041D01*
X52365372Y-95073459D01*
X52364630Y-95922815D01*
X50710000Y-95922815D01*
X50710000Y-84704971D01*
X100214821Y-84704971D01*
X100365000Y-85068433D01*
X100365000Y-86749995D01*
X100364999Y-86750000D01*
X100404272Y-86947434D01*
X100432367Y-87088675D01*
X100584029Y-87315654D01*
X100624210Y-87375790D01*
X100874208Y-87625787D01*
X100874210Y-87625790D01*
X101161325Y-87817633D01*
X101500000Y-87885000D01*
X108613421Y-87885000D01*
X107883420Y-88615000D01*
X101817585Y-88615000D01*
X101456777Y-88465180D01*
X101045029Y-88464821D01*
X100664485Y-88622058D01*
X100373081Y-88912954D01*
X100215180Y-89293223D01*
X100214821Y-89704971D01*
X100372058Y-90085515D01*
X100662954Y-90376919D01*
X101043223Y-90534820D01*
X101454971Y-90535179D01*
X101818433Y-90385000D01*
X108249995Y-90385000D01*
X108250000Y-90385001D01*
X108532484Y-90328810D01*
X108588675Y-90317633D01*
X108875790Y-90125790D01*
X109739194Y-89262385D01*
X109793223Y-89284820D01*
X110204971Y-89285179D01*
X110585515Y-89127942D01*
X110876919Y-88837046D01*
X111034820Y-88456777D01*
X111035179Y-88045029D01*
X110877942Y-87664485D01*
X110677952Y-87464145D01*
X110784820Y-87206777D01*
X110785179Y-86795029D01*
X110627942Y-86414485D01*
X110337046Y-86123081D01*
X109956777Y-85965180D01*
X109545029Y-85964821D01*
X109181567Y-86115000D01*
X102135000Y-86115000D01*
X102135000Y-85067585D01*
X102284820Y-84706777D01*
X102285000Y-84500000D01*
X103365000Y-84500000D01*
X103451397Y-84934346D01*
X103697434Y-85302566D01*
X104065654Y-85548603D01*
X104500000Y-85635000D01*
X116250000Y-85635000D01*
X116684346Y-85548603D01*
X117052566Y-85302566D01*
X117298603Y-84934346D01*
X117385000Y-84500000D01*
X117298603Y-84065654D01*
X117267448Y-84019028D01*
X118615000Y-85366579D01*
X118615000Y-89499995D01*
X118614999Y-89500000D01*
X118657731Y-89714821D01*
X118682367Y-89838675D01*
X118755037Y-89947434D01*
X118874210Y-90125790D01*
X120222869Y-91474448D01*
X120372058Y-91835515D01*
X120662954Y-92126919D01*
X121043223Y-92284820D01*
X121454971Y-92285179D01*
X121835515Y-92127942D01*
X122126919Y-91837046D01*
X122284820Y-91456777D01*
X122285179Y-91045029D01*
X122127942Y-90664485D01*
X121837046Y-90373081D01*
X121473847Y-90222268D01*
X120385000Y-89133420D01*
X120385000Y-85250000D01*
X120615000Y-85250000D01*
X120701397Y-85684345D01*
X120947434Y-86052566D01*
X123115000Y-88220132D01*
X123115000Y-89750000D01*
X123201397Y-90184346D01*
X123435816Y-90535179D01*
X123447434Y-90552566D01*
X124447434Y-91552567D01*
X124815655Y-91798604D01*
X125250000Y-91885000D01*
X125684346Y-91798604D01*
X126052567Y-91552567D01*
X126298604Y-91184346D01*
X126385000Y-90750000D01*
X126298604Y-90315655D01*
X126052567Y-89947434D01*
X125385000Y-89279868D01*
X125385000Y-87750000D01*
X125298603Y-87315654D01*
X125052566Y-86947434D01*
X122552566Y-84447434D01*
X122184345Y-84201397D01*
X121750000Y-84115000D01*
X121315655Y-84201397D01*
X120947434Y-84447434D01*
X120701397Y-84815655D01*
X120615000Y-85250000D01*
X120385000Y-85250000D01*
X120385000Y-85000000D01*
X120317633Y-84661325D01*
X120125790Y-84374210D01*
X120125787Y-84374208D01*
X117027131Y-81275551D01*
X116877942Y-80914485D01*
X116587046Y-80623081D01*
X116206777Y-80465180D01*
X115795029Y-80464821D01*
X115414485Y-80622058D01*
X115123081Y-80912954D01*
X114965180Y-81293223D01*
X114964821Y-81704971D01*
X115122058Y-82085515D01*
X115412954Y-82376919D01*
X115776151Y-82527731D01*
X116730972Y-83482551D01*
X116684346Y-83451397D01*
X116250000Y-83365000D01*
X104500000Y-83365000D01*
X104065654Y-83451397D01*
X103697434Y-83697434D01*
X103451397Y-84065654D01*
X103365000Y-84500000D01*
X102285000Y-84500000D01*
X102285179Y-84295029D01*
X102127942Y-83914485D01*
X101837046Y-83623081D01*
X101456777Y-83465180D01*
X101045029Y-83464821D01*
X100664485Y-83622058D01*
X100373081Y-83912954D01*
X100215180Y-84293223D01*
X100214821Y-84704971D01*
X50710000Y-84704971D01*
X50710000Y-68600000D01*
X51052560Y-68600000D01*
X51052560Y-70400000D01*
X51096838Y-70635317D01*
X51235910Y-70851441D01*
X51448110Y-70996431D01*
X51700000Y-71047440D01*
X52615000Y-71047440D01*
X52615000Y-76749995D01*
X52614999Y-76750000D01*
X52647718Y-76914485D01*
X52682367Y-77088675D01*
X52730910Y-77161325D01*
X52874210Y-77375790D01*
X56365000Y-80866579D01*
X56365000Y-81039207D01*
X56164485Y-81122058D01*
X55873081Y-81412954D01*
X55715180Y-81793223D01*
X55714821Y-82204971D01*
X55872058Y-82585515D01*
X56162954Y-82876919D01*
X56543223Y-83034820D01*
X56954971Y-83035179D01*
X57335515Y-82877942D01*
X57626919Y-82587046D01*
X57777732Y-82223847D01*
X57875787Y-82125792D01*
X57875790Y-82125790D01*
X58067633Y-81838675D01*
X58078810Y-81782484D01*
X58135001Y-81500000D01*
X58135000Y-81499995D01*
X58135000Y-81454971D01*
X109964821Y-81454971D01*
X110122058Y-81835515D01*
X110412954Y-82126919D01*
X110793223Y-82284820D01*
X111204971Y-82285179D01*
X111585515Y-82127942D01*
X111828881Y-81885000D01*
X112999995Y-81885000D01*
X113000000Y-81885001D01*
X113282484Y-81828810D01*
X113338675Y-81817633D01*
X113625790Y-81625790D01*
X114875787Y-80375792D01*
X114875790Y-80375790D01*
X115067633Y-80088675D01*
X115110293Y-79874211D01*
X115135001Y-79750000D01*
X115135000Y-79749995D01*
X115135000Y-78067585D01*
X115284820Y-77706777D01*
X115285179Y-77295029D01*
X115127942Y-76914485D01*
X114837046Y-76623081D01*
X114456777Y-76465180D01*
X114045029Y-76464821D01*
X113664485Y-76622058D01*
X113373081Y-76912954D01*
X113215180Y-77293223D01*
X113214821Y-77704971D01*
X113365000Y-78068433D01*
X113365000Y-79383421D01*
X112633420Y-80115000D01*
X111250000Y-80115000D01*
X110911325Y-80182367D01*
X110862666Y-80214880D01*
X110795029Y-80214821D01*
X110414485Y-80372058D01*
X110123081Y-80662954D01*
X109965180Y-81043223D01*
X109964821Y-81454971D01*
X58135000Y-81454971D01*
X58135000Y-80500005D01*
X58135001Y-80500000D01*
X58078274Y-80214821D01*
X58067633Y-80161325D01*
X57875790Y-79874210D01*
X57875787Y-79874208D01*
X56751580Y-78750000D01*
X63365000Y-78750000D01*
X63451397Y-79184345D01*
X63697434Y-79552566D01*
X64065655Y-79798603D01*
X64500000Y-79885000D01*
X64934345Y-79798603D01*
X65179195Y-79635000D01*
X73820805Y-79635000D01*
X74065655Y-79798603D01*
X74500000Y-79885000D01*
X74934345Y-79798603D01*
X75179195Y-79635000D01*
X86570805Y-79635000D01*
X86815654Y-79798603D01*
X87250000Y-79885000D01*
X87684346Y-79798603D01*
X87929195Y-79635000D01*
X100750000Y-79635000D01*
X101184346Y-79548603D01*
X101552566Y-79302566D01*
X101798603Y-78934346D01*
X101885000Y-78500000D01*
X101798603Y-78065654D01*
X101552566Y-77697434D01*
X101184346Y-77451397D01*
X100750000Y-77365000D01*
X64750000Y-77365000D01*
X64315654Y-77451397D01*
X63947434Y-77697434D01*
X63697434Y-77947434D01*
X63451397Y-78315655D01*
X63365000Y-78750000D01*
X56751580Y-78750000D01*
X54385000Y-76383420D01*
X54385000Y-74954971D01*
X104714821Y-74954971D01*
X104872058Y-75335515D01*
X105162954Y-75626919D01*
X105543223Y-75784820D01*
X105954971Y-75785179D01*
X106335515Y-75627942D01*
X106626919Y-75337046D01*
X106784820Y-74956777D01*
X106785179Y-74545029D01*
X106635000Y-74181567D01*
X106635000Y-72866580D01*
X110616579Y-68885000D01*
X111999995Y-68885000D01*
X112000000Y-68885001D01*
X112282484Y-68828810D01*
X112338675Y-68817633D01*
X112625790Y-68625790D01*
X118145787Y-63105792D01*
X118145790Y-63105790D01*
X118337633Y-62818675D01*
X118348810Y-62762484D01*
X118405001Y-62480000D01*
X118405000Y-62479995D01*
X118405000Y-62253898D01*
X118586372Y-62178957D01*
X119117093Y-61649161D01*
X119404672Y-60956595D01*
X119404744Y-60873305D01*
X123094674Y-60873305D01*
X123381043Y-61566372D01*
X123910839Y-62097093D01*
X124603405Y-62384672D01*
X125353305Y-62385326D01*
X126046372Y-62098957D01*
X126577093Y-61569161D01*
X126864672Y-60876595D01*
X126864674Y-60873305D01*
X128604674Y-60873305D01*
X128891043Y-61566372D01*
X129420839Y-62097093D01*
X130113405Y-62384672D01*
X130863305Y-62385326D01*
X131556372Y-62098957D01*
X132087093Y-61569161D01*
X132374672Y-60876595D01*
X132374674Y-60873305D01*
X134114674Y-60873305D01*
X134401043Y-61566372D01*
X134930839Y-62097093D01*
X135623405Y-62384672D01*
X136373305Y-62385326D01*
X137066372Y-62098957D01*
X137597093Y-61569161D01*
X137884672Y-60876595D01*
X137885326Y-60126695D01*
X137598957Y-59433628D01*
X137069161Y-58902907D01*
X136376595Y-58615328D01*
X135626695Y-58614674D01*
X134933628Y-58901043D01*
X134402907Y-59430839D01*
X134115328Y-60123405D01*
X134114674Y-60873305D01*
X132374674Y-60873305D01*
X132375326Y-60126695D01*
X132088957Y-59433628D01*
X131559161Y-58902907D01*
X130866595Y-58615328D01*
X130116695Y-58614674D01*
X129423628Y-58901043D01*
X128892907Y-59430839D01*
X128605328Y-60123405D01*
X128604674Y-60873305D01*
X126864674Y-60873305D01*
X126865326Y-60126695D01*
X126578957Y-59433628D01*
X126049161Y-58902907D01*
X125356595Y-58615328D01*
X124606695Y-58614674D01*
X123913628Y-58901043D01*
X123382907Y-59430839D01*
X123095328Y-60123405D01*
X123094674Y-60873305D01*
X119404744Y-60873305D01*
X119405326Y-60206695D01*
X119118957Y-59513628D01*
X118589161Y-58982907D01*
X117896595Y-58695328D01*
X117146695Y-58694674D01*
X116453628Y-58981043D01*
X115922907Y-59510839D01*
X115635328Y-60203405D01*
X115634674Y-60953305D01*
X115921043Y-61646372D01*
X116450839Y-62177093D01*
X116535976Y-62212445D01*
X111633420Y-67115000D01*
X110250005Y-67115000D01*
X110250000Y-67114999D01*
X109967516Y-67171190D01*
X109911325Y-67182367D01*
X109624210Y-67374210D01*
X109624208Y-67374213D01*
X105124210Y-71874210D01*
X104932367Y-72161325D01*
X104932367Y-72161326D01*
X104864999Y-72500000D01*
X104865000Y-72500005D01*
X104865000Y-74182415D01*
X104715180Y-74543223D01*
X104714821Y-74954971D01*
X54385000Y-74954971D01*
X54385000Y-71047440D01*
X55300000Y-71047440D01*
X55535317Y-71003162D01*
X55751441Y-70864090D01*
X55896431Y-70651890D01*
X55947440Y-70400000D01*
X55947440Y-68600000D01*
X55903162Y-68364683D01*
X55764090Y-68148559D01*
X55551890Y-68003569D01*
X55300000Y-67952560D01*
X51700000Y-67952560D01*
X51464683Y-67996838D01*
X51248559Y-68135910D01*
X51103569Y-68348110D01*
X51052560Y-68600000D01*
X50710000Y-68600000D01*
X50710000Y-64420000D01*
X51017296Y-64420000D01*
X51134141Y-65007419D01*
X51466887Y-65505409D01*
X51964877Y-65838155D01*
X52552296Y-65955000D01*
X54447704Y-65955000D01*
X55035123Y-65838155D01*
X55533113Y-65505409D01*
X55865859Y-65007419D01*
X55982704Y-64420000D01*
X55865859Y-63832581D01*
X55533113Y-63334591D01*
X55035123Y-63001845D01*
X54447704Y-62885000D01*
X52552296Y-62885000D01*
X51964877Y-63001845D01*
X51466887Y-63334591D01*
X51134141Y-63832581D01*
X51017296Y-64420000D01*
X50710000Y-64420000D01*
X50710000Y-61833320D01*
X66336285Y-61833320D01*
X66465533Y-62126123D01*
X67165806Y-62394388D01*
X67915435Y-62374250D01*
X68514467Y-62126123D01*
X68643715Y-61833320D01*
X67490000Y-60679605D01*
X66336285Y-61833320D01*
X50710000Y-61833320D01*
X50710000Y-60175806D01*
X65595612Y-60175806D01*
X65615750Y-60925435D01*
X65863877Y-61524467D01*
X66156680Y-61653715D01*
X67310395Y-60500000D01*
X67669605Y-60500000D01*
X68823320Y-61653715D01*
X69116123Y-61524467D01*
X69365574Y-60873305D01*
X71114674Y-60873305D01*
X71401043Y-61566372D01*
X71930839Y-62097093D01*
X72623405Y-62384672D01*
X73373305Y-62385326D01*
X74066372Y-62098957D01*
X74332472Y-61833320D01*
X79336285Y-61833320D01*
X79465533Y-62126123D01*
X80165806Y-62394388D01*
X80915435Y-62374250D01*
X81514467Y-62126123D01*
X81643715Y-61833320D01*
X80490000Y-60679605D01*
X79336285Y-61833320D01*
X74332472Y-61833320D01*
X74597093Y-61569161D01*
X74884672Y-60876595D01*
X74885283Y-60175806D01*
X78595612Y-60175806D01*
X78615750Y-60925435D01*
X78863877Y-61524467D01*
X79156680Y-61653715D01*
X80310395Y-60500000D01*
X80669605Y-60500000D01*
X81823320Y-61653715D01*
X82116123Y-61524467D01*
X82365574Y-60873305D01*
X84114674Y-60873305D01*
X84401043Y-61566372D01*
X84930839Y-62097093D01*
X85623405Y-62384672D01*
X86373305Y-62385326D01*
X87066372Y-62098957D01*
X87332472Y-61833320D01*
X92336285Y-61833320D01*
X92465533Y-62126123D01*
X93165806Y-62394388D01*
X93915435Y-62374250D01*
X94514467Y-62126123D01*
X94643715Y-61833320D01*
X93490000Y-60679605D01*
X92336285Y-61833320D01*
X87332472Y-61833320D01*
X87597093Y-61569161D01*
X87884672Y-60876595D01*
X87885283Y-60175806D01*
X91595612Y-60175806D01*
X91615750Y-60925435D01*
X91863877Y-61524467D01*
X92156680Y-61653715D01*
X93310395Y-60500000D01*
X93669605Y-60500000D01*
X94823320Y-61653715D01*
X95116123Y-61524467D01*
X95365574Y-60873305D01*
X97114674Y-60873305D01*
X97401043Y-61566372D01*
X97930839Y-62097093D01*
X98623405Y-62384672D01*
X99373305Y-62385326D01*
X100066372Y-62098957D01*
X100597093Y-61569161D01*
X100852819Y-60953305D01*
X104614674Y-60953305D01*
X104901043Y-61646372D01*
X105430839Y-62177093D01*
X106123405Y-62464672D01*
X106873305Y-62465326D01*
X107566372Y-62178957D01*
X107832472Y-61913320D01*
X110856285Y-61913320D01*
X110985533Y-62206123D01*
X111685806Y-62474388D01*
X112435435Y-62454250D01*
X113034467Y-62206123D01*
X113163715Y-61913320D01*
X112010000Y-60759605D01*
X110856285Y-61913320D01*
X107832472Y-61913320D01*
X108097093Y-61649161D01*
X108384672Y-60956595D01*
X108385283Y-60255806D01*
X110115612Y-60255806D01*
X110135750Y-61005435D01*
X110383877Y-61604467D01*
X110676680Y-61733715D01*
X111830395Y-60580000D01*
X112189605Y-60580000D01*
X113343320Y-61733715D01*
X113636123Y-61604467D01*
X113904388Y-60904194D01*
X113884250Y-60154565D01*
X113636123Y-59555533D01*
X113343320Y-59426285D01*
X112189605Y-60580000D01*
X111830395Y-60580000D01*
X110676680Y-59426285D01*
X110383877Y-59555533D01*
X110115612Y-60255806D01*
X108385283Y-60255806D01*
X108385326Y-60206695D01*
X108098957Y-59513628D01*
X107832475Y-59246680D01*
X110856285Y-59246680D01*
X112010000Y-60400395D01*
X113163715Y-59246680D01*
X113034467Y-58953877D01*
X112334194Y-58685612D01*
X111584565Y-58705750D01*
X110985533Y-58953877D01*
X110856285Y-59246680D01*
X107832475Y-59246680D01*
X107569161Y-58982907D01*
X106876595Y-58695328D01*
X106126695Y-58694674D01*
X105433628Y-58981043D01*
X104902907Y-59510839D01*
X104615328Y-60203405D01*
X104614674Y-60953305D01*
X100852819Y-60953305D01*
X100884672Y-60876595D01*
X100885326Y-60126695D01*
X100598957Y-59433628D01*
X100069161Y-58902907D01*
X99376595Y-58615328D01*
X98626695Y-58614674D01*
X97933628Y-58901043D01*
X97402907Y-59430839D01*
X97115328Y-60123405D01*
X97114674Y-60873305D01*
X95365574Y-60873305D01*
X95384388Y-60824194D01*
X95364250Y-60074565D01*
X95116123Y-59475533D01*
X94823320Y-59346285D01*
X93669605Y-60500000D01*
X93310395Y-60500000D01*
X92156680Y-59346285D01*
X91863877Y-59475533D01*
X91595612Y-60175806D01*
X87885283Y-60175806D01*
X87885326Y-60126695D01*
X87598957Y-59433628D01*
X87332475Y-59166680D01*
X92336285Y-59166680D01*
X93490000Y-60320395D01*
X94643715Y-59166680D01*
X94514467Y-58873877D01*
X93814194Y-58605612D01*
X93064565Y-58625750D01*
X92465533Y-58873877D01*
X92336285Y-59166680D01*
X87332475Y-59166680D01*
X87069161Y-58902907D01*
X86376595Y-58615328D01*
X85626695Y-58614674D01*
X84933628Y-58901043D01*
X84402907Y-59430839D01*
X84115328Y-60123405D01*
X84114674Y-60873305D01*
X82365574Y-60873305D01*
X82384388Y-60824194D01*
X82364250Y-60074565D01*
X82116123Y-59475533D01*
X81823320Y-59346285D01*
X80669605Y-60500000D01*
X80310395Y-60500000D01*
X79156680Y-59346285D01*
X78863877Y-59475533D01*
X78595612Y-60175806D01*
X74885283Y-60175806D01*
X74885326Y-60126695D01*
X74598957Y-59433628D01*
X74332475Y-59166680D01*
X79336285Y-59166680D01*
X80490000Y-60320395D01*
X81643715Y-59166680D01*
X81514467Y-58873877D01*
X80814194Y-58605612D01*
X80064565Y-58625750D01*
X79465533Y-58873877D01*
X79336285Y-59166680D01*
X74332475Y-59166680D01*
X74069161Y-58902907D01*
X73376595Y-58615328D01*
X72626695Y-58614674D01*
X71933628Y-58901043D01*
X71402907Y-59430839D01*
X71115328Y-60123405D01*
X71114674Y-60873305D01*
X69365574Y-60873305D01*
X69384388Y-60824194D01*
X69364250Y-60074565D01*
X69116123Y-59475533D01*
X68823320Y-59346285D01*
X67669605Y-60500000D01*
X67310395Y-60500000D01*
X66156680Y-59346285D01*
X65863877Y-59475533D01*
X65595612Y-60175806D01*
X50710000Y-60175806D01*
X50710000Y-59166680D01*
X66336285Y-59166680D01*
X67490000Y-60320395D01*
X68643715Y-59166680D01*
X68514467Y-58873877D01*
X67814194Y-58605612D01*
X67064565Y-58625750D01*
X66465533Y-58873877D01*
X66336285Y-59166680D01*
X50710000Y-59166680D01*
X50710000Y-56753320D01*
X66336285Y-56753320D01*
X66465533Y-57046123D01*
X67165806Y-57314388D01*
X67915435Y-57294250D01*
X68514467Y-57046123D01*
X68643715Y-56753320D01*
X67490000Y-55599605D01*
X66336285Y-56753320D01*
X50710000Y-56753320D01*
X50710000Y-54922815D01*
X52364630Y-54922815D01*
X52688980Y-55707800D01*
X53289041Y-56308909D01*
X54073459Y-56634628D01*
X54922815Y-56635370D01*
X55707800Y-56311020D01*
X56308909Y-55710959D01*
X56564342Y-55095806D01*
X65595612Y-55095806D01*
X65615750Y-55845435D01*
X65863877Y-56444467D01*
X66156680Y-56573715D01*
X67310395Y-55420000D01*
X67669605Y-55420000D01*
X68823320Y-56573715D01*
X69116123Y-56444467D01*
X69365574Y-55793305D01*
X71114674Y-55793305D01*
X71401043Y-56486372D01*
X71930839Y-57017093D01*
X72623405Y-57304672D01*
X73373305Y-57305326D01*
X74066372Y-57018957D01*
X74332472Y-56753320D01*
X79336285Y-56753320D01*
X79465533Y-57046123D01*
X80165806Y-57314388D01*
X80915435Y-57294250D01*
X81514467Y-57046123D01*
X81643715Y-56753320D01*
X80490000Y-55599605D01*
X79336285Y-56753320D01*
X74332472Y-56753320D01*
X74597093Y-56489161D01*
X74884672Y-55796595D01*
X74885283Y-55095806D01*
X78595612Y-55095806D01*
X78615750Y-55845435D01*
X78863877Y-56444467D01*
X79156680Y-56573715D01*
X80310395Y-55420000D01*
X80669605Y-55420000D01*
X81823320Y-56573715D01*
X82116123Y-56444467D01*
X82365574Y-55793305D01*
X84114674Y-55793305D01*
X84401043Y-56486372D01*
X84930839Y-57017093D01*
X85623405Y-57304672D01*
X86373305Y-57305326D01*
X87066372Y-57018957D01*
X87332472Y-56753320D01*
X92336285Y-56753320D01*
X92465533Y-57046123D01*
X93165806Y-57314388D01*
X93915435Y-57294250D01*
X94514467Y-57046123D01*
X94643715Y-56753320D01*
X93490000Y-55599605D01*
X92336285Y-56753320D01*
X87332472Y-56753320D01*
X87597093Y-56489161D01*
X87884672Y-55796595D01*
X87885283Y-55095806D01*
X91595612Y-55095806D01*
X91615750Y-55845435D01*
X91863877Y-56444467D01*
X92156680Y-56573715D01*
X93310395Y-55420000D01*
X93669605Y-55420000D01*
X94823320Y-56573715D01*
X95116123Y-56444467D01*
X95365574Y-55793305D01*
X97114674Y-55793305D01*
X97401043Y-56486372D01*
X97930839Y-57017093D01*
X98623405Y-57304672D01*
X99373305Y-57305326D01*
X100066372Y-57018957D01*
X100597093Y-56489161D01*
X100852819Y-55873305D01*
X104614674Y-55873305D01*
X104901043Y-56566372D01*
X105430839Y-57097093D01*
X106123405Y-57384672D01*
X106873305Y-57385326D01*
X107566372Y-57098957D01*
X107832472Y-56833320D01*
X110856285Y-56833320D01*
X110985533Y-57126123D01*
X111685806Y-57394388D01*
X112435435Y-57374250D01*
X113034467Y-57126123D01*
X113163715Y-56833320D01*
X112010000Y-55679605D01*
X110856285Y-56833320D01*
X107832472Y-56833320D01*
X108097093Y-56569161D01*
X108384672Y-55876595D01*
X108385283Y-55175806D01*
X110115612Y-55175806D01*
X110135750Y-55925435D01*
X110383877Y-56524467D01*
X110676680Y-56653715D01*
X111830395Y-55500000D01*
X112189605Y-55500000D01*
X113343320Y-56653715D01*
X113636123Y-56524467D01*
X113885574Y-55873305D01*
X115634674Y-55873305D01*
X115921043Y-56566372D01*
X116450839Y-57097093D01*
X117143405Y-57384672D01*
X117893305Y-57385326D01*
X118586372Y-57098957D01*
X119117093Y-56569161D01*
X119404672Y-55876595D01*
X119404744Y-55793305D01*
X123094674Y-55793305D01*
X123381043Y-56486372D01*
X123910839Y-57017093D01*
X124603405Y-57304672D01*
X125353305Y-57305326D01*
X126046372Y-57018957D01*
X126577093Y-56489161D01*
X126864672Y-55796595D01*
X126864674Y-55793305D01*
X128604674Y-55793305D01*
X128891043Y-56486372D01*
X129420839Y-57017093D01*
X130113405Y-57304672D01*
X130863305Y-57305326D01*
X131556372Y-57018957D01*
X132087093Y-56489161D01*
X132374672Y-55796595D01*
X132374674Y-55793305D01*
X134114674Y-55793305D01*
X134401043Y-56486372D01*
X134930839Y-57017093D01*
X135623405Y-57304672D01*
X136373305Y-57305326D01*
X137066372Y-57018957D01*
X137597093Y-56489161D01*
X137884672Y-55796595D01*
X137885326Y-55046695D01*
X137834140Y-54922815D01*
X143364630Y-54922815D01*
X143688980Y-55707800D01*
X144289041Y-56308909D01*
X145073459Y-56634628D01*
X145922815Y-56635370D01*
X146707800Y-56311020D01*
X147308909Y-55710959D01*
X147634628Y-54926541D01*
X147635370Y-54077185D01*
X147311020Y-53292200D01*
X146710959Y-52691091D01*
X145926541Y-52365372D01*
X145077185Y-52364630D01*
X144292200Y-52688980D01*
X143691091Y-53289041D01*
X143365372Y-54073459D01*
X143364630Y-54922815D01*
X137834140Y-54922815D01*
X137598957Y-54353628D01*
X137069161Y-53822907D01*
X136376595Y-53535328D01*
X135626695Y-53534674D01*
X134933628Y-53821043D01*
X134402907Y-54350839D01*
X134115328Y-55043405D01*
X134114674Y-55793305D01*
X132374674Y-55793305D01*
X132375326Y-55046695D01*
X132088957Y-54353628D01*
X131559161Y-53822907D01*
X130866595Y-53535328D01*
X130116695Y-53534674D01*
X129423628Y-53821043D01*
X128892907Y-54350839D01*
X128605328Y-55043405D01*
X128604674Y-55793305D01*
X126864674Y-55793305D01*
X126865326Y-55046695D01*
X126578957Y-54353628D01*
X126049161Y-53822907D01*
X125356595Y-53535328D01*
X124606695Y-53534674D01*
X123913628Y-53821043D01*
X123382907Y-54350839D01*
X123095328Y-55043405D01*
X123094674Y-55793305D01*
X119404744Y-55793305D01*
X119405326Y-55126695D01*
X119118957Y-54433628D01*
X118589161Y-53902907D01*
X117896595Y-53615328D01*
X117146695Y-53614674D01*
X116453628Y-53901043D01*
X115922907Y-54430839D01*
X115635328Y-55123405D01*
X115634674Y-55873305D01*
X113885574Y-55873305D01*
X113904388Y-55824194D01*
X113884250Y-55074565D01*
X113636123Y-54475533D01*
X113343320Y-54346285D01*
X112189605Y-55500000D01*
X111830395Y-55500000D01*
X110676680Y-54346285D01*
X110383877Y-54475533D01*
X110115612Y-55175806D01*
X108385283Y-55175806D01*
X108385326Y-55126695D01*
X108098957Y-54433628D01*
X107832475Y-54166680D01*
X110856285Y-54166680D01*
X112010000Y-55320395D01*
X113163715Y-54166680D01*
X113034467Y-53873877D01*
X112334194Y-53605612D01*
X111584565Y-53625750D01*
X110985533Y-53873877D01*
X110856285Y-54166680D01*
X107832475Y-54166680D01*
X107569161Y-53902907D01*
X106876595Y-53615328D01*
X106126695Y-53614674D01*
X105433628Y-53901043D01*
X104902907Y-54430839D01*
X104615328Y-55123405D01*
X104614674Y-55873305D01*
X100852819Y-55873305D01*
X100884672Y-55796595D01*
X100885326Y-55046695D01*
X100598957Y-54353628D01*
X100069161Y-53822907D01*
X99376595Y-53535328D01*
X98626695Y-53534674D01*
X97933628Y-53821043D01*
X97402907Y-54350839D01*
X97115328Y-55043405D01*
X97114674Y-55793305D01*
X95365574Y-55793305D01*
X95384388Y-55744194D01*
X95364250Y-54994565D01*
X95116123Y-54395533D01*
X94823320Y-54266285D01*
X93669605Y-55420000D01*
X93310395Y-55420000D01*
X92156680Y-54266285D01*
X91863877Y-54395533D01*
X91595612Y-55095806D01*
X87885283Y-55095806D01*
X87885326Y-55046695D01*
X87598957Y-54353628D01*
X87332475Y-54086680D01*
X92336285Y-54086680D01*
X93490000Y-55240395D01*
X94643715Y-54086680D01*
X94514467Y-53793877D01*
X93814194Y-53525612D01*
X93064565Y-53545750D01*
X92465533Y-53793877D01*
X92336285Y-54086680D01*
X87332475Y-54086680D01*
X87069161Y-53822907D01*
X86376595Y-53535328D01*
X85626695Y-53534674D01*
X84933628Y-53821043D01*
X84402907Y-54350839D01*
X84115328Y-55043405D01*
X84114674Y-55793305D01*
X82365574Y-55793305D01*
X82384388Y-55744194D01*
X82364250Y-54994565D01*
X82116123Y-54395533D01*
X81823320Y-54266285D01*
X80669605Y-55420000D01*
X80310395Y-55420000D01*
X79156680Y-54266285D01*
X78863877Y-54395533D01*
X78595612Y-55095806D01*
X74885283Y-55095806D01*
X74885326Y-55046695D01*
X74598957Y-54353628D01*
X74332475Y-54086680D01*
X79336285Y-54086680D01*
X80490000Y-55240395D01*
X81643715Y-54086680D01*
X81514467Y-53793877D01*
X80814194Y-53525612D01*
X80064565Y-53545750D01*
X79465533Y-53793877D01*
X79336285Y-54086680D01*
X74332475Y-54086680D01*
X74069161Y-53822907D01*
X73376595Y-53535328D01*
X72626695Y-53534674D01*
X71933628Y-53821043D01*
X71402907Y-54350839D01*
X71115328Y-55043405D01*
X71114674Y-55793305D01*
X69365574Y-55793305D01*
X69384388Y-55744194D01*
X69364250Y-54994565D01*
X69116123Y-54395533D01*
X68823320Y-54266285D01*
X67669605Y-55420000D01*
X67310395Y-55420000D01*
X66156680Y-54266285D01*
X65863877Y-54395533D01*
X65595612Y-55095806D01*
X56564342Y-55095806D01*
X56634628Y-54926541D01*
X56635361Y-54086680D01*
X66336285Y-54086680D01*
X67490000Y-55240395D01*
X68643715Y-54086680D01*
X68514467Y-53793877D01*
X67814194Y-53525612D01*
X67064565Y-53545750D01*
X66465533Y-53793877D01*
X66336285Y-54086680D01*
X56635361Y-54086680D01*
X56635370Y-54077185D01*
X56311020Y-53292200D01*
X55710959Y-52691091D01*
X54926541Y-52365372D01*
X54077185Y-52364630D01*
X53292200Y-52688980D01*
X52691091Y-53289041D01*
X52365372Y-54073459D01*
X52364630Y-54922815D01*
X50710000Y-54922815D01*
X50710000Y-50710000D01*
X149290000Y-50710000D01*
X149290000Y-99290000D01*
M02*
