M48
;DRILL file {KiCad 4.0.7-e2-6376~58~ubuntu16.04.1} date Wed Nov 22 10:08:35 2017
;FORMAT={-:-/ absolute / inch / decimal}
FMAT,2
INCH,TZ
T1C0.024
T2C0.047
T3C0.055
%
G90
G05
M72
T1
X2.2343Y-3.2283
X2.5394Y-3.1004
X2.6476Y-3.5236
X2.9331Y-3.1004
X2.9626Y-3.5236
X3.0118Y-3.75
X3.1496Y-3.75
X3.248Y-3.5236
X3.435Y-3.1004
X3.9665Y-3.0906
X3.9862Y-3.3268
X3.9862Y-3.5236
X3.9961Y-3.622
X4.1043Y-3.0118
X4.1142Y-3.3268
X4.1634Y-2.9429
X4.2323Y-3.0217
X4.3209Y-3.4252
X4.3307Y-3.4744
X4.3406Y-3.622
X4.3701Y-3.1988
X4.3898Y-3.0315
X4.498Y-3.0512
X4.5669Y-3.2087
X4.5768Y-3.0413
X4.5768Y-3.3268
X4.7736Y-3.5925
X4.7933Y-3.3563
X4.9311Y-3.5728
X4.9705Y-3.0413
T2
X2.1063Y-2.5362
X2.1063Y-2.7362
T3
X2.6571Y-2.1819
X2.6571Y-2.3819
X2.874Y-2.1819
X2.874Y-2.3819
X3.1689Y-2.1819
X3.1689Y-2.3819
X3.3858Y-2.1819
X3.3858Y-2.3819
X3.6807Y-2.1819
X3.6807Y-2.3819
X3.8976Y-2.1819
X3.8976Y-2.3819
X4.1929Y-2.185
X4.1929Y-2.385
X4.4098Y-2.185
X4.4098Y-2.385
X4.6268Y-2.185
X4.6268Y-2.385
X4.9205Y-2.1819
X4.9205Y-2.3819
X5.1374Y-2.1819
X5.1374Y-2.3819
X5.3543Y-2.1819
X5.3543Y-2.3819
T0
M30
