G04 #@! TF.FileFunction,Legend,Top*
%FSLAX46Y46*%
G04 Gerber Fmt 4.6, Leading zero omitted, Abs format (unit mm)*
G04 Created by KiCad (PCBNEW 4.0.7-e2-6376~58~ubuntu16.04.1) date Wed Nov 22 10:08:24 2017*
%MOMM*%
%LPD*%
G01*
G04 APERTURE LIST*
%ADD10C,0.100000*%
%ADD11C,0.150000*%
%ADD12C,0.300000*%
%ADD13C,0.120000*%
G04 APERTURE END LIST*
D10*
X143769930Y-67155300D02*
X143769930Y-67155300D01*
X144046840Y-67247700D02*
X143769930Y-67155300D01*
X144052490Y-67384900D02*
X144046840Y-67247700D01*
X144054220Y-67438100D02*
X144052490Y-67384900D01*
X144054770Y-67481500D02*
X144054220Y-67438100D01*
X144054220Y-67510800D02*
X144054770Y-67481500D01*
X144052490Y-67521500D02*
X144054220Y-67510800D01*
X144027630Y-67514000D02*
X144052490Y-67521500D01*
X143964160Y-67493900D02*
X144027630Y-67514000D01*
X143871710Y-67464200D02*
X143964160Y-67493900D01*
X143759840Y-67427900D02*
X143871710Y-67464200D01*
X143472840Y-67334700D02*
X143759840Y-67427900D01*
X143467250Y-67198800D02*
X143472840Y-67334700D01*
X143466270Y-67146000D02*
X143467250Y-67198800D01*
X143467850Y-67102800D02*
X143466270Y-67146000D01*
X143471640Y-67073500D02*
X143467850Y-67102800D01*
X143477280Y-67062800D02*
X143471640Y-67073500D01*
X143505230Y-67070000D02*
X143477280Y-67062800D01*
X143569680Y-67089900D02*
X143505230Y-67070000D01*
X143661100Y-67119300D02*
X143569680Y-67089900D01*
X143769930Y-67155300D02*
X143661100Y-67119300D01*
X143759840Y-69049700D02*
X143759840Y-69049700D01*
X144046840Y-69142100D02*
X143759840Y-69049700D01*
X144052490Y-69278900D02*
X144046840Y-69142100D01*
X144053410Y-69332000D02*
X144052490Y-69278900D01*
X144051840Y-69375500D02*
X144053410Y-69332000D01*
X144048030Y-69404900D02*
X144051840Y-69375500D01*
X144042390Y-69415600D02*
X144048030Y-69404900D01*
X144014390Y-69408300D02*
X144042390Y-69415600D01*
X143949950Y-69388500D02*
X144014390Y-69408300D01*
X143858530Y-69359100D02*
X143949950Y-69388500D01*
X143749750Y-69323200D02*
X143858530Y-69359100D01*
X143472840Y-69230700D02*
X143749750Y-69323200D01*
X143467250Y-69093600D02*
X143472840Y-69230700D01*
X143465460Y-69040500D02*
X143467250Y-69093600D01*
X143464920Y-68996900D02*
X143465460Y-69040500D01*
X143465460Y-68967600D02*
X143464920Y-68996900D01*
X143467250Y-68957000D02*
X143465460Y-68967600D01*
X143492040Y-68964500D02*
X143467250Y-68957000D01*
X143555520Y-68984400D02*
X143492040Y-68964500D01*
X143647970Y-69013900D02*
X143555520Y-68984400D01*
X143759840Y-69049700D02*
X143647970Y-69013900D01*
X143788540Y-78222640D02*
X143788540Y-78222640D01*
X144046840Y-78304940D02*
X143788540Y-78222640D01*
X144052490Y-78452840D02*
X144046840Y-78304940D01*
X144053460Y-78509590D02*
X144052490Y-78452840D01*
X144051930Y-78554730D02*
X144053460Y-78509590D01*
X144048310Y-78583650D02*
X144051930Y-78554730D01*
X144042880Y-78591780D02*
X144048310Y-78583650D01*
X144014670Y-78581320D02*
X144042880Y-78591780D01*
X143949240Y-78559340D02*
X144014670Y-78581320D01*
X143856250Y-78529070D02*
X143949240Y-78559340D01*
X143745520Y-78493800D02*
X143856250Y-78529070D01*
X143463290Y-78404830D02*
X143745520Y-78493800D01*
X143463290Y-78271640D02*
X143463290Y-78404830D01*
X143464430Y-78202570D02*
X143463290Y-78271640D01*
X143469200Y-78162260D02*
X143464430Y-78202570D01*
X143479410Y-78143590D02*
X143469200Y-78162260D01*
X143496770Y-78139360D02*
X143479410Y-78143590D01*
X143530130Y-78146250D02*
X143496770Y-78139360D01*
X143596270Y-78164260D02*
X143530130Y-78146250D01*
X143685570Y-78190640D02*
X143596270Y-78164260D01*
X143788540Y-78222640D02*
X143685570Y-78190640D01*
X144807100Y-76853930D02*
X144807100Y-76853930D01*
X144807140Y-76853930D02*
X144807100Y-76853930D01*
X144808840Y-76633230D02*
X144807140Y-76853930D01*
X144809530Y-76465860D02*
X144808840Y-76633230D01*
X144808780Y-76343360D02*
X144809530Y-76465860D01*
X144806000Y-76257410D02*
X144808780Y-76343360D01*
X144800790Y-76199690D02*
X144806000Y-76257410D01*
X144792710Y-76161770D02*
X144800790Y-76199690D01*
X144781320Y-76135340D02*
X144792710Y-76161770D01*
X144766070Y-76111910D02*
X144781320Y-76135340D01*
X144741020Y-76080610D02*
X144766070Y-76111910D01*
X144709320Y-76052010D02*
X144741020Y-76080610D01*
X144665280Y-76023580D02*
X144709320Y-76052010D01*
X144603320Y-75992820D02*
X144665280Y-76023580D01*
X144517710Y-75957120D02*
X144603320Y-75992820D01*
X144402790Y-75914000D02*
X144517710Y-75957120D01*
X144252950Y-75860830D02*
X144402790Y-75914000D01*
X144062570Y-75795120D02*
X144252950Y-75860830D01*
X143491990Y-75599650D02*
X144062570Y-75795120D01*
X143478210Y-75324370D02*
X143491990Y-75599650D01*
X143473430Y-75215750D02*
X143478210Y-75324370D01*
X143470670Y-75123580D02*
X143473430Y-75215750D01*
X143470130Y-75057440D02*
X143470670Y-75123580D01*
X143472030Y-75027220D02*
X143470130Y-75057440D01*
X143501810Y-75026140D02*
X143472030Y-75027220D01*
X143583180Y-75044210D02*
X143501810Y-75026140D01*
X143715290Y-75081210D02*
X143583180Y-75044210D01*
X143897210Y-75136970D02*
X143715290Y-75081210D01*
X144059640Y-75188080D02*
X143897210Y-75136970D01*
X144193430Y-75229970D02*
X144059640Y-75188080D01*
X144284680Y-75258340D02*
X144193430Y-75229970D01*
X144319520Y-75268820D02*
X144284680Y-75258340D01*
X144321360Y-75248530D02*
X144319520Y-75268820D01*
X144322880Y-75193020D02*
X144321360Y-75248530D01*
X144323910Y-75110830D02*
X144322880Y-75193020D01*
X144324290Y-75010340D02*
X144323910Y-75110830D01*
X144323420Y-74863760D02*
X144324290Y-75010340D01*
X144318380Y-74784820D02*
X144323420Y-74863760D01*
X144305570Y-74750090D02*
X144318380Y-74784820D01*
X144281270Y-74736260D02*
X144305570Y-74750090D01*
X144252840Y-74726160D02*
X144281270Y-74736260D01*
X144207320Y-74709890D02*
X144252840Y-74726160D01*
X144150950Y-74689760D02*
X144207320Y-74709890D01*
X144090090Y-74667960D02*
X144150950Y-74689760D01*
X143941960Y-74614940D02*
X144090090Y-74667960D01*
X143865570Y-74469160D02*
X143941960Y-74614940D01*
X143836990Y-74411660D02*
X143865570Y-74469160D01*
X143815780Y-74362610D02*
X143836990Y-74411660D01*
X143803780Y-74327340D02*
X143815780Y-74362610D01*
X143803240Y-74310970D02*
X143803780Y-74327340D01*
X143828680Y-74291430D02*
X143803240Y-74310970D01*
X143887710Y-74247440D02*
X143828680Y-74291430D01*
X143971530Y-74185580D02*
X143887710Y-74247440D01*
X144071310Y-74112290D02*
X143971530Y-74185580D01*
X144325320Y-73926150D02*
X144071310Y-74112290D01*
X144320000Y-72953930D02*
X144325320Y-73926150D01*
X144318160Y-72640700D02*
X144320000Y-72953930D01*
X144316210Y-72402400D02*
X144318160Y-72640700D01*
X144313660Y-72227800D02*
X144316210Y-72402400D01*
X144310070Y-72106200D02*
X144313660Y-72227800D01*
X144304980Y-72026400D02*
X144310070Y-72106200D01*
X144297820Y-71977300D02*
X144304980Y-72026400D01*
X144288160Y-71948100D02*
X144297820Y-71977300D01*
X144275570Y-71927700D02*
X144288160Y-71948100D01*
X144238840Y-71891100D02*
X144275570Y-71927700D01*
X144183070Y-71852600D02*
X144238840Y-71891100D01*
X144114170Y-71814600D02*
X144183070Y-71852600D01*
X144037950Y-71779600D02*
X144114170Y-71814600D01*
X143960420Y-71750000D02*
X144037950Y-71779600D01*
X143887390Y-71728400D02*
X143960420Y-71750000D01*
X143824890Y-71717300D02*
X143887390Y-71728400D01*
X143778720Y-71719000D02*
X143824890Y-71717300D01*
X143746770Y-71730000D02*
X143778720Y-71719000D01*
X143721380Y-71747300D02*
X143746770Y-71730000D01*
X143701680Y-71774200D02*
X143721380Y-71747300D01*
X143686860Y-71813600D02*
X143701680Y-71774200D01*
X143675960Y-71869000D02*
X143686860Y-71813600D01*
X143668210Y-71943300D02*
X143675960Y-71869000D01*
X143662720Y-72039900D02*
X143668210Y-71943300D01*
X143658600Y-72161800D02*
X143662720Y-72039900D01*
X143653450Y-72299600D02*
X143658600Y-72161800D01*
X143646720Y-72404700D02*
X143653450Y-72299600D01*
X143638850Y-72471800D02*
X143646720Y-72404700D01*
X143630340Y-72495400D02*
X143638850Y-72471800D01*
X143617040Y-72493600D02*
X143630340Y-72495400D01*
X143595130Y-72488900D02*
X143617040Y-72493600D01*
X143567520Y-72481900D02*
X143595130Y-72488900D01*
X143537290Y-72473200D02*
X143567520Y-72481900D01*
X143463290Y-72451100D02*
X143537290Y-72473200D01*
X143463290Y-71813300D02*
X143463290Y-72451100D01*
X143464530Y-71565700D02*
X143463290Y-71813300D01*
X143467960Y-71362900D02*
X143464530Y-71565700D01*
X143473060Y-71225800D02*
X143467960Y-71362900D01*
X143479290Y-71175500D02*
X143473060Y-71225800D01*
X143507990Y-71182300D02*
X143479290Y-71175500D01*
X143574410Y-71200700D02*
X143507990Y-71182300D01*
X143668530Y-71228000D02*
X143574410Y-71200700D01*
X143780610Y-71261300D02*
X143668530Y-71228000D01*
X143893090Y-71294400D02*
X143780610Y-71261300D01*
X143984560Y-71318800D02*
X143893090Y-71294400D01*
X144057910Y-71335100D02*
X143984560Y-71318800D01*
X144116280Y-71343400D02*
X144057910Y-71335100D01*
X144162720Y-71343800D02*
X144116280Y-71343400D01*
X144200320Y-71336900D02*
X144162720Y-71343800D01*
X144232060Y-71322700D02*
X144200320Y-71336900D01*
X144261030Y-71301500D02*
X144232060Y-71322700D01*
X144314740Y-71255400D02*
X144261030Y-71301500D01*
X144320110Y-70399600D02*
X144314740Y-71255400D01*
X144321740Y-70084100D02*
X144320110Y-70399600D01*
X144321420Y-69844300D02*
X144321740Y-70084100D01*
X144317560Y-69667200D02*
X144321420Y-69844300D01*
X144308840Y-69540000D02*
X144317560Y-69667200D01*
X144293850Y-69449500D02*
X144308840Y-69540000D01*
X144271180Y-69383000D02*
X144293850Y-69449500D01*
X144239430Y-69327500D02*
X144271180Y-69383000D01*
X144197170Y-69269900D02*
X144239430Y-69327500D01*
X144131200Y-69183500D02*
X144197170Y-69269900D01*
X144218170Y-69196500D02*
X144131200Y-69183500D01*
X144305140Y-69209600D02*
X144218170Y-69196500D01*
X144305140Y-68401400D02*
X144305140Y-69209600D01*
X144303780Y-68035300D02*
X144305140Y-68401400D01*
X144299770Y-67770300D02*
X144303780Y-68035300D01*
X144292880Y-67600200D02*
X144299770Y-67770300D01*
X144282950Y-67519200D02*
X144292880Y-67600200D01*
X144269110Y-67484300D02*
X144282950Y-67519200D01*
X144248020Y-67444500D02*
X144269110Y-67484300D01*
X144222460Y-67404200D02*
X144248020Y-67444500D01*
X144195390Y-67368600D02*
X144222460Y-67404200D01*
X144129960Y-67292200D02*
X144195390Y-67368600D01*
X144305140Y-67292200D02*
X144129960Y-67292200D01*
X144305140Y-65329000D02*
X144305140Y-67292200D01*
X144203030Y-65296800D02*
X144305140Y-65329000D01*
X144162350Y-65284300D02*
X144203030Y-65296800D01*
X144127140Y-65274200D02*
X144162350Y-65284300D01*
X144101200Y-65267200D02*
X144127140Y-65274200D01*
X144088240Y-65264700D02*
X144101200Y-65267200D01*
X144083290Y-65281300D02*
X144088240Y-65264700D01*
X144079280Y-65326500D02*
X144083290Y-65281300D01*
X144076520Y-65393500D02*
X144079280Y-65326500D01*
X144075540Y-65475200D02*
X144076520Y-65393500D01*
X144074290Y-65575800D02*
X144075540Y-65475200D01*
X144070170Y-65640600D02*
X144074290Y-65575800D01*
X144062460Y-65675300D02*
X144070170Y-65640600D01*
X144050530Y-65685400D02*
X144062460Y-65675300D01*
X144031700Y-65681100D02*
X144050530Y-65685400D01*
X143987600Y-65668300D02*
X144031700Y-65681100D01*
X143921030Y-65648200D02*
X143987600Y-65668300D01*
X143834880Y-65621700D02*
X143921030Y-65648200D01*
X143731950Y-65589500D02*
X143834880Y-65621700D01*
X143615200Y-65552500D02*
X143731950Y-65589500D01*
X143487430Y-65511800D02*
X143615200Y-65552500D01*
X143351590Y-65468200D02*
X143487430Y-65511800D01*
X142677750Y-65250700D02*
X143351590Y-65468200D01*
X142683070Y-65492000D02*
X142677750Y-65250700D01*
X142688390Y-65733200D02*
X142683070Y-65492000D01*
X143358090Y-65975400D02*
X142688390Y-65733200D01*
X144027740Y-66217600D02*
X143358090Y-65975400D01*
X144033060Y-66477500D02*
X144027740Y-66217600D01*
X144034090Y-66578500D02*
X144033060Y-66477500D01*
X144032950Y-66661300D02*
X144034090Y-66578500D01*
X144029960Y-66717100D02*
X144032950Y-66661300D01*
X144025290Y-66737500D02*
X144029960Y-66717100D01*
X143989660Y-66727800D02*
X144025290Y-66737500D01*
X143902420Y-66701000D02*
X143989660Y-66727800D01*
X143776540Y-66661500D02*
X143902420Y-66701000D01*
X143625240Y-66613200D02*
X143776540Y-66661500D01*
X143473980Y-66565000D02*
X143625240Y-66613200D01*
X143348380Y-66525400D02*
X143473980Y-66565000D01*
X143261460Y-66498800D02*
X143348380Y-66525400D01*
X143226360Y-66488900D02*
X143261460Y-66498800D01*
X143221750Y-66532900D02*
X143226360Y-66488900D01*
X143218000Y-66652900D02*
X143221750Y-66532900D01*
X143215520Y-66830400D02*
X143218000Y-66652900D01*
X143214590Y-67047200D02*
X143215520Y-66830400D01*
X143214750Y-67220600D02*
X143214590Y-67047200D01*
X143215520Y-67355300D02*
X143214750Y-67220600D01*
X143217310Y-67457500D02*
X143215520Y-67355300D01*
X143220340Y-67532900D02*
X143217310Y-67457500D01*
X143225060Y-67587400D02*
X143220340Y-67532900D01*
X143231790Y-67626800D02*
X143225060Y-67587400D01*
X143240910Y-67657200D02*
X143231790Y-67626800D01*
X143252780Y-67684300D02*
X143240910Y-67657200D01*
X143274110Y-67723300D02*
X143252780Y-67684300D01*
X143299020Y-67757200D02*
X143274110Y-67723300D01*
X143330360Y-67787500D02*
X143299020Y-67757200D01*
X143370780Y-67816000D02*
X143330360Y-67787500D01*
X143423090Y-67844300D02*
X143370780Y-67816000D01*
X143490030Y-67874200D02*
X143423090Y-67844300D01*
X143574290Y-67907200D02*
X143490030Y-67874200D01*
X143678670Y-67945300D02*
X143574290Y-67907200D01*
X143788640Y-67984500D02*
X143678670Y-67945300D01*
X143886570Y-68019300D02*
X143788640Y-67984500D01*
X143961880Y-68046300D02*
X143886570Y-68019300D01*
X144003820Y-68061300D02*
X143961880Y-68046300D01*
X144056450Y-68080300D02*
X144003820Y-68061300D01*
X144056450Y-68346300D02*
X144056450Y-68080300D01*
X144055790Y-68449600D02*
X144056450Y-68346300D01*
X144054110Y-68534200D02*
X144055790Y-68449600D01*
X144051610Y-68591300D02*
X144054110Y-68534200D01*
X144048570Y-68612200D02*
X144051610Y-68591300D01*
X144013640Y-68601800D02*
X144048570Y-68612200D01*
X143924450Y-68573600D02*
X144013640Y-68601800D01*
X143794450Y-68531800D02*
X143924450Y-68573600D01*
X143637220Y-68480700D02*
X143794450Y-68531800D01*
X143233680Y-68349000D02*
X143637220Y-68480700D01*
X143233680Y-69573700D02*
X143233680Y-68349000D01*
X143315020Y-69653800D02*
X143233680Y-69573700D01*
X143341320Y-69678500D02*
X143315020Y-69653800D01*
X143368500Y-69700000D02*
X143341320Y-69678500D01*
X143399710Y-69719800D02*
X143368500Y-69700000D01*
X143438000Y-69739600D02*
X143399710Y-69719800D01*
X143486670Y-69760700D02*
X143438000Y-69739600D01*
X143548850Y-69784700D02*
X143486670Y-69760700D01*
X143627680Y-69813100D02*
X143548850Y-69784700D01*
X143726360Y-69847300D02*
X143627680Y-69813100D01*
X144056450Y-69960500D02*
X143726360Y-69847300D01*
X144056450Y-70386300D02*
X144056450Y-69960500D01*
X144055250Y-70551600D02*
X144056450Y-70386300D01*
X144052040Y-70687000D02*
X144055250Y-70551600D01*
X144047320Y-70778500D02*
X144052040Y-70687000D01*
X144041570Y-70812100D02*
X144047320Y-70778500D01*
X144013910Y-70804800D02*
X144041570Y-70812100D01*
X143949720Y-70784900D02*
X144013910Y-70804800D01*
X143858470Y-70755500D02*
X143949720Y-70784900D01*
X143749810Y-70719500D02*
X143858470Y-70755500D01*
X143472890Y-70627000D02*
X143749810Y-70719500D01*
X143467570Y-70347000D02*
X143472890Y-70627000D01*
X143462310Y-70067100D02*
X143467570Y-70347000D01*
X143224140Y-69996900D02*
X143462310Y-70067100D01*
X143218880Y-70268600D02*
X143224140Y-69996900D01*
X143213560Y-70540400D02*
X143218880Y-70268600D01*
X143104070Y-70506800D02*
X143213560Y-70540400D01*
X143049020Y-70489800D02*
X143104070Y-70506800D01*
X142980160Y-70468600D02*
X143049020Y-70489800D01*
X142906270Y-70445700D02*
X142980160Y-70468600D01*
X142836170Y-70424000D02*
X142906270Y-70445700D01*
X142677750Y-70374800D02*
X142836170Y-70424000D01*
X142683070Y-70624100D02*
X142677750Y-70374800D01*
X142688390Y-70873200D02*
X142683070Y-70624100D01*
X142940450Y-70964900D02*
X142688390Y-70873200D01*
X143039890Y-71001600D02*
X142940450Y-70964900D01*
X143124470Y-71033500D02*
X143039890Y-71001600D01*
X143185130Y-71057200D02*
X143124470Y-71033500D01*
X143213070Y-71069400D02*
X143185130Y-71057200D01*
X143218000Y-71084700D02*
X143213070Y-71069400D01*
X143222240Y-71124400D02*
X143218000Y-71084700D01*
X143225820Y-71189200D02*
X143222240Y-71124400D01*
X143228700Y-71279800D02*
X143225820Y-71189200D01*
X143230860Y-71397000D02*
X143228700Y-71279800D01*
X143232450Y-71541200D02*
X143230860Y-71397000D01*
X143233360Y-71713400D02*
X143232450Y-71541200D01*
X143233680Y-71914100D02*
X143233360Y-71713400D01*
X143233530Y-72091800D02*
X143233680Y-71914100D01*
X143233590Y-72246200D02*
X143233530Y-72091800D01*
X143234180Y-72379100D02*
X143233590Y-72246200D01*
X143235960Y-72492200D02*
X143234180Y-72379100D01*
X143239390Y-72587500D02*
X143235960Y-72492200D01*
X143244920Y-72666700D02*
X143239390Y-72587500D01*
X143253170Y-72731600D02*
X143244920Y-72666700D01*
X143264560Y-72784160D02*
X143253170Y-72731600D01*
X143279590Y-72826000D02*
X143264560Y-72784160D01*
X143298850Y-72859090D02*
X143279590Y-72826000D01*
X143322770Y-72885140D02*
X143298850Y-72859090D01*
X143351960Y-72905970D02*
X143322770Y-72885140D01*
X143386790Y-72923430D02*
X143351960Y-72905970D01*
X143427920Y-72939390D02*
X143386790Y-72923430D01*
X143475710Y-72955550D02*
X143427920Y-72939390D01*
X143530780Y-72973770D02*
X143475710Y-72955550D01*
X143661530Y-73014150D02*
X143530780Y-72973770D01*
X143747420Y-73028520D02*
X143661530Y-73014150D01*
X143803410Y-73017230D02*
X143747420Y-73028520D01*
X143844590Y-72980570D02*
X143803410Y-73017230D01*
X143856790Y-72963360D02*
X143844590Y-72980570D01*
X143866230Y-72944370D02*
X143856790Y-72963360D01*
X143873230Y-72920070D02*
X143866230Y-72944370D01*
X143878170Y-72887030D02*
X143873230Y-72920070D01*
X143881310Y-72841780D02*
X143878170Y-72887030D01*
X143883160Y-72780800D02*
X143881310Y-72841780D01*
X143884030Y-72700700D02*
X143883160Y-72780800D01*
X143884240Y-72598000D02*
X143884030Y-72700700D01*
X143884670Y-72469100D02*
X143884240Y-72598000D01*
X143886030Y-72363400D02*
X143884670Y-72469100D01*
X143887990Y-72292100D02*
X143886030Y-72363400D01*
X143890380Y-72265800D02*
X143887990Y-72292100D01*
X143899810Y-72268300D02*
X143890380Y-72265800D01*
X143921030Y-72274800D02*
X143899810Y-72268300D01*
X143950810Y-72284500D02*
X143921030Y-72274800D01*
X143986070Y-72296300D02*
X143950810Y-72284500D01*
X144075540Y-72326800D02*
X143986070Y-72296300D01*
X144075540Y-73445620D02*
X144075540Y-72326800D01*
X143823700Y-73625690D02*
X144075540Y-73445620D01*
X143724090Y-73696650D02*
X143823700Y-73625690D01*
X143639290Y-73756760D02*
X143724090Y-73696650D01*
X143578140Y-73799680D02*
X143639290Y-73756760D01*
X143549710Y-73819050D02*
X143578140Y-73799680D01*
X143530840Y-73809390D02*
X143549710Y-73819050D01*
X143496280Y-73768710D02*
X143530840Y-73809390D01*
X143447340Y-73698770D02*
X143496280Y-73768710D01*
X143385430Y-73601270D02*
X143447340Y-73698770D01*
X143243290Y-73370150D02*
X143385430Y-73601270D01*
X143237860Y-73603830D02*
X143243290Y-73370150D01*
X143232490Y-73837550D02*
X143237860Y-73603830D01*
X143389720Y-74141640D02*
X143232490Y-73837550D01*
X143450060Y-74260460D02*
X143389720Y-74141640D01*
X143498170Y-74359040D02*
X143450060Y-74260460D01*
X143529100Y-74427230D02*
X143498170Y-74359040D01*
X143538040Y-74454680D02*
X143529100Y-74427230D01*
X143508160Y-74449910D02*
X143538040Y-74454680D01*
X143433500Y-74430280D02*
X143508160Y-74449910D01*
X143325270Y-74398970D02*
X143433500Y-74430280D01*
X143194850Y-74358980D02*
X143325270Y-74398970D01*
X143057850Y-74316180D02*
X143194850Y-74358980D01*
X142932100Y-74277050D02*
X143057850Y-74316180D01*
X142831350Y-74245910D02*
X142932100Y-74277050D01*
X142769710Y-74227090D02*
X142831350Y-74245910D01*
X142678840Y-74199910D02*
X142769710Y-74227090D01*
X142678840Y-74710590D02*
X142678840Y-74199910D01*
X143214320Y-74896040D02*
X142678840Y-74710590D01*
X143214430Y-75461960D02*
X143214320Y-74896040D01*
X143214530Y-76027930D02*
X143214430Y-75461960D01*
X143640270Y-76180370D02*
X143214530Y-76027930D01*
X144065990Y-76332890D02*
X143640270Y-76180370D01*
X144071470Y-76508720D02*
X144065990Y-76332890D01*
X144072560Y-76577020D02*
X144071470Y-76508720D01*
X144071530Y-76632960D02*
X144072560Y-76577020D01*
X144068540Y-76670770D02*
X144071530Y-76632960D01*
X144063930Y-76684610D02*
X144068540Y-76670770D01*
X144028020Y-76674840D02*
X144063930Y-76684610D01*
X143940020Y-76648090D02*
X144028020Y-76674840D01*
X143813110Y-76608550D02*
X143940020Y-76648090D01*
X143660610Y-76560260D02*
X143813110Y-76608550D01*
X143507560Y-76512030D02*
X143660610Y-76560260D01*
X143379570Y-76472480D02*
X143507560Y-76512030D01*
X143289890Y-76445730D02*
X143379570Y-76472480D01*
X143252030Y-76435910D02*
X143289890Y-76445730D01*
X143244600Y-76454140D02*
X143252030Y-76435910D01*
X143238790Y-76504970D02*
X143244600Y-76454140D01*
X143234990Y-76582830D02*
X143238790Y-76504970D01*
X143233680Y-76681960D02*
X143234990Y-76582830D01*
X143233680Y-76928000D02*
X143233680Y-76681960D01*
X143654590Y-77078870D02*
X143233680Y-76928000D01*
X144075540Y-77229750D02*
X143654590Y-77078870D01*
X144075540Y-77492770D02*
X144075540Y-77229750D01*
X144074560Y-77594930D02*
X144075540Y-77492770D01*
X144072020Y-77678580D02*
X144074560Y-77594930D01*
X144068270Y-77735070D02*
X144072020Y-77678580D01*
X144063660Y-77755790D02*
X144068270Y-77735070D01*
X144034960Y-77748250D02*
X144063660Y-77755790D01*
X143965630Y-77727750D02*
X144034960Y-77748250D01*
X143866020Y-77697360D02*
X143965630Y-77727750D01*
X143746540Y-77660190D02*
X143866020Y-77697360D01*
X143625720Y-77623300D02*
X143746540Y-77660190D01*
X143527850Y-77595840D02*
X143625720Y-77623300D01*
X143449840Y-77577620D02*
X143527850Y-77595840D01*
X143388790Y-77568340D02*
X143449840Y-77577620D01*
X143341660Y-77567690D02*
X143388790Y-77568340D01*
X143305520Y-77575400D02*
X143341660Y-77567690D01*
X143277310Y-77591290D02*
X143305520Y-77575400D01*
X143254200Y-77614940D02*
X143277310Y-77591290D01*
X143247250Y-77624280D02*
X143254200Y-77614940D01*
X143241170Y-77634860D02*
X143247250Y-77624280D01*
X143235920Y-77648970D02*
X143241170Y-77634860D01*
X143231350Y-77668820D02*
X143235920Y-77648970D01*
X143227560Y-77696590D02*
X143231350Y-77668820D01*
X143224360Y-77734470D02*
X143227560Y-77696590D01*
X143221700Y-77784710D02*
X143224360Y-77734470D01*
X143219590Y-77849430D02*
X143221700Y-77784710D01*
X143217960Y-77930910D02*
X143219590Y-77849430D01*
X143216710Y-78031340D02*
X143217960Y-77930910D01*
X143215780Y-78152870D02*
X143216710Y-78031340D01*
X143215180Y-78297790D02*
X143215780Y-78152870D01*
X143214810Y-78468190D02*
X143215180Y-78297790D01*
X143214590Y-78666430D02*
X143214810Y-78468190D01*
X143214530Y-78894570D02*
X143214590Y-78666430D01*
X143214530Y-79154830D02*
X143214530Y-78894570D01*
X143214530Y-80644300D02*
X143214530Y-79154830D01*
X143171520Y-80643160D02*
X143214530Y-80644300D01*
X143145680Y-80639410D02*
X143171520Y-80643160D01*
X143107340Y-80630020D02*
X143145680Y-80639410D01*
X143061600Y-80616470D02*
X143107340Y-80630020D01*
X143013640Y-80600030D02*
X143061600Y-80616470D01*
X142898840Y-80558040D02*
X143013640Y-80600030D01*
X142889290Y-79957510D02*
X142898840Y-80558040D01*
X142879740Y-79356910D02*
X142889290Y-79957510D01*
X142812740Y-79333800D02*
X142879740Y-79356910D01*
X142752780Y-79313510D02*
X142812740Y-79333800D01*
X142702770Y-79297140D02*
X142752780Y-79313510D01*
X142659680Y-79283570D02*
X142702770Y-79297140D01*
X142659790Y-80054770D02*
X142659680Y-79283570D01*
X142660130Y-80222580D02*
X142659790Y-80054770D01*
X142661210Y-80376340D02*
X142660130Y-80222580D01*
X142662890Y-80514040D02*
X142661210Y-80376340D01*
X142665170Y-80633830D02*
X142662890Y-80514040D01*
X142668040Y-80733870D02*
X142665170Y-80633830D01*
X142671350Y-80812220D02*
X142668040Y-80733870D01*
X142675160Y-80866960D02*
X142671350Y-80812220D01*
X142679380Y-80896150D02*
X142675160Y-80866960D01*
X142715030Y-80970900D02*
X142679380Y-80896150D01*
X142781430Y-81034480D02*
X142715030Y-80970900D01*
X142885860Y-81092110D02*
X142781430Y-81034480D01*
X143035770Y-81149020D02*
X142885860Y-81092110D01*
X143182740Y-81194110D02*
X143035770Y-81149020D01*
X143284530Y-81214230D02*
X143182740Y-81194110D01*
X143354130Y-81210650D02*
X143284530Y-81214230D01*
X143404700Y-81184660D02*
X143354130Y-81210650D01*
X143426500Y-81162150D02*
X143404700Y-81184660D01*
X143443920Y-81131070D02*
X143426500Y-81162150D01*
X143457380Y-81087500D02*
X143443920Y-81131070D01*
X143467360Y-81027500D02*
X143457380Y-81087500D01*
X143474310Y-80947090D02*
X143467360Y-81027500D01*
X143478750Y-80842330D02*
X143474310Y-80947090D01*
X143481140Y-80709250D02*
X143478750Y-80842330D01*
X143481950Y-80543820D02*
X143481140Y-80709250D01*
X143483310Y-80367440D02*
X143481950Y-80543820D01*
X143486610Y-80223020D02*
X143483310Y-80367440D01*
X143491450Y-80125410D02*
X143486610Y-80223020D01*
X143497250Y-80089550D02*
X143491450Y-80125410D01*
X143524860Y-80096890D02*
X143497250Y-80089550D01*
X143589100Y-80116730D02*
X143524860Y-80096890D01*
X143680310Y-80146150D02*
X143589100Y-80116730D01*
X143789030Y-80182050D02*
X143680310Y-80146150D01*
X144065990Y-80274620D02*
X143789030Y-80182050D01*
X144085090Y-81511380D02*
X144065990Y-80274620D01*
X144180790Y-81545020D02*
X144085090Y-81511380D01*
X144219790Y-81558200D02*
X144180790Y-81545020D01*
X144255340Y-81569210D02*
X144219790Y-81558200D01*
X144283490Y-81576920D02*
X144255340Y-81569210D01*
X144300360Y-81580120D02*
X144283490Y-81576920D01*
X144306340Y-81564060D02*
X144300360Y-81580120D01*
X144311540Y-81517780D02*
X144306340Y-81564060D01*
X144315930Y-81445460D02*
X144311540Y-81517780D01*
X144319570Y-81351110D02*
X144315930Y-81445460D01*
X144322390Y-81238970D02*
X144319570Y-81351110D01*
X144324410Y-81113050D02*
X144322390Y-81238970D01*
X144325640Y-80977580D02*
X144324410Y-81113050D01*
X144326090Y-80836620D02*
X144325640Y-80977580D01*
X144325750Y-80694260D02*
X144326090Y-80836620D01*
X144324610Y-80554680D02*
X144325750Y-80694260D01*
X144322670Y-80421970D02*
X144324610Y-80554680D01*
X144319890Y-80300280D02*
X144322670Y-80421970D01*
X144316380Y-80193660D02*
X144319890Y-80300280D01*
X144312030Y-80106260D02*
X144316380Y-80193660D01*
X144306820Y-80042250D02*
X144312030Y-80106260D01*
X144300910Y-80005680D02*
X144306820Y-80042250D01*
X144285070Y-79967280D02*
X144300910Y-80005680D01*
X144260060Y-79924730D02*
X144285070Y-79967280D01*
X144227930Y-79881280D02*
X144260060Y-79924730D01*
X144190880Y-79840040D02*
X144227930Y-79881280D01*
X144162670Y-79812910D02*
X144190880Y-79840040D01*
X144135320Y-79790020D02*
X144162670Y-79812910D01*
X144105270Y-79769790D02*
X144135320Y-79790020D01*
X144069090Y-79750410D02*
X144105270Y-79769790D01*
X144023240Y-79730340D02*
X144069090Y-79750410D01*
X143964320Y-79707770D02*
X144023240Y-79730340D01*
X143888850Y-79681190D02*
X143964320Y-79707770D01*
X143793310Y-79648750D02*
X143888850Y-79681190D01*
X143482390Y-79544360D02*
X143793310Y-79648750D01*
X143482390Y-79252650D02*
X143482390Y-79544360D01*
X143483530Y-79112890D02*
X143482390Y-79252650D01*
X143487540Y-79023040D02*
X143483530Y-79112890D01*
X143495090Y-78975140D02*
X143487540Y-79023040D01*
X143506750Y-78960930D02*
X143495090Y-78975140D01*
X143554660Y-78973830D02*
X143506750Y-78960930D01*
X143667110Y-79008830D02*
X143554660Y-78973830D01*
X143827340Y-79060690D02*
X143667110Y-79008830D01*
X144018570Y-79123960D02*
X143827340Y-79060690D01*
X144219590Y-79190900D02*
X144018570Y-79123960D01*
X144406540Y-79252650D02*
X144219590Y-79190900D01*
X144558560Y-79302290D02*
X144406540Y-79252650D01*
X144654860Y-79333000D02*
X144558560Y-79302290D01*
X144803670Y-79379000D02*
X144654860Y-79333000D01*
X144793040Y-78860770D02*
X144803670Y-79379000D01*
X144563450Y-78779550D02*
X144793040Y-78860770D01*
X144333840Y-78698390D02*
X144563450Y-78779550D01*
X144328910Y-77573070D02*
X144333840Y-78698390D01*
X144328200Y-77346770D02*
X144328910Y-77573070D01*
X144328090Y-77135020D02*
X144328200Y-77346770D01*
X144328570Y-76942580D02*
X144328090Y-77135020D01*
X144329670Y-76774120D02*
X144328570Y-76942580D01*
X144331180Y-76634320D02*
X144329670Y-76774120D01*
X144333180Y-76527820D02*
X144331180Y-76634320D01*
X144335630Y-76459290D02*
X144333180Y-76527820D01*
X144338450Y-76433410D02*
X144335630Y-76459290D01*
X144352340Y-76431190D02*
X144338450Y-76433410D01*
X144379570Y-76435690D02*
X144352340Y-76431190D01*
X144416140Y-76446000D02*
X144379570Y-76435690D01*
X144458180Y-76461140D02*
X144416140Y-76446000D01*
X144563450Y-76503190D02*
X144458180Y-76461140D01*
X144568540Y-76943890D02*
X144563450Y-76503190D01*
X144573700Y-77384640D02*
X144568540Y-76943890D01*
X144654640Y-77406340D02*
X144573700Y-77384640D01*
X144688660Y-77415790D02*
X144654640Y-77406340D01*
X144721590Y-77425440D02*
X144688660Y-77415790D01*
X144749530Y-77434180D02*
X144721590Y-77425440D01*
X144768850Y-77440840D02*
X144749530Y-77434180D01*
X144779160Y-77442040D02*
X144768850Y-77440840D01*
X144787240Y-77432980D02*
X144779160Y-77442040D01*
X144793310Y-77408140D02*
X144787240Y-77432980D01*
X144797820Y-77362020D02*
X144793310Y-77408140D01*
X144801070Y-77289050D02*
X144797820Y-77362020D01*
X144803460Y-77183690D02*
X144801070Y-77289050D01*
X144805360Y-77040510D02*
X144803460Y-77183690D01*
X144807100Y-76853930D02*
X144805360Y-77040510D01*
D11*
X93178571Y-51000000D02*
X93083333Y-50952381D01*
X92940476Y-50952381D01*
X92797618Y-51000000D01*
X92702380Y-51095238D01*
X92654761Y-51190476D01*
X92607142Y-51380952D01*
X92607142Y-51523810D01*
X92654761Y-51714286D01*
X92702380Y-51809524D01*
X92797618Y-51904762D01*
X92940476Y-51952381D01*
X93035714Y-51952381D01*
X93178571Y-51904762D01*
X93226190Y-51857143D01*
X93226190Y-51523810D01*
X93035714Y-51523810D01*
X93654761Y-51952381D02*
X93654761Y-50952381D01*
X94226190Y-51952381D01*
X94226190Y-50952381D01*
X94702380Y-51952381D02*
X94702380Y-50952381D01*
X94940475Y-50952381D01*
X95083333Y-51000000D01*
X95178571Y-51095238D01*
X95226190Y-51190476D01*
X95273809Y-51380952D01*
X95273809Y-51523810D01*
X95226190Y-51714286D01*
X95178571Y-51809524D01*
X95083333Y-51904762D01*
X94940475Y-51952381D01*
X94702380Y-51952381D01*
X98464286Y-51952381D02*
X97988095Y-51952381D01*
X97988095Y-50952381D01*
X98797619Y-51428571D02*
X99130953Y-51428571D01*
X99273810Y-51952381D02*
X98797619Y-51952381D01*
X98797619Y-50952381D01*
X99273810Y-50952381D01*
X100035715Y-51428571D02*
X99702381Y-51428571D01*
X99702381Y-51952381D02*
X99702381Y-50952381D01*
X100178572Y-50952381D01*
X100416667Y-50952381D02*
X100988096Y-50952381D01*
X100702381Y-51952381D02*
X100702381Y-50952381D01*
X79452381Y-51000000D02*
X79357143Y-50952381D01*
X79214286Y-50952381D01*
X79071428Y-51000000D01*
X78976190Y-51095238D01*
X78928571Y-51190476D01*
X78880952Y-51380952D01*
X78880952Y-51523810D01*
X78928571Y-51714286D01*
X78976190Y-51809524D01*
X79071428Y-51904762D01*
X79214286Y-51952381D01*
X79309524Y-51952381D01*
X79452381Y-51904762D01*
X79500000Y-51857143D01*
X79500000Y-51523810D01*
X79309524Y-51523810D01*
X79928571Y-51952381D02*
X79928571Y-50952381D01*
X80500000Y-51952381D01*
X80500000Y-50952381D01*
X80976190Y-51952381D02*
X80976190Y-50952381D01*
X81214285Y-50952381D01*
X81357143Y-51000000D01*
X81452381Y-51095238D01*
X81500000Y-51190476D01*
X81547619Y-51380952D01*
X81547619Y-51523810D01*
X81500000Y-51714286D01*
X81452381Y-51809524D01*
X81357143Y-51904762D01*
X81214285Y-51952381D01*
X80976190Y-51952381D01*
X84833334Y-51952381D02*
X84500000Y-51476190D01*
X84261905Y-51952381D02*
X84261905Y-50952381D01*
X84642858Y-50952381D01*
X84738096Y-51000000D01*
X84785715Y-51047619D01*
X84833334Y-51142857D01*
X84833334Y-51285714D01*
X84785715Y-51380952D01*
X84738096Y-51428571D01*
X84642858Y-51476190D01*
X84261905Y-51476190D01*
X85261905Y-51952381D02*
X85261905Y-50952381D01*
X86261905Y-51000000D02*
X86166667Y-50952381D01*
X86023810Y-50952381D01*
X85880952Y-51000000D01*
X85785714Y-51095238D01*
X85738095Y-51190476D01*
X85690476Y-51380952D01*
X85690476Y-51523810D01*
X85738095Y-51714286D01*
X85785714Y-51809524D01*
X85880952Y-51904762D01*
X86023810Y-51952381D01*
X86119048Y-51952381D01*
X86261905Y-51904762D01*
X86309524Y-51857143D01*
X86309524Y-51523810D01*
X86119048Y-51523810D01*
X86738095Y-51952381D02*
X86738095Y-50952381D01*
X86738095Y-51428571D02*
X87309524Y-51428571D01*
X87309524Y-51952381D02*
X87309524Y-50952381D01*
X87642857Y-50952381D02*
X88214286Y-50952381D01*
X87928571Y-51952381D02*
X87928571Y-50952381D01*
X66333333Y-51000000D02*
X66238095Y-50952381D01*
X66095238Y-50952381D01*
X65952380Y-51000000D01*
X65857142Y-51095238D01*
X65809523Y-51190476D01*
X65761904Y-51380952D01*
X65761904Y-51523810D01*
X65809523Y-51714286D01*
X65857142Y-51809524D01*
X65952380Y-51904762D01*
X66095238Y-51952381D01*
X66190476Y-51952381D01*
X66333333Y-51904762D01*
X66380952Y-51857143D01*
X66380952Y-51523810D01*
X66190476Y-51523810D01*
X66809523Y-51952381D02*
X66809523Y-50952381D01*
X67380952Y-51952381D01*
X67380952Y-50952381D01*
X67857142Y-51952381D02*
X67857142Y-50952381D01*
X68095237Y-50952381D01*
X68238095Y-51000000D01*
X68333333Y-51095238D01*
X68380952Y-51190476D01*
X68428571Y-51380952D01*
X68428571Y-51523810D01*
X68380952Y-51714286D01*
X68333333Y-51809524D01*
X68238095Y-51904762D01*
X68095237Y-51952381D01*
X67857142Y-51952381D01*
X72476191Y-51952381D02*
X72142857Y-51476190D01*
X71904762Y-51952381D02*
X71904762Y-50952381D01*
X72285715Y-50952381D01*
X72380953Y-51000000D01*
X72428572Y-51047619D01*
X72476191Y-51142857D01*
X72476191Y-51285714D01*
X72428572Y-51380952D01*
X72380953Y-51428571D01*
X72285715Y-51476190D01*
X71904762Y-51476190D01*
X72904762Y-51428571D02*
X73238096Y-51428571D01*
X73380953Y-51952381D02*
X72904762Y-51952381D01*
X72904762Y-50952381D01*
X73380953Y-50952381D01*
X73666667Y-50952381D02*
X74000000Y-51952381D01*
X74333334Y-50952381D01*
X122857143Y-51571429D02*
X123619048Y-51571429D01*
X123238096Y-51952381D02*
X123238096Y-51190476D01*
X124619048Y-51952381D02*
X124047619Y-51952381D01*
X124333333Y-51952381D02*
X124333333Y-50952381D01*
X124238095Y-51095238D01*
X124142857Y-51190476D01*
X124047619Y-51238095D01*
X125000000Y-51047619D02*
X125047619Y-51000000D01*
X125142857Y-50952381D01*
X125380953Y-50952381D01*
X125476191Y-51000000D01*
X125523810Y-51047619D01*
X125571429Y-51142857D01*
X125571429Y-51238095D01*
X125523810Y-51380952D01*
X124952381Y-51952381D01*
X125571429Y-51952381D01*
X125857143Y-50952381D02*
X126190476Y-51952381D01*
X126523810Y-50952381D01*
X127619048Y-51952381D02*
X127619048Y-50952381D01*
X127857143Y-50952381D01*
X128000001Y-51000000D01*
X128095239Y-51095238D01*
X128142858Y-51190476D01*
X128190477Y-51380952D01*
X128190477Y-51523810D01*
X128142858Y-51714286D01*
X128095239Y-51809524D01*
X128000001Y-51904762D01*
X127857143Y-51952381D01*
X127619048Y-51952381D01*
X128619048Y-51952381D02*
X128619048Y-50952381D01*
X129666667Y-51952381D02*
X129333333Y-51476190D01*
X129095238Y-51952381D02*
X129095238Y-50952381D01*
X129476191Y-50952381D01*
X129571429Y-51000000D01*
X129619048Y-51047619D01*
X129666667Y-51142857D01*
X129666667Y-51285714D01*
X129619048Y-51380952D01*
X129571429Y-51428571D01*
X129476191Y-51476190D01*
X129095238Y-51476190D01*
X130095238Y-51571429D02*
X130857143Y-51571429D01*
X131904762Y-51952381D02*
X131571428Y-51476190D01*
X131333333Y-51952381D02*
X131333333Y-50952381D01*
X131714286Y-50952381D01*
X131809524Y-51000000D01*
X131857143Y-51047619D01*
X131904762Y-51142857D01*
X131904762Y-51285714D01*
X131857143Y-51380952D01*
X131809524Y-51428571D01*
X131714286Y-51476190D01*
X131333333Y-51476190D01*
X133095238Y-51952381D02*
X133095238Y-50952381D01*
X133333333Y-50952381D01*
X133476191Y-51000000D01*
X133571429Y-51095238D01*
X133619048Y-51190476D01*
X133666667Y-51380952D01*
X133666667Y-51523810D01*
X133619048Y-51714286D01*
X133571429Y-51809524D01*
X133476191Y-51904762D01*
X133333333Y-51952381D01*
X133095238Y-51952381D01*
X134095238Y-51952381D02*
X134095238Y-50952381D01*
X135142857Y-51952381D02*
X134809523Y-51476190D01*
X134571428Y-51952381D02*
X134571428Y-50952381D01*
X134952381Y-50952381D01*
X135047619Y-51000000D01*
X135095238Y-51047619D01*
X135142857Y-51142857D01*
X135142857Y-51285714D01*
X135095238Y-51380952D01*
X135047619Y-51428571D01*
X134952381Y-51476190D01*
X134571428Y-51476190D01*
X135571428Y-51571429D02*
X136333333Y-51571429D01*
X137285714Y-51952381D02*
X136809523Y-51952381D01*
X136809523Y-50952381D01*
X105869047Y-51571429D02*
X106630952Y-51571429D01*
X106250000Y-51952381D02*
X106250000Y-51190476D01*
X107630952Y-51952381D02*
X107059523Y-51952381D01*
X107345237Y-51952381D02*
X107345237Y-50952381D01*
X107249999Y-51095238D01*
X107154761Y-51190476D01*
X107059523Y-51238095D01*
X108011904Y-51047619D02*
X108059523Y-51000000D01*
X108154761Y-50952381D01*
X108392857Y-50952381D01*
X108488095Y-51000000D01*
X108535714Y-51047619D01*
X108583333Y-51142857D01*
X108583333Y-51238095D01*
X108535714Y-51380952D01*
X107964285Y-51952381D01*
X108583333Y-51952381D01*
X108869047Y-50952381D02*
X109202380Y-51952381D01*
X109535714Y-50952381D01*
X111154762Y-51000000D02*
X111059524Y-50952381D01*
X110916667Y-50952381D01*
X110773809Y-51000000D01*
X110678571Y-51095238D01*
X110630952Y-51190476D01*
X110583333Y-51380952D01*
X110583333Y-51523810D01*
X110630952Y-51714286D01*
X110678571Y-51809524D01*
X110773809Y-51904762D01*
X110916667Y-51952381D01*
X111011905Y-51952381D01*
X111154762Y-51904762D01*
X111202381Y-51857143D01*
X111202381Y-51523810D01*
X111011905Y-51523810D01*
X111630952Y-51952381D02*
X111630952Y-50952381D01*
X112202381Y-51952381D01*
X112202381Y-50952381D01*
X112678571Y-51952381D02*
X112678571Y-50952381D01*
X112916666Y-50952381D01*
X113059524Y-51000000D01*
X113154762Y-51095238D01*
X113202381Y-51190476D01*
X113250000Y-51380952D01*
X113250000Y-51523810D01*
X113202381Y-51714286D01*
X113154762Y-51809524D01*
X113059524Y-51904762D01*
X112916666Y-51952381D01*
X112678571Y-51952381D01*
X114392857Y-51666667D02*
X114869048Y-51666667D01*
X114297619Y-51952381D02*
X114630952Y-50952381D01*
X114964286Y-51952381D01*
X115773810Y-51952381D02*
X115297619Y-51952381D01*
X115297619Y-50952381D01*
X116059524Y-51666667D02*
X116535715Y-51666667D01*
X115964286Y-51952381D02*
X116297619Y-50952381D01*
X116630953Y-51952381D01*
X117535715Y-51952381D02*
X117202381Y-51476190D01*
X116964286Y-51952381D02*
X116964286Y-50952381D01*
X117345239Y-50952381D01*
X117440477Y-51000000D01*
X117488096Y-51047619D01*
X117535715Y-51142857D01*
X117535715Y-51285714D01*
X117488096Y-51380952D01*
X117440477Y-51428571D01*
X117345239Y-51476190D01*
X116964286Y-51476190D01*
X117964286Y-51952381D02*
X117964286Y-50952381D01*
X118297620Y-51666667D01*
X118630953Y-50952381D01*
X118630953Y-51952381D01*
D12*
X60285715Y-98607143D02*
X60500001Y-98678571D01*
X60857144Y-98678571D01*
X61000001Y-98607143D01*
X61071430Y-98535714D01*
X61142858Y-98392857D01*
X61142858Y-98250000D01*
X61071430Y-98107143D01*
X61000001Y-98035714D01*
X60857144Y-97964286D01*
X60571430Y-97892857D01*
X60428572Y-97821429D01*
X60357144Y-97750000D01*
X60285715Y-97607143D01*
X60285715Y-97464286D01*
X60357144Y-97321429D01*
X60428572Y-97250000D01*
X60571430Y-97178571D01*
X60928572Y-97178571D01*
X61142858Y-97250000D01*
X61785715Y-97678571D02*
X61785715Y-99178571D01*
X61785715Y-97750000D02*
X61928572Y-97678571D01*
X62214286Y-97678571D01*
X62357143Y-97750000D01*
X62428572Y-97821429D01*
X62500001Y-97964286D01*
X62500001Y-98392857D01*
X62428572Y-98535714D01*
X62357143Y-98607143D01*
X62214286Y-98678571D01*
X61928572Y-98678571D01*
X61785715Y-98607143D01*
X63142858Y-98678571D02*
X63142858Y-97678571D01*
X63142858Y-97178571D02*
X63071429Y-97250000D01*
X63142858Y-97321429D01*
X63214286Y-97250000D01*
X63142858Y-97178571D01*
X63142858Y-97321429D01*
X63857144Y-97678571D02*
X63857144Y-98964286D01*
X63785715Y-99107143D01*
X63642858Y-99178571D01*
X63571430Y-99178571D01*
X63857144Y-97178571D02*
X63785715Y-97250000D01*
X63857144Y-97321429D01*
X63928572Y-97250000D01*
X63857144Y-97178571D01*
X63857144Y-97321429D01*
X64571430Y-98678571D02*
X64571430Y-97178571D01*
X64714287Y-98107143D02*
X65142858Y-98678571D01*
X65142858Y-97678571D02*
X64571430Y-98250000D01*
X65714287Y-98607143D02*
X65857144Y-98678571D01*
X66142859Y-98678571D01*
X66285716Y-98607143D01*
X66357144Y-98464286D01*
X66357144Y-98392857D01*
X66285716Y-98250000D01*
X66142859Y-98178571D01*
X65928573Y-98178571D01*
X65785716Y-98107143D01*
X65714287Y-97964286D01*
X65714287Y-97892857D01*
X65785716Y-97750000D01*
X65928573Y-97678571D01*
X66142859Y-97678571D01*
X66285716Y-97750000D01*
X66785716Y-97678571D02*
X67357145Y-97678571D01*
X67000002Y-97178571D02*
X67000002Y-98464286D01*
X67071430Y-98607143D01*
X67214288Y-98678571D01*
X67357145Y-98678571D01*
X68500002Y-98678571D02*
X68500002Y-97892857D01*
X68428573Y-97750000D01*
X68285716Y-97678571D01*
X68000002Y-97678571D01*
X67857145Y-97750000D01*
X68500002Y-98607143D02*
X68357145Y-98678571D01*
X68000002Y-98678571D01*
X67857145Y-98607143D01*
X67785716Y-98464286D01*
X67785716Y-98321429D01*
X67857145Y-98178571D01*
X68000002Y-98107143D01*
X68357145Y-98107143D01*
X68500002Y-98035714D01*
X69857145Y-98678571D02*
X69857145Y-97892857D01*
X69785716Y-97750000D01*
X69642859Y-97678571D01*
X69357145Y-97678571D01*
X69214288Y-97750000D01*
X69857145Y-98607143D02*
X69714288Y-98678571D01*
X69357145Y-98678571D01*
X69214288Y-98607143D01*
X69142859Y-98464286D01*
X69142859Y-98321429D01*
X69214288Y-98178571D01*
X69357145Y-98107143D01*
X69714288Y-98107143D01*
X69857145Y-98035714D01*
X70785717Y-98678571D02*
X70642859Y-98607143D01*
X70571431Y-98464286D01*
X70571431Y-97178571D01*
X72500002Y-98678571D02*
X72500002Y-97178571D01*
X72857145Y-97178571D01*
X73071430Y-97250000D01*
X73214288Y-97392857D01*
X73285716Y-97535714D01*
X73357145Y-97821429D01*
X73357145Y-98035714D01*
X73285716Y-98321429D01*
X73214288Y-98464286D01*
X73071430Y-98607143D01*
X72857145Y-98678571D01*
X72500002Y-98678571D01*
X74000002Y-98678571D02*
X74000002Y-97678571D01*
X74000002Y-97178571D02*
X73928573Y-97250000D01*
X74000002Y-97321429D01*
X74071430Y-97250000D01*
X74000002Y-97178571D01*
X74000002Y-97321429D01*
X74714288Y-98678571D02*
X74714288Y-97678571D01*
X74714288Y-97964286D02*
X74785716Y-97821429D01*
X74857145Y-97750000D01*
X75000002Y-97678571D01*
X75142859Y-97678571D01*
X76214287Y-98607143D02*
X76071430Y-98678571D01*
X75785716Y-98678571D01*
X75642859Y-98607143D01*
X75571430Y-98464286D01*
X75571430Y-97892857D01*
X75642859Y-97750000D01*
X75785716Y-97678571D01*
X76071430Y-97678571D01*
X76214287Y-97750000D01*
X76285716Y-97892857D01*
X76285716Y-98035714D01*
X75571430Y-98178571D01*
X77571430Y-98607143D02*
X77428573Y-98678571D01*
X77142859Y-98678571D01*
X77000001Y-98607143D01*
X76928573Y-98535714D01*
X76857144Y-98392857D01*
X76857144Y-97964286D01*
X76928573Y-97821429D01*
X77000001Y-97750000D01*
X77142859Y-97678571D01*
X77428573Y-97678571D01*
X77571430Y-97750000D01*
X78000001Y-97678571D02*
X78571430Y-97678571D01*
X78214287Y-97178571D02*
X78214287Y-98464286D01*
X78285715Y-98607143D01*
X78428573Y-98678571D01*
X78571430Y-98678571D01*
X79071430Y-98678571D02*
X79071430Y-97678571D01*
X79071430Y-97178571D02*
X79000001Y-97250000D01*
X79071430Y-97321429D01*
X79142858Y-97250000D01*
X79071430Y-97178571D01*
X79071430Y-97321429D01*
X80000002Y-98678571D02*
X79857144Y-98607143D01*
X79785716Y-98535714D01*
X79714287Y-98392857D01*
X79714287Y-97964286D01*
X79785716Y-97821429D01*
X79857144Y-97750000D01*
X80000002Y-97678571D01*
X80214287Y-97678571D01*
X80357144Y-97750000D01*
X80428573Y-97821429D01*
X80500002Y-97964286D01*
X80500002Y-98392857D01*
X80428573Y-98535714D01*
X80357144Y-98607143D01*
X80214287Y-98678571D01*
X80000002Y-98678571D01*
X81142859Y-97678571D02*
X81142859Y-98678571D01*
X81142859Y-97821429D02*
X81214287Y-97750000D01*
X81357145Y-97678571D01*
X81571430Y-97678571D01*
X81714287Y-97750000D01*
X81785716Y-97892857D01*
X81785716Y-98678571D01*
X83642859Y-98107143D02*
X84785716Y-98107143D01*
X84214287Y-98678571D02*
X84214287Y-97535714D01*
X87500002Y-98678571D02*
X87000002Y-97964286D01*
X86642859Y-98678571D02*
X86642859Y-97178571D01*
X87214287Y-97178571D01*
X87357145Y-97250000D01*
X87428573Y-97321429D01*
X87500002Y-97464286D01*
X87500002Y-97678571D01*
X87428573Y-97821429D01*
X87357145Y-97892857D01*
X87214287Y-97964286D01*
X86642859Y-97964286D01*
X88714287Y-98607143D02*
X88571430Y-98678571D01*
X88285716Y-98678571D01*
X88142859Y-98607143D01*
X88071430Y-98464286D01*
X88071430Y-97892857D01*
X88142859Y-97750000D01*
X88285716Y-97678571D01*
X88571430Y-97678571D01*
X88714287Y-97750000D01*
X88785716Y-97892857D01*
X88785716Y-98035714D01*
X88071430Y-98178571D01*
X89285716Y-97678571D02*
X89642859Y-98678571D01*
X90000001Y-97678571D01*
X91142858Y-98607143D02*
X91000001Y-98678571D01*
X90714287Y-98678571D01*
X90571430Y-98607143D01*
X90500001Y-98464286D01*
X90500001Y-97892857D01*
X90571430Y-97750000D01*
X90714287Y-97678571D01*
X91000001Y-97678571D01*
X91142858Y-97750000D01*
X91214287Y-97892857D01*
X91214287Y-98035714D01*
X90500001Y-98178571D01*
X91857144Y-98678571D02*
X91857144Y-97678571D01*
X91857144Y-97964286D02*
X91928572Y-97821429D01*
X92000001Y-97750000D01*
X92142858Y-97678571D01*
X92285715Y-97678571D01*
X92714286Y-98607143D02*
X92857143Y-98678571D01*
X93142858Y-98678571D01*
X93285715Y-98607143D01*
X93357143Y-98464286D01*
X93357143Y-98392857D01*
X93285715Y-98250000D01*
X93142858Y-98178571D01*
X92928572Y-98178571D01*
X92785715Y-98107143D01*
X92714286Y-97964286D01*
X92714286Y-97892857D01*
X92785715Y-97750000D01*
X92928572Y-97678571D01*
X93142858Y-97678571D01*
X93285715Y-97750000D01*
X94571429Y-98607143D02*
X94428572Y-98678571D01*
X94142858Y-98678571D01*
X94000001Y-98607143D01*
X93928572Y-98464286D01*
X93928572Y-97892857D01*
X94000001Y-97750000D01*
X94142858Y-97678571D01*
X94428572Y-97678571D01*
X94571429Y-97750000D01*
X94642858Y-97892857D01*
X94642858Y-98035714D01*
X93928572Y-98178571D01*
X96642858Y-98678571D02*
X96500000Y-98607143D01*
X96428572Y-98464286D01*
X96428572Y-97178571D01*
X97214286Y-98678571D02*
X97214286Y-97678571D01*
X97214286Y-97178571D02*
X97142857Y-97250000D01*
X97214286Y-97321429D01*
X97285714Y-97250000D01*
X97214286Y-97178571D01*
X97214286Y-97321429D01*
X98571429Y-97678571D02*
X98571429Y-98892857D01*
X98500000Y-99035714D01*
X98428572Y-99107143D01*
X98285715Y-99178571D01*
X98071429Y-99178571D01*
X97928572Y-99107143D01*
X98571429Y-98607143D02*
X98428572Y-98678571D01*
X98142858Y-98678571D01*
X98000000Y-98607143D01*
X97928572Y-98535714D01*
X97857143Y-98392857D01*
X97857143Y-97964286D01*
X97928572Y-97821429D01*
X98000000Y-97750000D01*
X98142858Y-97678571D01*
X98428572Y-97678571D01*
X98571429Y-97750000D01*
X99285715Y-98678571D02*
X99285715Y-97178571D01*
X99928572Y-98678571D02*
X99928572Y-97892857D01*
X99857143Y-97750000D01*
X99714286Y-97678571D01*
X99500001Y-97678571D01*
X99357143Y-97750000D01*
X99285715Y-97821429D01*
X100428572Y-97678571D02*
X101000001Y-97678571D01*
X100642858Y-97178571D02*
X100642858Y-98464286D01*
X100714286Y-98607143D01*
X100857144Y-98678571D01*
X101000001Y-98678571D01*
X103357144Y-98678571D02*
X102642858Y-98678571D01*
X102642858Y-97178571D01*
X103857144Y-97892857D02*
X104357144Y-97892857D01*
X104571430Y-98678571D02*
X103857144Y-98678571D01*
X103857144Y-97178571D01*
X104571430Y-97178571D01*
X105214287Y-98678571D02*
X105214287Y-97178571D01*
X105571430Y-97178571D01*
X105785715Y-97250000D01*
X105928573Y-97392857D01*
X106000001Y-97535714D01*
X106071430Y-97821429D01*
X106071430Y-98035714D01*
X106000001Y-98321429D01*
X105928573Y-98464286D01*
X105785715Y-98607143D01*
X105571430Y-98678571D01*
X105214287Y-98678571D01*
X108500001Y-98607143D02*
X108357144Y-98678571D01*
X108071430Y-98678571D01*
X107928572Y-98607143D01*
X107857144Y-98535714D01*
X107785715Y-98392857D01*
X107785715Y-97964286D01*
X107857144Y-97821429D01*
X107928572Y-97750000D01*
X108071430Y-97678571D01*
X108357144Y-97678571D01*
X108500001Y-97750000D01*
X109357144Y-98678571D02*
X109214286Y-98607143D01*
X109142858Y-98535714D01*
X109071429Y-98392857D01*
X109071429Y-97964286D01*
X109142858Y-97821429D01*
X109214286Y-97750000D01*
X109357144Y-97678571D01*
X109571429Y-97678571D01*
X109714286Y-97750000D01*
X109785715Y-97821429D01*
X109857144Y-97964286D01*
X109857144Y-98392857D01*
X109785715Y-98535714D01*
X109714286Y-98607143D01*
X109571429Y-98678571D01*
X109357144Y-98678571D01*
X110500001Y-97678571D02*
X110500001Y-98678571D01*
X110500001Y-97821429D02*
X110571429Y-97750000D01*
X110714287Y-97678571D01*
X110928572Y-97678571D01*
X111071429Y-97750000D01*
X111142858Y-97892857D01*
X111142858Y-98678571D01*
X111642858Y-97678571D02*
X112214287Y-97678571D01*
X111857144Y-97178571D02*
X111857144Y-98464286D01*
X111928572Y-98607143D01*
X112071430Y-98678571D01*
X112214287Y-98678571D01*
X112714287Y-98678571D02*
X112714287Y-97678571D01*
X112714287Y-97964286D02*
X112785715Y-97821429D01*
X112857144Y-97750000D01*
X113000001Y-97678571D01*
X113142858Y-97678571D01*
X113857144Y-98678571D02*
X113714286Y-98607143D01*
X113642858Y-98535714D01*
X113571429Y-98392857D01*
X113571429Y-97964286D01*
X113642858Y-97821429D01*
X113714286Y-97750000D01*
X113857144Y-97678571D01*
X114071429Y-97678571D01*
X114214286Y-97750000D01*
X114285715Y-97821429D01*
X114357144Y-97964286D01*
X114357144Y-98392857D01*
X114285715Y-98535714D01*
X114214286Y-98607143D01*
X114071429Y-98678571D01*
X113857144Y-98678571D01*
X115214287Y-98678571D02*
X115071429Y-98607143D01*
X115000001Y-98464286D01*
X115000001Y-97178571D01*
X116000001Y-98678571D02*
X115857143Y-98607143D01*
X115785715Y-98464286D01*
X115785715Y-97178571D01*
X117142857Y-98607143D02*
X117000000Y-98678571D01*
X116714286Y-98678571D01*
X116571429Y-98607143D01*
X116500000Y-98464286D01*
X116500000Y-97892857D01*
X116571429Y-97750000D01*
X116714286Y-97678571D01*
X117000000Y-97678571D01*
X117142857Y-97750000D01*
X117214286Y-97892857D01*
X117214286Y-98035714D01*
X116500000Y-98178571D01*
X117857143Y-98678571D02*
X117857143Y-97678571D01*
X117857143Y-97964286D02*
X117928571Y-97821429D01*
X118000000Y-97750000D01*
X118142857Y-97678571D01*
X118285714Y-97678571D01*
X119928571Y-98678571D02*
X119928571Y-97178571D01*
X119928571Y-97750000D02*
X120071428Y-97678571D01*
X120357142Y-97678571D01*
X120499999Y-97750000D01*
X120571428Y-97821429D01*
X120642857Y-97964286D01*
X120642857Y-98392857D01*
X120571428Y-98535714D01*
X120499999Y-98607143D01*
X120357142Y-98678571D01*
X120071428Y-98678571D01*
X119928571Y-98607143D01*
X121142857Y-97678571D02*
X121500000Y-98678571D01*
X121857142Y-97678571D02*
X121500000Y-98678571D01*
X121357142Y-99035714D01*
X121285714Y-99107143D01*
X121142857Y-99178571D01*
X123999999Y-97178571D02*
X123999999Y-98250000D01*
X123928571Y-98464286D01*
X123785714Y-98607143D01*
X123571428Y-98678571D01*
X123428571Y-98678571D01*
X125357142Y-98678571D02*
X125357142Y-97892857D01*
X125285713Y-97750000D01*
X125142856Y-97678571D01*
X124857142Y-97678571D01*
X124714285Y-97750000D01*
X125357142Y-98607143D02*
X125214285Y-98678571D01*
X124857142Y-98678571D01*
X124714285Y-98607143D01*
X124642856Y-98464286D01*
X124642856Y-98321429D01*
X124714285Y-98178571D01*
X124857142Y-98107143D01*
X125214285Y-98107143D01*
X125357142Y-98035714D01*
X126714285Y-98678571D02*
X126714285Y-97892857D01*
X126642856Y-97750000D01*
X126499999Y-97678571D01*
X126214285Y-97678571D01*
X126071428Y-97750000D01*
X126714285Y-98607143D02*
X126571428Y-98678571D01*
X126214285Y-98678571D01*
X126071428Y-98607143D01*
X125999999Y-98464286D01*
X125999999Y-98321429D01*
X126071428Y-98178571D01*
X126214285Y-98107143D01*
X126571428Y-98107143D01*
X126714285Y-98035714D01*
X127428571Y-97678571D02*
X127428571Y-99178571D01*
X127428571Y-97750000D02*
X127571428Y-97678571D01*
X127857142Y-97678571D01*
X127999999Y-97750000D01*
X128071428Y-97821429D01*
X128142857Y-97964286D01*
X128142857Y-98392857D01*
X128071428Y-98535714D01*
X127999999Y-98607143D01*
X127857142Y-98678571D01*
X127571428Y-98678571D01*
X127428571Y-98607143D01*
X129714285Y-97178571D02*
X130214285Y-98678571D01*
X130714285Y-97178571D01*
X131785713Y-98607143D02*
X131642856Y-98678571D01*
X131357142Y-98678571D01*
X131214285Y-98607143D01*
X131142856Y-98464286D01*
X131142856Y-97892857D01*
X131214285Y-97750000D01*
X131357142Y-97678571D01*
X131642856Y-97678571D01*
X131785713Y-97750000D01*
X131857142Y-97892857D01*
X131857142Y-98035714D01*
X131142856Y-98178571D01*
X132499999Y-98678571D02*
X132499999Y-97678571D01*
X132499999Y-97964286D02*
X132571427Y-97821429D01*
X132642856Y-97750000D01*
X132785713Y-97678571D01*
X132928570Y-97678571D01*
X133428570Y-98678571D02*
X133428570Y-97678571D01*
X133428570Y-97821429D02*
X133499998Y-97750000D01*
X133642856Y-97678571D01*
X133857141Y-97678571D01*
X133999998Y-97750000D01*
X134071427Y-97892857D01*
X134071427Y-98678571D01*
X134071427Y-97892857D02*
X134142856Y-97750000D01*
X134285713Y-97678571D01*
X134499998Y-97678571D01*
X134642856Y-97750000D01*
X134714284Y-97892857D01*
X134714284Y-98678571D01*
X136071427Y-98678571D02*
X136071427Y-97892857D01*
X135999998Y-97750000D01*
X135857141Y-97678571D01*
X135571427Y-97678571D01*
X135428570Y-97750000D01*
X136071427Y-98607143D02*
X135928570Y-98678571D01*
X135571427Y-98678571D01*
X135428570Y-98607143D01*
X135357141Y-98464286D01*
X135357141Y-98321429D01*
X135428570Y-98178571D01*
X135571427Y-98107143D01*
X135928570Y-98107143D01*
X136071427Y-98035714D01*
X137428570Y-98678571D02*
X137428570Y-97892857D01*
X137357141Y-97750000D01*
X137214284Y-97678571D01*
X136928570Y-97678571D01*
X136785713Y-97750000D01*
X137428570Y-98607143D02*
X137285713Y-98678571D01*
X136928570Y-98678571D01*
X136785713Y-98607143D01*
X136714284Y-98464286D01*
X136714284Y-98321429D01*
X136785713Y-98178571D01*
X136928570Y-98107143D01*
X137285713Y-98107143D01*
X137428570Y-98035714D01*
X138071427Y-98607143D02*
X138214284Y-98678571D01*
X138499999Y-98678571D01*
X138642856Y-98607143D01*
X138714284Y-98464286D01*
X138714284Y-98392857D01*
X138642856Y-98250000D01*
X138499999Y-98178571D01*
X138285713Y-98178571D01*
X138142856Y-98107143D01*
X138071427Y-97964286D01*
X138071427Y-97892857D01*
X138142856Y-97750000D01*
X138285713Y-97678571D01*
X138499999Y-97678571D01*
X138642856Y-97750000D01*
D13*
X52220000Y-72120000D02*
X61580000Y-72120000D01*
X61580000Y-72120000D02*
X61580000Y-61800000D01*
X61580000Y-61800000D02*
X52220000Y-61800000D01*
X52220000Y-72120000D02*
X52220000Y-70550000D01*
X52220000Y-61800000D02*
X52220000Y-63370000D01*
X52220000Y-68450000D02*
X52220000Y-65470000D01*
X58300000Y-72120000D02*
X58300000Y-61800000D01*
X50900000Y-69200000D02*
X51500000Y-69500000D01*
X51500000Y-69500000D02*
X50900000Y-69800000D01*
X50900000Y-69800000D02*
X50900000Y-69200000D01*
D11*
X120060000Y-52960000D02*
X114980000Y-52960000D01*
X114980000Y-52960000D02*
X114980000Y-63120000D01*
X114980000Y-63120000D02*
X120060000Y-63120000D01*
X120060000Y-63120000D02*
X120060000Y-52960000D01*
X114550000Y-63120000D02*
X114550000Y-52960000D01*
X109470000Y-63120000D02*
X114550000Y-63120000D01*
X109470000Y-52960000D02*
X109470000Y-63120000D01*
X114550000Y-52960000D02*
X109470000Y-52960000D01*
X109040000Y-52960000D02*
X103960000Y-52960000D01*
X103960000Y-52960000D02*
X103960000Y-63120000D01*
X103960000Y-63120000D02*
X109040000Y-63120000D01*
X109040000Y-63120000D02*
X109040000Y-52960000D01*
X64950000Y-52880000D02*
X64950000Y-63040000D01*
X70030000Y-52880000D02*
X64950000Y-52880000D01*
X70030000Y-63040000D02*
X70030000Y-52880000D01*
X64950000Y-63040000D02*
X70030000Y-63040000D01*
X70460000Y-63040000D02*
X75540000Y-63040000D01*
X75540000Y-63040000D02*
X75540000Y-52880000D01*
X75540000Y-52880000D02*
X70460000Y-52880000D01*
X70460000Y-52880000D02*
X70460000Y-63040000D01*
X77950000Y-52880000D02*
X77950000Y-63040000D01*
X83030000Y-52880000D02*
X77950000Y-52880000D01*
X83030000Y-63040000D02*
X83030000Y-52880000D01*
X77950000Y-63040000D02*
X83030000Y-63040000D01*
X83460000Y-63040000D02*
X88540000Y-63040000D01*
X88540000Y-63040000D02*
X88540000Y-52880000D01*
X88540000Y-52880000D02*
X83460000Y-52880000D01*
X83460000Y-52880000D02*
X83460000Y-63040000D01*
X90950000Y-52880000D02*
X90950000Y-63040000D01*
X96030000Y-52880000D02*
X90950000Y-52880000D01*
X96030000Y-63040000D02*
X96030000Y-52880000D01*
X90950000Y-63040000D02*
X96030000Y-63040000D01*
X96460000Y-63040000D02*
X101540000Y-63040000D01*
X101540000Y-63040000D02*
X101540000Y-52880000D01*
X101540000Y-52880000D02*
X96460000Y-52880000D01*
X96460000Y-52880000D02*
X96460000Y-63040000D01*
X122440000Y-63040000D02*
X127520000Y-63040000D01*
X127520000Y-63040000D02*
X127520000Y-52880000D01*
X127520000Y-52880000D02*
X122440000Y-52880000D01*
X122440000Y-52880000D02*
X122440000Y-63040000D01*
X127950000Y-52880000D02*
X127950000Y-63040000D01*
X133030000Y-52880000D02*
X127950000Y-52880000D01*
X133030000Y-63040000D02*
X133030000Y-52880000D01*
X127950000Y-63040000D02*
X133030000Y-63040000D01*
X133460000Y-63040000D02*
X138540000Y-63040000D01*
X138540000Y-63040000D02*
X138540000Y-52880000D01*
X138540000Y-52880000D02*
X133460000Y-52880000D01*
X133460000Y-52880000D02*
X133460000Y-63040000D01*
D13*
X125750000Y-78480000D02*
X123750000Y-78480000D01*
X123750000Y-80520000D02*
X125750000Y-80520000D01*
X115400000Y-79600000D02*
X115400000Y-78900000D01*
X116600000Y-78900000D02*
X116600000Y-79600000D01*
X80990000Y-85420000D02*
X80990000Y-86350000D01*
X80990000Y-88580000D02*
X80990000Y-87650000D01*
X80990000Y-88580000D02*
X83150000Y-88580000D01*
X80990000Y-85420000D02*
X82450000Y-85420000D01*
X73490000Y-85420000D02*
X73490000Y-86350000D01*
X73490000Y-88580000D02*
X73490000Y-87650000D01*
X73490000Y-88580000D02*
X75650000Y-88580000D01*
X73490000Y-85420000D02*
X74950000Y-85420000D01*
X66240000Y-85670000D02*
X66240000Y-86600000D01*
X66240000Y-88830000D02*
X66240000Y-87900000D01*
X66240000Y-88830000D02*
X68400000Y-88830000D01*
X66240000Y-85670000D02*
X67700000Y-85670000D01*
X91050000Y-74450000D02*
X91050000Y-75950000D01*
X91050000Y-75950000D02*
X92860000Y-75950000D01*
X92860000Y-75950000D02*
X92860000Y-81075000D01*
X101450000Y-74450000D02*
X101450000Y-75950000D01*
X101450000Y-75950000D02*
X99640000Y-75950000D01*
X99640000Y-75950000D02*
X99640000Y-77050000D01*
X78050000Y-74450000D02*
X78050000Y-75950000D01*
X78050000Y-75950000D02*
X79860000Y-75950000D01*
X79860000Y-75950000D02*
X79860000Y-81075000D01*
X88450000Y-74450000D02*
X88450000Y-75950000D01*
X88450000Y-75950000D02*
X86640000Y-75950000D01*
X86640000Y-75950000D02*
X86640000Y-77050000D01*
X65050000Y-74450000D02*
X65050000Y-75950000D01*
X65050000Y-75950000D02*
X66860000Y-75950000D01*
X66860000Y-75950000D02*
X66860000Y-81075000D01*
X75450000Y-74450000D02*
X75450000Y-75950000D01*
X75450000Y-75950000D02*
X73640000Y-75950000D01*
X73640000Y-75950000D02*
X73640000Y-77050000D01*
X118930000Y-78750000D02*
X118930000Y-79750000D01*
X117570000Y-79750000D02*
X117570000Y-78750000D01*
X134810000Y-89690000D02*
X134810000Y-94810000D01*
X129690000Y-89690000D02*
X129690000Y-94810000D01*
X134810000Y-89690000D02*
X133430000Y-89690000D01*
X131070000Y-89690000D02*
X129690000Y-89690000D01*
X134810000Y-94810000D02*
X134230000Y-94810000D01*
X132570000Y-94810000D02*
X131930000Y-94810000D01*
X130270000Y-94810000D02*
X129690000Y-94810000D01*
X131365062Y-93075218D02*
G75*
G02X131040000Y-92250000I884938J825218D01*
G01*
X132584851Y-93408610D02*
G75*
G02X131920000Y-93410000I-334851J1158610D01*
G01*
X133139364Y-91430042D02*
G75*
G02X133130000Y-93080000I-889364J-819958D01*
G01*
X131033222Y-92271194D02*
G75*
G02X131360000Y-91420000I1216778J21194D01*
G01*
X112080000Y-78750000D02*
X112080000Y-79750000D01*
X110720000Y-79750000D02*
X110720000Y-78750000D01*
X104430000Y-78750000D02*
X104430000Y-79750000D01*
X103070000Y-79750000D02*
X103070000Y-78750000D01*
X108180000Y-78750000D02*
X108180000Y-79750000D01*
X106820000Y-79750000D02*
X106820000Y-78750000D01*
X80320000Y-92750000D02*
X80320000Y-91750000D01*
X81680000Y-91750000D02*
X81680000Y-92750000D01*
X74820000Y-92750000D02*
X74820000Y-91750000D01*
X76180000Y-91750000D02*
X76180000Y-92750000D01*
X58350000Y-76380000D02*
X57150000Y-76380000D01*
X57150000Y-74620000D02*
X58350000Y-74620000D01*
X63820000Y-92750000D02*
X63820000Y-91750000D01*
X65180000Y-91750000D02*
X65180000Y-92750000D01*
X66570000Y-92750000D02*
X66570000Y-91750000D01*
X67930000Y-91750000D02*
X67930000Y-92750000D01*
X77570000Y-92750000D02*
X77570000Y-91750000D01*
X78930000Y-91750000D02*
X78930000Y-92750000D01*
X72070000Y-92750000D02*
X72070000Y-91750000D01*
X73430000Y-91750000D02*
X73430000Y-92750000D01*
X69320000Y-92750000D02*
X69320000Y-91750000D01*
X70680000Y-91750000D02*
X70680000Y-92750000D01*
D11*
X125825000Y-88175000D02*
X125775000Y-88175000D01*
X125825000Y-92325000D02*
X125680000Y-92325000D01*
X120675000Y-92325000D02*
X120820000Y-92325000D01*
X120675000Y-88175000D02*
X120820000Y-88175000D01*
X125825000Y-88175000D02*
X125825000Y-92325000D01*
X120675000Y-88175000D02*
X120675000Y-92325000D01*
X125775000Y-88175000D02*
X125775000Y-86775000D01*
X117036000Y-93330000D02*
X112210000Y-93330000D01*
X112210000Y-93330000D02*
X112210000Y-83170000D01*
X112210000Y-83170000D02*
X117036000Y-83170000D01*
X117036000Y-83170000D02*
X117036000Y-93330000D01*
X115258000Y-83170000D02*
X115258000Y-83805000D01*
X115258000Y-83805000D02*
X113988000Y-83805000D01*
X113988000Y-83805000D02*
X113988000Y-83170000D01*
X105536000Y-93330000D02*
X100710000Y-93330000D01*
X100710000Y-93330000D02*
X100710000Y-83170000D01*
X100710000Y-83170000D02*
X105536000Y-83170000D01*
X105536000Y-83170000D02*
X105536000Y-93330000D01*
X103758000Y-83170000D02*
X103758000Y-83805000D01*
X103758000Y-83805000D02*
X102488000Y-83805000D01*
X102488000Y-83805000D02*
X102488000Y-83170000D01*
D13*
X58750000Y-79900000D02*
G75*
G02X56750000Y-79900000I-1000000J0D01*
G01*
X56750000Y-79900000D02*
X54515000Y-79900000D01*
X54515000Y-79900000D02*
X54515000Y-85100000D01*
X54515000Y-85100000D02*
X60985000Y-85100000D01*
X60985000Y-85100000D02*
X60985000Y-79900000D01*
X60985000Y-79900000D02*
X58750000Y-79900000D01*
D11*
X55466667Y-59652381D02*
X55466667Y-60366667D01*
X55419047Y-60509524D01*
X55323809Y-60604762D01*
X55180952Y-60652381D01*
X55085714Y-60652381D01*
X55895238Y-59747619D02*
X55942857Y-59700000D01*
X56038095Y-59652381D01*
X56276191Y-59652381D01*
X56371429Y-59700000D01*
X56419048Y-59747619D01*
X56466667Y-59842857D01*
X56466667Y-59938095D01*
X56419048Y-60080952D01*
X55847619Y-60652381D01*
X56466667Y-60652381D01*
X62202381Y-81452381D02*
X62202381Y-81928572D01*
X62678571Y-81976191D01*
X62630952Y-81928572D01*
X62583333Y-81833334D01*
X62583333Y-81595238D01*
X62630952Y-81500000D01*
X62678571Y-81452381D01*
X62773810Y-81404762D01*
X63011905Y-81404762D01*
X63107143Y-81452381D01*
X63154762Y-81500000D01*
X63202381Y-81595238D01*
X63202381Y-81833334D01*
X63154762Y-81928572D01*
X63107143Y-81976191D01*
X62202381Y-81119048D02*
X63202381Y-80785715D01*
X62202381Y-80452381D01*
X63297619Y-80357143D02*
X63297619Y-79595238D01*
X63202381Y-78785714D02*
X62726190Y-79119048D01*
X63202381Y-79357143D02*
X62202381Y-79357143D01*
X62202381Y-78976190D01*
X62250000Y-78880952D01*
X62297619Y-78833333D01*
X62392857Y-78785714D01*
X62535714Y-78785714D01*
X62630952Y-78833333D01*
X62678571Y-78880952D01*
X62726190Y-78976190D01*
X62726190Y-79357143D01*
X62678571Y-78357143D02*
X62678571Y-78023809D01*
X63202381Y-77880952D02*
X63202381Y-78357143D01*
X62202381Y-78357143D01*
X62202381Y-77880952D01*
X62202381Y-77595238D02*
X63202381Y-77261905D01*
X62202381Y-76928571D01*
X63297619Y-76833333D02*
X63297619Y-76071428D01*
X62678571Y-75499999D02*
X62678571Y-75833333D01*
X63202381Y-75833333D02*
X62202381Y-75833333D01*
X62202381Y-75357142D01*
X63202381Y-74404761D02*
X62726190Y-74738095D01*
X63202381Y-74976190D02*
X62202381Y-74976190D01*
X62202381Y-74595237D01*
X62250000Y-74499999D01*
X62297619Y-74452380D01*
X62392857Y-74404761D01*
X62535714Y-74404761D01*
X62630952Y-74452380D01*
X62678571Y-74499999D01*
X62726190Y-74595237D01*
X62726190Y-74976190D01*
X62202381Y-73785714D02*
X62202381Y-73595237D01*
X62250000Y-73499999D01*
X62345238Y-73404761D01*
X62535714Y-73357142D01*
X62869048Y-73357142D01*
X63059524Y-73404761D01*
X63154762Y-73499999D01*
X63202381Y-73595237D01*
X63202381Y-73785714D01*
X63154762Y-73880952D01*
X63059524Y-73976190D01*
X62869048Y-74023809D01*
X62535714Y-74023809D01*
X62345238Y-73976190D01*
X62250000Y-73880952D01*
X62202381Y-73785714D01*
X63202381Y-72928571D02*
X62202381Y-72928571D01*
X62916667Y-72595237D01*
X62202381Y-72261904D01*
X63202381Y-72261904D01*
X63297619Y-72023809D02*
X63297619Y-71261904D01*
X63107143Y-70452380D02*
X63154762Y-70499999D01*
X63202381Y-70642856D01*
X63202381Y-70738094D01*
X63154762Y-70880952D01*
X63059524Y-70976190D01*
X62964286Y-71023809D01*
X62773810Y-71071428D01*
X62630952Y-71071428D01*
X62440476Y-71023809D01*
X62345238Y-70976190D01*
X62250000Y-70880952D01*
X62202381Y-70738094D01*
X62202381Y-70642856D01*
X62250000Y-70499999D01*
X62297619Y-70452380D01*
X62202381Y-69833333D02*
X62202381Y-69642856D01*
X62250000Y-69547618D01*
X62345238Y-69452380D01*
X62535714Y-69404761D01*
X62869048Y-69404761D01*
X63059524Y-69452380D01*
X63154762Y-69547618D01*
X63202381Y-69642856D01*
X63202381Y-69833333D01*
X63154762Y-69928571D01*
X63059524Y-70023809D01*
X62869048Y-70071428D01*
X62535714Y-70071428D01*
X62345238Y-70023809D01*
X62250000Y-69928571D01*
X62202381Y-69833333D01*
X63202381Y-68976190D02*
X62202381Y-68976190D01*
X63202381Y-68404761D01*
X62202381Y-68404761D01*
X62202381Y-68071428D02*
X62202381Y-67499999D01*
X63202381Y-67785714D02*
X62202381Y-67785714D01*
X63202381Y-66595237D02*
X62726190Y-66928571D01*
X63202381Y-67166666D02*
X62202381Y-67166666D01*
X62202381Y-66785713D01*
X62250000Y-66690475D01*
X62297619Y-66642856D01*
X62392857Y-66595237D01*
X62535714Y-66595237D01*
X62630952Y-66642856D01*
X62678571Y-66690475D01*
X62726190Y-66785713D01*
X62726190Y-67166666D01*
X62202381Y-65976190D02*
X62202381Y-65785713D01*
X62250000Y-65690475D01*
X62345238Y-65595237D01*
X62535714Y-65547618D01*
X62869048Y-65547618D01*
X63059524Y-65595237D01*
X63154762Y-65690475D01*
X63202381Y-65785713D01*
X63202381Y-65976190D01*
X63154762Y-66071428D01*
X63059524Y-66166666D01*
X62869048Y-66214285D01*
X62535714Y-66214285D01*
X62345238Y-66166666D01*
X62250000Y-66071428D01*
X62202381Y-65976190D01*
X63202381Y-64642856D02*
X63202381Y-65119047D01*
X62202381Y-65119047D01*
X63202381Y-63833332D02*
X63202381Y-64309523D01*
X62202381Y-64309523D01*
X62678571Y-63499999D02*
X62678571Y-63166665D01*
X63202381Y-63023808D02*
X63202381Y-63499999D01*
X62202381Y-63499999D01*
X62202381Y-63023808D01*
X63202381Y-62023808D02*
X62726190Y-62357142D01*
X63202381Y-62595237D02*
X62202381Y-62595237D01*
X62202381Y-62214284D01*
X62250000Y-62119046D01*
X62297619Y-62071427D01*
X62392857Y-62023808D01*
X62535714Y-62023808D01*
X62630952Y-62071427D01*
X62678571Y-62119046D01*
X62726190Y-62214284D01*
X62726190Y-62595237D01*
X102202381Y-61833333D02*
X102916667Y-61833333D01*
X103059524Y-61880953D01*
X103154762Y-61976191D01*
X103202381Y-62119048D01*
X103202381Y-62214286D01*
X103202381Y-60833333D02*
X103202381Y-61404762D01*
X103202381Y-61119048D02*
X102202381Y-61119048D01*
X102345238Y-61214286D01*
X102440476Y-61309524D01*
X102488095Y-61404762D01*
X103202381Y-58428571D02*
X102202381Y-58428571D01*
X103202381Y-57952381D02*
X102202381Y-57952381D01*
X103202381Y-57380952D01*
X102202381Y-57380952D01*
X103202381Y-56904762D02*
X102202381Y-56904762D01*
X102202381Y-56523809D01*
X102250000Y-56428571D01*
X102297619Y-56380952D01*
X102392857Y-56333333D01*
X102535714Y-56333333D01*
X102630952Y-56380952D01*
X102678571Y-56428571D01*
X102726190Y-56523809D01*
X102726190Y-56904762D01*
X102202381Y-55904762D02*
X103011905Y-55904762D01*
X103107143Y-55857143D01*
X103154762Y-55809524D01*
X103202381Y-55714286D01*
X103202381Y-55523809D01*
X103154762Y-55428571D01*
X103107143Y-55380952D01*
X103011905Y-55333333D01*
X102202381Y-55333333D01*
X102202381Y-55000000D02*
X102202381Y-54428571D01*
X103202381Y-54714286D02*
X102202381Y-54714286D01*
X63452381Y-62333333D02*
X64166667Y-62333333D01*
X64309524Y-62380953D01*
X64404762Y-62476191D01*
X64452381Y-62619048D01*
X64452381Y-62714286D01*
X63452381Y-61952381D02*
X63452381Y-61333333D01*
X63833333Y-61666667D01*
X63833333Y-61523809D01*
X63880952Y-61428571D01*
X63928571Y-61380952D01*
X64023810Y-61333333D01*
X64261905Y-61333333D01*
X64357143Y-61380952D01*
X64404762Y-61428571D01*
X64452381Y-61523809D01*
X64452381Y-61809524D01*
X64404762Y-61904762D01*
X64357143Y-61952381D01*
X64202381Y-59369047D02*
X63726190Y-59702381D01*
X64202381Y-59940476D02*
X63202381Y-59940476D01*
X63202381Y-59559523D01*
X63250000Y-59464285D01*
X63297619Y-59416666D01*
X63392857Y-59369047D01*
X63535714Y-59369047D01*
X63630952Y-59416666D01*
X63678571Y-59464285D01*
X63726190Y-59559523D01*
X63726190Y-59940476D01*
X63678571Y-58940476D02*
X63678571Y-58607142D01*
X64202381Y-58464285D02*
X64202381Y-58940476D01*
X63202381Y-58940476D01*
X63202381Y-58464285D01*
X63202381Y-58178571D02*
X64202381Y-57845238D01*
X63202381Y-57511904D01*
X64202381Y-56702380D02*
X64202381Y-57178571D01*
X63202381Y-57178571D01*
X64202381Y-56369047D02*
X63202381Y-56369047D01*
X63250000Y-55369047D02*
X63202381Y-55464285D01*
X63202381Y-55607142D01*
X63250000Y-55750000D01*
X63345238Y-55845238D01*
X63440476Y-55892857D01*
X63630952Y-55940476D01*
X63773810Y-55940476D01*
X63964286Y-55892857D01*
X64059524Y-55845238D01*
X64154762Y-55750000D01*
X64202381Y-55607142D01*
X64202381Y-55511904D01*
X64154762Y-55369047D01*
X64107143Y-55321428D01*
X63773810Y-55321428D01*
X63773810Y-55511904D01*
X64202381Y-54892857D02*
X63202381Y-54892857D01*
X63678571Y-54892857D02*
X63678571Y-54321428D01*
X64202381Y-54321428D02*
X63202381Y-54321428D01*
X63202381Y-53988095D02*
X63202381Y-53416666D01*
X64202381Y-53702381D02*
X63202381Y-53702381D01*
X76202381Y-61833333D02*
X76916667Y-61833333D01*
X77059524Y-61880953D01*
X77154762Y-61976191D01*
X77202381Y-62119048D01*
X77202381Y-62214286D01*
X76535714Y-60928571D02*
X77202381Y-60928571D01*
X76154762Y-61166667D02*
X76869048Y-61404762D01*
X76869048Y-60785714D01*
X77202381Y-59773809D02*
X76202381Y-59773809D01*
X76202381Y-59535714D01*
X76250000Y-59392856D01*
X76345238Y-59297618D01*
X76440476Y-59249999D01*
X76630952Y-59202380D01*
X76773810Y-59202380D01*
X76964286Y-59249999D01*
X77059524Y-59297618D01*
X77154762Y-59392856D01*
X77202381Y-59535714D01*
X77202381Y-59773809D01*
X77202381Y-58773809D02*
X76202381Y-58773809D01*
X77202381Y-57726190D02*
X76726190Y-58059524D01*
X77202381Y-58297619D02*
X76202381Y-58297619D01*
X76202381Y-57916666D01*
X76250000Y-57821428D01*
X76297619Y-57773809D01*
X76392857Y-57726190D01*
X76535714Y-57726190D01*
X76630952Y-57773809D01*
X76678571Y-57821428D01*
X76726190Y-57916666D01*
X76726190Y-58297619D01*
X77297619Y-57535714D02*
X77297619Y-56773809D01*
X77202381Y-55964285D02*
X76726190Y-56297619D01*
X77202381Y-56535714D02*
X76202381Y-56535714D01*
X76202381Y-56154761D01*
X76250000Y-56059523D01*
X76297619Y-56011904D01*
X76392857Y-55964285D01*
X76535714Y-55964285D01*
X76630952Y-56011904D01*
X76678571Y-56059523D01*
X76726190Y-56154761D01*
X76726190Y-56535714D01*
X77202381Y-55535714D02*
X76202381Y-55535714D01*
X76250000Y-54535714D02*
X76202381Y-54630952D01*
X76202381Y-54773809D01*
X76250000Y-54916667D01*
X76345238Y-55011905D01*
X76440476Y-55059524D01*
X76630952Y-55107143D01*
X76773810Y-55107143D01*
X76964286Y-55059524D01*
X77059524Y-55011905D01*
X77154762Y-54916667D01*
X77202381Y-54773809D01*
X77202381Y-54678571D01*
X77154762Y-54535714D01*
X77107143Y-54488095D01*
X76773810Y-54488095D01*
X76773810Y-54678571D01*
X77202381Y-54059524D02*
X76202381Y-54059524D01*
X76678571Y-54059524D02*
X76678571Y-53488095D01*
X77202381Y-53488095D02*
X76202381Y-53488095D01*
X76202381Y-53154762D02*
X76202381Y-52583333D01*
X77202381Y-52869048D02*
X76202381Y-52869048D01*
X89202381Y-61333333D02*
X89916667Y-61333333D01*
X90059524Y-61380953D01*
X90154762Y-61476191D01*
X90202381Y-61619048D01*
X90202381Y-61714286D01*
X89202381Y-60380952D02*
X89202381Y-60857143D01*
X89678571Y-60904762D01*
X89630952Y-60857143D01*
X89583333Y-60761905D01*
X89583333Y-60523809D01*
X89630952Y-60428571D01*
X89678571Y-60380952D01*
X89773810Y-60333333D01*
X90011905Y-60333333D01*
X90107143Y-60380952D01*
X90154762Y-60428571D01*
X90202381Y-60523809D01*
X90202381Y-60761905D01*
X90154762Y-60857143D01*
X90107143Y-60904762D01*
X90202381Y-59047619D02*
X89202381Y-59047619D01*
X89202381Y-58809524D01*
X89250000Y-58666666D01*
X89345238Y-58571428D01*
X89440476Y-58523809D01*
X89630952Y-58476190D01*
X89773810Y-58476190D01*
X89964286Y-58523809D01*
X90059524Y-58571428D01*
X90154762Y-58666666D01*
X90202381Y-58809524D01*
X90202381Y-59047619D01*
X90202381Y-58047619D02*
X89202381Y-58047619D01*
X90202381Y-57000000D02*
X89726190Y-57333334D01*
X90202381Y-57571429D02*
X89202381Y-57571429D01*
X89202381Y-57190476D01*
X89250000Y-57095238D01*
X89297619Y-57047619D01*
X89392857Y-57000000D01*
X89535714Y-57000000D01*
X89630952Y-57047619D01*
X89678571Y-57095238D01*
X89726190Y-57190476D01*
X89726190Y-57571429D01*
X90297619Y-56809524D02*
X90297619Y-56047619D01*
X90202381Y-55333333D02*
X90202381Y-55809524D01*
X89202381Y-55809524D01*
X89678571Y-55000000D02*
X89678571Y-54666666D01*
X90202381Y-54523809D02*
X90202381Y-55000000D01*
X89202381Y-55000000D01*
X89202381Y-54523809D01*
X89678571Y-53761904D02*
X89678571Y-54095238D01*
X90202381Y-54095238D02*
X89202381Y-54095238D01*
X89202381Y-53619047D01*
X89202381Y-53380952D02*
X89202381Y-52809523D01*
X90202381Y-53095238D02*
X89202381Y-53095238D01*
X123904762Y-66583333D02*
X123952381Y-66440476D01*
X123952381Y-66202380D01*
X123904762Y-66107142D01*
X123857143Y-66059523D01*
X123761905Y-66011904D01*
X123666667Y-66011904D01*
X123571429Y-66059523D01*
X123523810Y-66107142D01*
X123476190Y-66202380D01*
X123428571Y-66392857D01*
X123380952Y-66488095D01*
X123333333Y-66535714D01*
X123238095Y-66583333D01*
X123142857Y-66583333D01*
X123047619Y-66535714D01*
X123000000Y-66488095D01*
X122952381Y-66392857D01*
X122952381Y-66154761D01*
X123000000Y-66011904D01*
X122952381Y-65678571D02*
X123952381Y-65440476D01*
X123238095Y-65249999D01*
X123952381Y-65059523D01*
X122952381Y-64821428D01*
X122952381Y-63964285D02*
X122952381Y-64440476D01*
X123428571Y-64488095D01*
X123380952Y-64440476D01*
X123333333Y-64345238D01*
X123333333Y-64107142D01*
X123380952Y-64011904D01*
X123428571Y-63964285D01*
X123523810Y-63916666D01*
X123761905Y-63916666D01*
X123857143Y-63964285D01*
X123904762Y-64011904D01*
X123952381Y-64107142D01*
X123952381Y-64345238D01*
X123904762Y-64440476D01*
X123857143Y-64488095D01*
X121702381Y-64690476D02*
X120702381Y-64690476D01*
X120702381Y-64452381D01*
X120750000Y-64309523D01*
X120845238Y-64214285D01*
X120940476Y-64166666D01*
X121130952Y-64119047D01*
X121273810Y-64119047D01*
X121464286Y-64166666D01*
X121559524Y-64214285D01*
X121654762Y-64309523D01*
X121702381Y-64452381D01*
X121702381Y-64690476D01*
X121702381Y-63690476D02*
X120702381Y-63690476D01*
X121702381Y-62642857D02*
X121226190Y-62976191D01*
X121702381Y-63214286D02*
X120702381Y-63214286D01*
X120702381Y-62833333D01*
X120750000Y-62738095D01*
X120797619Y-62690476D01*
X120892857Y-62642857D01*
X121035714Y-62642857D01*
X121130952Y-62690476D01*
X121178571Y-62738095D01*
X121226190Y-62833333D01*
X121226190Y-63214286D01*
X121178571Y-62214286D02*
X121178571Y-61880952D01*
X121702381Y-61738095D02*
X121702381Y-62214286D01*
X120702381Y-62214286D01*
X120702381Y-61738095D01*
X121607143Y-60738095D02*
X121654762Y-60785714D01*
X121702381Y-60928571D01*
X121702381Y-61023809D01*
X121654762Y-61166667D01*
X121559524Y-61261905D01*
X121464286Y-61309524D01*
X121273810Y-61357143D01*
X121130952Y-61357143D01*
X120940476Y-61309524D01*
X120845238Y-61261905D01*
X120750000Y-61166667D01*
X120702381Y-61023809D01*
X120702381Y-60928571D01*
X120750000Y-60785714D01*
X120797619Y-60738095D01*
X120702381Y-60452381D02*
X120702381Y-59880952D01*
X121702381Y-60166667D02*
X120702381Y-60166667D01*
X121702381Y-59547619D02*
X120702381Y-59547619D01*
X120702381Y-58880953D02*
X120702381Y-58690476D01*
X120750000Y-58595238D01*
X120845238Y-58500000D01*
X121035714Y-58452381D01*
X121369048Y-58452381D01*
X121559524Y-58500000D01*
X121654762Y-58595238D01*
X121702381Y-58690476D01*
X121702381Y-58880953D01*
X121654762Y-58976191D01*
X121559524Y-59071429D01*
X121369048Y-59119048D01*
X121035714Y-59119048D01*
X120845238Y-59071429D01*
X120750000Y-58976191D01*
X120702381Y-58880953D01*
X121702381Y-58023810D02*
X120702381Y-58023810D01*
X121702381Y-57452381D01*
X120702381Y-57452381D01*
X121797619Y-57214286D02*
X121797619Y-56452381D01*
X121654762Y-56261905D02*
X121702381Y-56119048D01*
X121702381Y-55880952D01*
X121654762Y-55785714D01*
X121607143Y-55738095D01*
X121511905Y-55690476D01*
X121416667Y-55690476D01*
X121321429Y-55738095D01*
X121273810Y-55785714D01*
X121226190Y-55880952D01*
X121178571Y-56071429D01*
X121130952Y-56166667D01*
X121083333Y-56214286D01*
X120988095Y-56261905D01*
X120892857Y-56261905D01*
X120797619Y-56214286D01*
X120750000Y-56166667D01*
X120702381Y-56071429D01*
X120702381Y-55833333D01*
X120750000Y-55690476D01*
X120702381Y-55357143D02*
X121702381Y-55119048D01*
X120988095Y-54928571D01*
X121702381Y-54738095D01*
X120702381Y-54500000D01*
X121702381Y-54119048D02*
X120702381Y-54119048D01*
X120702381Y-53785715D02*
X120702381Y-53214286D01*
X121702381Y-53500001D02*
X120702381Y-53500001D01*
X121607143Y-52309524D02*
X121654762Y-52357143D01*
X121702381Y-52500000D01*
X121702381Y-52595238D01*
X121654762Y-52738096D01*
X121559524Y-52833334D01*
X121464286Y-52880953D01*
X121273810Y-52928572D01*
X121130952Y-52928572D01*
X120940476Y-52880953D01*
X120845238Y-52833334D01*
X120750000Y-52738096D01*
X120702381Y-52595238D01*
X120702381Y-52500000D01*
X120750000Y-52357143D01*
X120797619Y-52309524D01*
X121702381Y-51880953D02*
X120702381Y-51880953D01*
X121178571Y-51880953D02*
X121178571Y-51309524D01*
X121702381Y-51309524D02*
X120702381Y-51309524D01*
X124583334Y-78107143D02*
X124535715Y-78154762D01*
X124392858Y-78202381D01*
X124297620Y-78202381D01*
X124154762Y-78154762D01*
X124059524Y-78059524D01*
X124011905Y-77964286D01*
X123964286Y-77773810D01*
X123964286Y-77630952D01*
X124011905Y-77440476D01*
X124059524Y-77345238D01*
X124154762Y-77250000D01*
X124297620Y-77202381D01*
X124392858Y-77202381D01*
X124535715Y-77250000D01*
X124583334Y-77297619D01*
X125535715Y-78202381D02*
X124964286Y-78202381D01*
X125250000Y-78202381D02*
X125250000Y-77202381D01*
X125154762Y-77345238D01*
X125059524Y-77440476D01*
X124964286Y-77488095D01*
X115107143Y-79416666D02*
X115154762Y-79464285D01*
X115202381Y-79607142D01*
X115202381Y-79702380D01*
X115154762Y-79845238D01*
X115059524Y-79940476D01*
X114964286Y-79988095D01*
X114773810Y-80035714D01*
X114630952Y-80035714D01*
X114440476Y-79988095D01*
X114345238Y-79940476D01*
X114250000Y-79845238D01*
X114202381Y-79702380D01*
X114202381Y-79607142D01*
X114250000Y-79464285D01*
X114297619Y-79416666D01*
X114297619Y-79035714D02*
X114250000Y-78988095D01*
X114202381Y-78892857D01*
X114202381Y-78654761D01*
X114250000Y-78559523D01*
X114297619Y-78511904D01*
X114392857Y-78464285D01*
X114488095Y-78464285D01*
X114630952Y-78511904D01*
X115202381Y-79083333D01*
X115202381Y-78464285D01*
X81654762Y-90047619D02*
X81559524Y-90000000D01*
X81464286Y-89904762D01*
X81321429Y-89761905D01*
X81226190Y-89714286D01*
X81130952Y-89714286D01*
X81178571Y-89952381D02*
X81083333Y-89904762D01*
X80988095Y-89809524D01*
X80940476Y-89619048D01*
X80940476Y-89285714D01*
X80988095Y-89095238D01*
X81083333Y-89000000D01*
X81178571Y-88952381D01*
X81369048Y-88952381D01*
X81464286Y-89000000D01*
X81559524Y-89095238D01*
X81607143Y-89285714D01*
X81607143Y-89619048D01*
X81559524Y-89809524D01*
X81464286Y-89904762D01*
X81369048Y-89952381D01*
X81178571Y-89952381D01*
X82559524Y-89952381D02*
X81988095Y-89952381D01*
X82273809Y-89952381D02*
X82273809Y-88952381D01*
X82178571Y-89095238D01*
X82083333Y-89190476D01*
X81988095Y-89238095D01*
X74154762Y-90047619D02*
X74059524Y-90000000D01*
X73964286Y-89904762D01*
X73821429Y-89761905D01*
X73726190Y-89714286D01*
X73630952Y-89714286D01*
X73678571Y-89952381D02*
X73583333Y-89904762D01*
X73488095Y-89809524D01*
X73440476Y-89619048D01*
X73440476Y-89285714D01*
X73488095Y-89095238D01*
X73583333Y-89000000D01*
X73678571Y-88952381D01*
X73869048Y-88952381D01*
X73964286Y-89000000D01*
X74059524Y-89095238D01*
X74107143Y-89285714D01*
X74107143Y-89619048D01*
X74059524Y-89809524D01*
X73964286Y-89904762D01*
X73869048Y-89952381D01*
X73678571Y-89952381D01*
X74488095Y-89047619D02*
X74535714Y-89000000D01*
X74630952Y-88952381D01*
X74869048Y-88952381D01*
X74964286Y-89000000D01*
X75011905Y-89047619D01*
X75059524Y-89142857D01*
X75059524Y-89238095D01*
X75011905Y-89380952D01*
X74440476Y-89952381D01*
X75059524Y-89952381D01*
X66904762Y-90297619D02*
X66809524Y-90250000D01*
X66714286Y-90154762D01*
X66571429Y-90011905D01*
X66476190Y-89964286D01*
X66380952Y-89964286D01*
X66428571Y-90202381D02*
X66333333Y-90154762D01*
X66238095Y-90059524D01*
X66190476Y-89869048D01*
X66190476Y-89535714D01*
X66238095Y-89345238D01*
X66333333Y-89250000D01*
X66428571Y-89202381D01*
X66619048Y-89202381D01*
X66714286Y-89250000D01*
X66809524Y-89345238D01*
X66857143Y-89535714D01*
X66857143Y-89869048D01*
X66809524Y-90059524D01*
X66714286Y-90154762D01*
X66619048Y-90202381D01*
X66428571Y-90202381D01*
X67190476Y-89202381D02*
X67809524Y-89202381D01*
X67476190Y-89583333D01*
X67619048Y-89583333D01*
X67714286Y-89630952D01*
X67761905Y-89678571D01*
X67809524Y-89773810D01*
X67809524Y-90011905D01*
X67761905Y-90107143D01*
X67714286Y-90154762D01*
X67619048Y-90202381D01*
X67333333Y-90202381D01*
X67238095Y-90154762D01*
X67190476Y-90107143D01*
X90147619Y-73095238D02*
X90100000Y-73190476D01*
X90004762Y-73285714D01*
X89861905Y-73428571D01*
X89814286Y-73523810D01*
X89814286Y-73619048D01*
X90052381Y-73571429D02*
X90004762Y-73666667D01*
X89909524Y-73761905D01*
X89719048Y-73809524D01*
X89385714Y-73809524D01*
X89195238Y-73761905D01*
X89100000Y-73666667D01*
X89052381Y-73571429D01*
X89052381Y-73380952D01*
X89100000Y-73285714D01*
X89195238Y-73190476D01*
X89385714Y-73142857D01*
X89719048Y-73142857D01*
X89909524Y-73190476D01*
X90004762Y-73285714D01*
X90052381Y-73380952D01*
X90052381Y-73571429D01*
X89385714Y-72285714D02*
X90052381Y-72285714D01*
X89004762Y-72523810D02*
X89719048Y-72761905D01*
X89719048Y-72142857D01*
X77147619Y-73095238D02*
X77100000Y-73190476D01*
X77004762Y-73285714D01*
X76861905Y-73428571D01*
X76814286Y-73523810D01*
X76814286Y-73619048D01*
X77052381Y-73571429D02*
X77004762Y-73666667D01*
X76909524Y-73761905D01*
X76719048Y-73809524D01*
X76385714Y-73809524D01*
X76195238Y-73761905D01*
X76100000Y-73666667D01*
X76052381Y-73571429D01*
X76052381Y-73380952D01*
X76100000Y-73285714D01*
X76195238Y-73190476D01*
X76385714Y-73142857D01*
X76719048Y-73142857D01*
X76909524Y-73190476D01*
X77004762Y-73285714D01*
X77052381Y-73380952D01*
X77052381Y-73571429D01*
X76052381Y-72238095D02*
X76052381Y-72714286D01*
X76528571Y-72761905D01*
X76480952Y-72714286D01*
X76433333Y-72619048D01*
X76433333Y-72380952D01*
X76480952Y-72285714D01*
X76528571Y-72238095D01*
X76623810Y-72190476D01*
X76861905Y-72190476D01*
X76957143Y-72238095D01*
X77004762Y-72285714D01*
X77052381Y-72380952D01*
X77052381Y-72619048D01*
X77004762Y-72714286D01*
X76957143Y-72761905D01*
X64147619Y-73095238D02*
X64100000Y-73190476D01*
X64004762Y-73285714D01*
X63861905Y-73428571D01*
X63814286Y-73523810D01*
X63814286Y-73619048D01*
X64052381Y-73571429D02*
X64004762Y-73666667D01*
X63909524Y-73761905D01*
X63719048Y-73809524D01*
X63385714Y-73809524D01*
X63195238Y-73761905D01*
X63100000Y-73666667D01*
X63052381Y-73571429D01*
X63052381Y-73380952D01*
X63100000Y-73285714D01*
X63195238Y-73190476D01*
X63385714Y-73142857D01*
X63719048Y-73142857D01*
X63909524Y-73190476D01*
X64004762Y-73285714D01*
X64052381Y-73380952D01*
X64052381Y-73571429D01*
X63052381Y-72285714D02*
X63052381Y-72476191D01*
X63100000Y-72571429D01*
X63147619Y-72619048D01*
X63290476Y-72714286D01*
X63480952Y-72761905D01*
X63861905Y-72761905D01*
X63957143Y-72714286D01*
X64004762Y-72666667D01*
X64052381Y-72571429D01*
X64052381Y-72380952D01*
X64004762Y-72285714D01*
X63957143Y-72238095D01*
X63861905Y-72190476D01*
X63623810Y-72190476D01*
X63528571Y-72238095D01*
X63480952Y-72285714D01*
X63433333Y-72380952D01*
X63433333Y-72571429D01*
X63480952Y-72666667D01*
X63528571Y-72714286D01*
X63623810Y-72761905D01*
X117252381Y-79416666D02*
X116776190Y-79750000D01*
X117252381Y-79988095D02*
X116252381Y-79988095D01*
X116252381Y-79607142D01*
X116300000Y-79511904D01*
X116347619Y-79464285D01*
X116442857Y-79416666D01*
X116585714Y-79416666D01*
X116680952Y-79464285D01*
X116728571Y-79511904D01*
X116776190Y-79607142D01*
X116776190Y-79988095D01*
X117252381Y-78464285D02*
X117252381Y-79035714D01*
X117252381Y-78750000D02*
X116252381Y-78750000D01*
X116395238Y-78845238D01*
X116490476Y-78940476D01*
X116538095Y-79035714D01*
X136452381Y-92416666D02*
X135976190Y-92750000D01*
X136452381Y-92988095D02*
X135452381Y-92988095D01*
X135452381Y-92607142D01*
X135500000Y-92511904D01*
X135547619Y-92464285D01*
X135642857Y-92416666D01*
X135785714Y-92416666D01*
X135880952Y-92464285D01*
X135928571Y-92511904D01*
X135976190Y-92607142D01*
X135976190Y-92988095D01*
X135547619Y-92035714D02*
X135500000Y-91988095D01*
X135452381Y-91892857D01*
X135452381Y-91654761D01*
X135500000Y-91559523D01*
X135547619Y-91511904D01*
X135642857Y-91464285D01*
X135738095Y-91464285D01*
X135880952Y-91511904D01*
X136452381Y-92083333D01*
X136452381Y-91464285D01*
X110402381Y-79416666D02*
X109926190Y-79750000D01*
X110402381Y-79988095D02*
X109402381Y-79988095D01*
X109402381Y-79607142D01*
X109450000Y-79511904D01*
X109497619Y-79464285D01*
X109592857Y-79416666D01*
X109735714Y-79416666D01*
X109830952Y-79464285D01*
X109878571Y-79511904D01*
X109926190Y-79607142D01*
X109926190Y-79988095D01*
X109402381Y-79083333D02*
X109402381Y-78464285D01*
X109783333Y-78797619D01*
X109783333Y-78654761D01*
X109830952Y-78559523D01*
X109878571Y-78511904D01*
X109973810Y-78464285D01*
X110211905Y-78464285D01*
X110307143Y-78511904D01*
X110354762Y-78559523D01*
X110402381Y-78654761D01*
X110402381Y-78940476D01*
X110354762Y-79035714D01*
X110307143Y-79083333D01*
X102752381Y-79416666D02*
X102276190Y-79750000D01*
X102752381Y-79988095D02*
X101752381Y-79988095D01*
X101752381Y-79607142D01*
X101800000Y-79511904D01*
X101847619Y-79464285D01*
X101942857Y-79416666D01*
X102085714Y-79416666D01*
X102180952Y-79464285D01*
X102228571Y-79511904D01*
X102276190Y-79607142D01*
X102276190Y-79988095D01*
X102085714Y-78559523D02*
X102752381Y-78559523D01*
X101704762Y-78797619D02*
X102419048Y-79035714D01*
X102419048Y-78416666D01*
X106502381Y-79416666D02*
X106026190Y-79750000D01*
X106502381Y-79988095D02*
X105502381Y-79988095D01*
X105502381Y-79607142D01*
X105550000Y-79511904D01*
X105597619Y-79464285D01*
X105692857Y-79416666D01*
X105835714Y-79416666D01*
X105930952Y-79464285D01*
X105978571Y-79511904D01*
X106026190Y-79607142D01*
X106026190Y-79988095D01*
X105502381Y-78511904D02*
X105502381Y-78988095D01*
X105978571Y-79035714D01*
X105930952Y-78988095D01*
X105883333Y-78892857D01*
X105883333Y-78654761D01*
X105930952Y-78559523D01*
X105978571Y-78511904D01*
X106073810Y-78464285D01*
X106311905Y-78464285D01*
X106407143Y-78511904D01*
X106454762Y-78559523D01*
X106502381Y-78654761D01*
X106502381Y-78892857D01*
X106454762Y-78988095D01*
X106407143Y-79035714D01*
X81452381Y-96166666D02*
X80976190Y-96500000D01*
X81452381Y-96738095D02*
X80452381Y-96738095D01*
X80452381Y-96357142D01*
X80500000Y-96261904D01*
X80547619Y-96214285D01*
X80642857Y-96166666D01*
X80785714Y-96166666D01*
X80880952Y-96214285D01*
X80928571Y-96261904D01*
X80976190Y-96357142D01*
X80976190Y-96738095D01*
X80452381Y-95309523D02*
X80452381Y-95500000D01*
X80500000Y-95595238D01*
X80547619Y-95642857D01*
X80690476Y-95738095D01*
X80880952Y-95785714D01*
X81261905Y-95785714D01*
X81357143Y-95738095D01*
X81404762Y-95690476D01*
X81452381Y-95595238D01*
X81452381Y-95404761D01*
X81404762Y-95309523D01*
X81357143Y-95261904D01*
X81261905Y-95214285D01*
X81023810Y-95214285D01*
X80928571Y-95261904D01*
X80880952Y-95309523D01*
X80833333Y-95404761D01*
X80833333Y-95595238D01*
X80880952Y-95690476D01*
X80928571Y-95738095D01*
X81023810Y-95785714D01*
X75952381Y-96166666D02*
X75476190Y-96500000D01*
X75952381Y-96738095D02*
X74952381Y-96738095D01*
X74952381Y-96357142D01*
X75000000Y-96261904D01*
X75047619Y-96214285D01*
X75142857Y-96166666D01*
X75285714Y-96166666D01*
X75380952Y-96214285D01*
X75428571Y-96261904D01*
X75476190Y-96357142D01*
X75476190Y-96738095D01*
X74952381Y-95833333D02*
X74952381Y-95166666D01*
X75952381Y-95595238D01*
X57583334Y-74252381D02*
X57250000Y-73776190D01*
X57011905Y-74252381D02*
X57011905Y-73252381D01*
X57392858Y-73252381D01*
X57488096Y-73300000D01*
X57535715Y-73347619D01*
X57583334Y-73442857D01*
X57583334Y-73585714D01*
X57535715Y-73680952D01*
X57488096Y-73728571D01*
X57392858Y-73776190D01*
X57011905Y-73776190D01*
X58154762Y-73680952D02*
X58059524Y-73633333D01*
X58011905Y-73585714D01*
X57964286Y-73490476D01*
X57964286Y-73442857D01*
X58011905Y-73347619D01*
X58059524Y-73300000D01*
X58154762Y-73252381D01*
X58345239Y-73252381D01*
X58440477Y-73300000D01*
X58488096Y-73347619D01*
X58535715Y-73442857D01*
X58535715Y-73490476D01*
X58488096Y-73585714D01*
X58440477Y-73633333D01*
X58345239Y-73680952D01*
X58154762Y-73680952D01*
X58059524Y-73728571D01*
X58011905Y-73776190D01*
X57964286Y-73871429D01*
X57964286Y-74061905D01*
X58011905Y-74157143D01*
X58059524Y-74204762D01*
X58154762Y-74252381D01*
X58345239Y-74252381D01*
X58440477Y-74204762D01*
X58488096Y-74157143D01*
X58535715Y-74061905D01*
X58535715Y-73871429D01*
X58488096Y-73776190D01*
X58440477Y-73728571D01*
X58345239Y-73680952D01*
X64952381Y-96166666D02*
X64476190Y-96500000D01*
X64952381Y-96738095D02*
X63952381Y-96738095D01*
X63952381Y-96357142D01*
X64000000Y-96261904D01*
X64047619Y-96214285D01*
X64142857Y-96166666D01*
X64285714Y-96166666D01*
X64380952Y-96214285D01*
X64428571Y-96261904D01*
X64476190Y-96357142D01*
X64476190Y-96738095D01*
X64952381Y-95690476D02*
X64952381Y-95500000D01*
X64904762Y-95404761D01*
X64857143Y-95357142D01*
X64714286Y-95261904D01*
X64523810Y-95214285D01*
X64142857Y-95214285D01*
X64047619Y-95261904D01*
X64000000Y-95309523D01*
X63952381Y-95404761D01*
X63952381Y-95595238D01*
X64000000Y-95690476D01*
X64047619Y-95738095D01*
X64142857Y-95785714D01*
X64380952Y-95785714D01*
X64476190Y-95738095D01*
X64523810Y-95690476D01*
X64571429Y-95595238D01*
X64571429Y-95404761D01*
X64523810Y-95309523D01*
X64476190Y-95261904D01*
X64380952Y-95214285D01*
X67702381Y-96142857D02*
X67226190Y-96476191D01*
X67702381Y-96714286D02*
X66702381Y-96714286D01*
X66702381Y-96333333D01*
X66750000Y-96238095D01*
X66797619Y-96190476D01*
X66892857Y-96142857D01*
X67035714Y-96142857D01*
X67130952Y-96190476D01*
X67178571Y-96238095D01*
X67226190Y-96333333D01*
X67226190Y-96714286D01*
X67702381Y-95190476D02*
X67702381Y-95761905D01*
X67702381Y-95476191D02*
X66702381Y-95476191D01*
X66845238Y-95571429D01*
X66940476Y-95666667D01*
X66988095Y-95761905D01*
X66702381Y-94571429D02*
X66702381Y-94476190D01*
X66750000Y-94380952D01*
X66797619Y-94333333D01*
X66892857Y-94285714D01*
X67083333Y-94238095D01*
X67321429Y-94238095D01*
X67511905Y-94285714D01*
X67607143Y-94333333D01*
X67654762Y-94380952D01*
X67702381Y-94476190D01*
X67702381Y-94571429D01*
X67654762Y-94666667D01*
X67607143Y-94714286D01*
X67511905Y-94761905D01*
X67321429Y-94809524D01*
X67083333Y-94809524D01*
X66892857Y-94761905D01*
X66797619Y-94714286D01*
X66750000Y-94666667D01*
X66702381Y-94571429D01*
X78702381Y-96142857D02*
X78226190Y-96476191D01*
X78702381Y-96714286D02*
X77702381Y-96714286D01*
X77702381Y-96333333D01*
X77750000Y-96238095D01*
X77797619Y-96190476D01*
X77892857Y-96142857D01*
X78035714Y-96142857D01*
X78130952Y-96190476D01*
X78178571Y-96238095D01*
X78226190Y-96333333D01*
X78226190Y-96714286D01*
X78702381Y-95190476D02*
X78702381Y-95761905D01*
X78702381Y-95476191D02*
X77702381Y-95476191D01*
X77845238Y-95571429D01*
X77940476Y-95666667D01*
X77988095Y-95761905D01*
X78702381Y-94238095D02*
X78702381Y-94809524D01*
X78702381Y-94523810D02*
X77702381Y-94523810D01*
X77845238Y-94619048D01*
X77940476Y-94714286D01*
X77988095Y-94809524D01*
X73202381Y-96142857D02*
X72726190Y-96476191D01*
X73202381Y-96714286D02*
X72202381Y-96714286D01*
X72202381Y-96333333D01*
X72250000Y-96238095D01*
X72297619Y-96190476D01*
X72392857Y-96142857D01*
X72535714Y-96142857D01*
X72630952Y-96190476D01*
X72678571Y-96238095D01*
X72726190Y-96333333D01*
X72726190Y-96714286D01*
X73202381Y-95190476D02*
X73202381Y-95761905D01*
X73202381Y-95476191D02*
X72202381Y-95476191D01*
X72345238Y-95571429D01*
X72440476Y-95666667D01*
X72488095Y-95761905D01*
X72297619Y-94809524D02*
X72250000Y-94761905D01*
X72202381Y-94666667D01*
X72202381Y-94428571D01*
X72250000Y-94333333D01*
X72297619Y-94285714D01*
X72392857Y-94238095D01*
X72488095Y-94238095D01*
X72630952Y-94285714D01*
X73202381Y-94857143D01*
X73202381Y-94238095D01*
X70452381Y-96142857D02*
X69976190Y-96476191D01*
X70452381Y-96714286D02*
X69452381Y-96714286D01*
X69452381Y-96333333D01*
X69500000Y-96238095D01*
X69547619Y-96190476D01*
X69642857Y-96142857D01*
X69785714Y-96142857D01*
X69880952Y-96190476D01*
X69928571Y-96238095D01*
X69976190Y-96333333D01*
X69976190Y-96714286D01*
X70452381Y-95190476D02*
X70452381Y-95761905D01*
X70452381Y-95476191D02*
X69452381Y-95476191D01*
X69595238Y-95571429D01*
X69690476Y-95666667D01*
X69738095Y-95761905D01*
X69452381Y-94857143D02*
X69452381Y-94238095D01*
X69833333Y-94571429D01*
X69833333Y-94428571D01*
X69880952Y-94333333D01*
X69928571Y-94285714D01*
X70023810Y-94238095D01*
X70261905Y-94238095D01*
X70357143Y-94285714D01*
X70404762Y-94333333D01*
X70452381Y-94428571D01*
X70452381Y-94714286D01*
X70404762Y-94809524D01*
X70357143Y-94857143D01*
X126202381Y-91011905D02*
X127011905Y-91011905D01*
X127107143Y-90964286D01*
X127154762Y-90916667D01*
X127202381Y-90821429D01*
X127202381Y-90630952D01*
X127154762Y-90535714D01*
X127107143Y-90488095D01*
X127011905Y-90440476D01*
X126202381Y-90440476D01*
X127202381Y-89440476D02*
X127202381Y-90011905D01*
X127202381Y-89726191D02*
X126202381Y-89726191D01*
X126345238Y-89821429D01*
X126440476Y-89916667D01*
X126488095Y-90011905D01*
X115472381Y-89011905D02*
X116281905Y-89011905D01*
X116377143Y-88964286D01*
X116424762Y-88916667D01*
X116472381Y-88821429D01*
X116472381Y-88630952D01*
X116424762Y-88535714D01*
X116377143Y-88488095D01*
X116281905Y-88440476D01*
X115472381Y-88440476D01*
X115567619Y-88011905D02*
X115520000Y-87964286D01*
X115472381Y-87869048D01*
X115472381Y-87630952D01*
X115520000Y-87535714D01*
X115567619Y-87488095D01*
X115662857Y-87440476D01*
X115758095Y-87440476D01*
X115900952Y-87488095D01*
X116472381Y-88059524D01*
X116472381Y-87440476D01*
X103972381Y-89011905D02*
X104781905Y-89011905D01*
X104877143Y-88964286D01*
X104924762Y-88916667D01*
X104972381Y-88821429D01*
X104972381Y-88630952D01*
X104924762Y-88535714D01*
X104877143Y-88488095D01*
X104781905Y-88440476D01*
X103972381Y-88440476D01*
X103972381Y-88059524D02*
X103972381Y-87440476D01*
X104353333Y-87773810D01*
X104353333Y-87630952D01*
X104400952Y-87535714D01*
X104448571Y-87488095D01*
X104543810Y-87440476D01*
X104781905Y-87440476D01*
X104877143Y-87488095D01*
X104924762Y-87535714D01*
X104972381Y-87630952D01*
X104972381Y-87916667D01*
X104924762Y-88011905D01*
X104877143Y-88059524D01*
X56988095Y-78352381D02*
X56988095Y-79161905D01*
X57035714Y-79257143D01*
X57083333Y-79304762D01*
X57178571Y-79352381D01*
X57369048Y-79352381D01*
X57464286Y-79304762D01*
X57511905Y-79257143D01*
X57559524Y-79161905D01*
X57559524Y-78352381D01*
X58464286Y-78685714D02*
X58464286Y-79352381D01*
X58226190Y-78304762D02*
X57988095Y-79019048D01*
X58607143Y-79019048D01*
M02*
